<?xml version="1.0" encoding="utf-8"?>
<!-- Generator: Adobe Illustrator 22.1.0, SVG Export Plug-In . SVG Version: 6.00 Build 0)  -->
<svg version="1.1" id="Calque_1" xmlns="http://www.w3.org/2000/svg" xmlns:xlink="http://www.w3.org/1999/xlink" x="0px" y="0px"
	 width="100%" viewBox="0 0 150 150" enable-background="new 0 0 150 150" xml:space="preserve">
<path fill="#EF453B" d="M150,74.9c0,41.5-33.9,75.4-75.1,75.1c-41.7-0.2-75-33.7-74.9-75.2C0.1,33.3,33.7,0,75.3,0
	C116.2,0,150,34,150,74.9z M92.3,107.8c-7.3-10.9-25.8-11.1-34.6-0.3c-2.7,4.3-6.1,8.7-3,14c2.9,5,8.2,3.4,12.6,3.6
	c5.5,0.2,11,0.1,16.4,0c4-0.1,9.2,1.3,11.2-3C97,117.4,96.4,112,92.3,107.8z M57,77.8c-0.3-0.6-0.4-1.7-1-2.1
	c-5.2-3.7-5.8-7.2-0.3-11.3c1.6-1.1,2-3.5,0.3-5.1c-2-1.9-4.3-1-5.7,0.8c-3.3,4.3-6.4,5-9.9,0.4c-1.8-2.4-4.3-3.1-6.3-0.9
	c-1.9,2.1,0.1,4.1,1.7,5.5c4.7,3.7,3.4,7-0.5,10.1c-2,1.6-2.9,3.7-0.9,5.5c1.8,1.6,4,1,5.6-1.1c3.2-4.2,6.6-4.9,10,0
	c1.2,1.7,3,2.4,5.1,1.7C56.6,80.7,56.8,79.3,57,77.8z M115.7,78.8c-0.1-2.2-0.7-3.2-1.9-4.1c-4.3-3.2-3.9-6.5,0.1-9.7
	c1.9-1.5,2.7-3.9,0.9-5.7c-1.8-1.8-4.2-1-5.6,1c-3.4,5-6.6,4.1-9.9-0.1c-1.6-2.1-3.9-2.6-5.7-1.1c-2.1,1.7-1.3,4.1,0.7,5.5
	c5.2,3.7,4.6,7.1-0.2,10.5c-1.9,1.3-2.2,3.4-0.9,5c1.7,2,4.1,1.8,5.6-0.3c4-5.5,7.5-4.3,11.2,0.4c1,1.3,3,1.7,4.5,0.6
	C115.3,80.5,115.5,79.2,115.7,78.8z"/>
<path fill="#2C201F" d="M92.3,107.8c4.2,4.2,4.7,9.6,2.6,14.4c-1.9,4.3-7.2,2.9-11.2,3c-5.5,0.2-11,0.2-16.4,0
	c-4.5-0.2-9.8,1.4-12.6-3.6c-3.1-5.4,0.3-9.7,3-14c2,2.1,0.7,6.7,5.3,6.6c8,4,15.9,4.6,23.8-0.3C90.6,113.5,87.8,107.4,92.3,107.8z"
	/>
<path fill="#32241D" d="M57,77.8c-0.1,1.5-0.3,2.9-1.9,3.4c-2,0.7-3.9,0-5.1-1.7c-3.4-4.9-6.8-4.2-10,0c-1.6,2.1-3.8,2.8-5.6,1.1
	c-2-1.8-1.1-3.9,0.9-5.5c3.9-3.2,5.2-6.4,0.5-10.1c-1.7-1.3-3.7-3.4-1.7-5.5c2-2.2,4.5-1.5,6.3,0.9c3.5,4.6,6.6,3.9,9.9-0.4
	c1.4-1.8,3.7-2.6,5.7-0.8c1.7,1.6,1.2,3.9-0.3,5.1c-5.6,4.1-4.9,7.6,0.3,11.3C56.5,76.1,56.7,77.2,57,77.8z"/>
<path fill="#32241D" d="M115.7,78.8c-0.2,0.3-0.4,1.6-1.1,2.1c-1.5,1-3.4,0.7-4.5-0.6c-3.7-4.7-7.2-5.9-11.2-0.4
	c-1.5,2.1-3.9,2.3-5.6,0.3c-1.3-1.6-1-3.7,0.9-5c4.8-3.4,5.4-6.8,0.2-10.5c-2-1.5-2.8-3.8-0.7-5.5c1.8-1.5,4.1-1,5.7,1.1
	c3.2,4.1,6.4,5,9.9,0.1c1.4-2,3.8-2.9,5.6-1c1.8,1.8,1,4.1-0.9,5.7c-4,3.2-4.4,6.4-0.1,9.7C115,75.6,115.6,76.7,115.7,78.8z"/>
<path fill="#4B221E" d="M63,114.1c-4.6,0-3.3-4.6-5.3-6.6c8.7-10.8,27.3-10.7,34.6,0.3c-4.5-0.3-1.7,5.8-5.5,6.1
	c0.7-7.1-1.7-9.2-10.7-9.5C65.2,104.1,62.6,106,63,114.1z"/>
<path fill="#E34537" d="M63,114.1c-0.4-8.1,2.2-10.1,13.1-9.8c9,0.2,11.4,2.3,10.7,9.5C79,118.7,71,118.2,63,114.1z"/>
</svg>
