<?xml version="1.0" encoding="utf-8"?>
<!-- Generator: Adobe Illustrator 22.1.0, SVG Export Plug-In . SVG Version: 6.00 Build 0)  -->
<svg version="1.1" id="Calque_1" xmlns="http://www.w3.org/2000/svg" xmlns:xlink="http://www.w3.org/1999/xlink" x="0px" y="0px"
	 viewBox="-54 292 783 184" style="enable-background:new 0 0 595.3 841.9;" xml:space="preserve">
<style type="text/css">
	.st0{fill:#F14439;}
	.st1{fill:#2B201F;}
	.st2{fill:#31231D;}
	.st3{fill:#4B211D;}
	.st4{fill:#E34437;}
</style>
<g>
	<path class="st0" d="M144,411.8c0,25.3-20.6,46-45.6,45.9c-25.3-0.1-45.5-20.6-45.5-45.9c0.1-25.3,20.5-45.7,45.7-45.7
		C123.5,366.1,144,386.8,144,411.8z M108.9,431.9c-4.4-6.7-15.7-6.8-21-0.2c-1.7,2.6-3.7,5.3-1.8,8.6c1.7,3,5,2.1,7.7,2.2
		c3.3,0.1,6.7,0.1,10,0c2.4-0.1,5.6,0.8,6.8-1.8C111.8,437.8,111.5,434.5,108.9,431.9z M87.5,413.6c-0.2-0.4-0.3-1-0.6-1.3
		c-3.1-2.2-3.5-4.4-0.2-6.9c0.9-0.7,1.2-2.1,0.2-3.1c-1.2-1.1-2.6-0.6-3.5,0.5c-2,2.6-3.9,3-6,0.2c-1.1-1.4-2.6-1.9-3.8-0.6
		c-1.2,1.3,0,2.5,1.1,3.3c2.8,2.3,2.1,4.2-0.3,6.2c-1.2,1-1.8,2.3-0.5,3.4c1.1,1,2.4,0.6,3.4-0.7c2-2.6,4-3,6.1,0
		c0.7,1,1.8,1.4,3.1,1C87.3,415.4,87.4,414.5,87.5,413.6z M123.2,414.3c-0.1-1.3-0.4-2-1.2-2.5c-2.6-2-2.4-4,0.1-5.9
		c1.2-0.9,1.6-2.4,0.6-3.5c-1.1-1.1-2.6-0.6-3.4,0.6c-2.1,3-4,2.5-6,0c-1-1.3-2.3-1.6-3.5-0.7c-1.3,1-0.8,2.5,0.4,3.4
		c3.1,2.3,2.8,4.3-0.1,6.4c-1.1,0.8-1.3,2.1-0.6,3.1c1,1.2,2.5,1.1,3.4-0.2c2.5-3.4,4.6-2.6,6.8,0.2c0.6,0.8,1.8,1,2.7,0.4
		C122.9,415.2,123,414.5,123.2,414.3z"/>
	<path class="st1" d="M108.9,431.9c2.5,2.6,2.9,5.9,1.6,8.8c-1.2,2.6-4.4,1.8-6.8,1.8c-3.3,0.1-6.7,0.1-10,0
		c-2.7-0.1-5.9,0.8-7.7-2.2c-1.9-3.3,0.2-5.9,1.8-8.6c1.2,1.3,0.4,4.1,3.2,4c4.8,2.5,9.7,2.8,14.4-0.2
		C107.9,435.4,106.2,431.7,108.9,431.9z"/>
	<path class="st2" d="M87.5,413.6c-0.1,0.9-0.2,1.8-1.1,2.1c-1.2,0.4-2.3,0-3.1-1c-2.1-3-4.1-2.6-6.1,0c-1,1.3-2.3,1.7-3.4,0.7
		c-1.2-1.1-0.7-2.4,0.5-3.4c2.4-1.9,3.2-3.9,0.3-6.2c-1-0.8-2.2-2.1-1.1-3.3c1.2-1.3,2.7-0.9,3.8,0.6c2.1,2.8,4,2.4,6-0.2
		c0.9-1.1,2.3-1.6,3.5-0.5c1,1,0.7,2.4-0.2,3.1c-3.4,2.5-3,4.6,0.2,6.9C87.2,412.6,87.3,413.2,87.5,413.6z"/>
	<path class="st2" d="M123.2,414.3c-0.1,0.2-0.2,1-0.7,1.3c-0.9,0.6-2.1,0.4-2.7-0.4c-2.2-2.9-4.4-3.6-6.8-0.2
		c-0.9,1.3-2.4,1.4-3.4,0.2c-0.8-1-0.6-2.2,0.6-3.1c2.9-2.1,3.3-4.2,0.1-6.4c-1.2-0.9-1.7-2.3-0.4-3.4c1.1-0.9,2.5-0.6,3.5,0.7
		c2,2.5,3.9,3.1,6,0c0.8-1.2,2.3-1.7,3.4-0.6c1.1,1.1,0.6,2.5-0.6,3.5c-2.5,2-2.7,3.9-0.1,5.9C122.7,412.3,123.1,412.9,123.2,414.3z
		"/>
	<path class="st3" d="M91.2,435.8c-2.8,0-2-2.8-3.2-4c5.3-6.6,16.6-6.5,21,0.2c-2.7-0.2-1,3.5-3.3,3.7c0.4-4.4-1-5.6-6.5-5.8
		C92.5,429.7,90.9,430.8,91.2,435.8z"/>
	<path class="st4" d="M91.2,435.8c-0.2-5,1.3-6.1,7.9-6c5.5,0.1,6.9,1.4,6.5,5.8C100.8,438.6,96,438.3,91.2,435.8z"/>
</g>
</svg>
