<!-- Generator: Adobe Illustrator 22.1.0, SVG Export Plug-In . SVG Version: 6.00 Build 0)  -->
<svg version="1.1" id="Calque_1" xmlns="http://www.w3.org/2000/svg" xmlns:xlink="http://www.w3.org/1999/xlink" x="0px" y="0px"
	 width="100%" viewBox="0 0 150 150" enable-background="new 0 0 150 150" xml:space="preserve">
<g>
	<path fill="#FFFFFF" d="M69.1,76.6c0,13.9,0,27.8,0,41.7c0,4.4-0.6,8.6-5.3,10.9c-4.7,2.2-8.3-0.2-11.4-3.6c-1.6-2-3.9-3.3-5.3-5.3
		c-9.2-11.4-19.8-18.6-35.6-15.9C3.6,105.7,0,101,0,92.6c-0.2-10.5-0.2-21.4,0-31.9c0.2-8.6,3.9-13.1,12.3-11.9
		c14.7,2,25.3-3.3,33.9-14.7c2.2-2.8,5-5,7.5-7.5c3-3,6.4-4.2,10.3-2.5c4.2,1.6,5.3,5,5.3,9.2C69.1,47.6,69.1,62.1,69.1,76.6z
		 M58.9,37.1c-0.6-0.2-1.4-0.8-2-1.1c-6.1,6.4-12.3,12.8-18.4,19.4c-2,2.2-4.2,3.3-7.2,3.3c-6.9,0.2-16.1-3.3-20.3,1.6
		C6.9,65.1,9.9,74,9.9,81c-0.2,13.9,0,14.5,13.9,13.9c8.3-0.2,14.5,1.6,19.8,8.1c4.2,5,9.5,9.5,15.3,15.3
		C58.9,89.9,58.9,63.5,58.9,37.1z"/>
	<path fill="#FFFFFF" d="M101.9,84.3c-2.2,0-3,1.4-4.2,2.5c-3.3,3.3-6.9,6.9-10.3,10c-2,1.6-4.2,2.2-6.1,0.2S79.9,93,81.6,91
		c3.9-5,12.3-8.3,11.7-13.9c-0.6-4.7-7.5-8.9-11.7-13.3c-2-2.2-2.5-4.4-0.2-6.7c2.2-2,4.2-0.8,6.1,0.6c4.7,3.9,8.3,12.3,13.9,11.7
		c4.7-0.2,8.9-7.5,13.3-11.7c2.2-2,4.4-2.8,6.7-0.2c2,2.2,1.1,4.2-0.6,6.1c-3.9,4.7-12.3,8.3-11.9,13.9c0.2,4.7,7.5,8.9,11.7,13.3
		c2,2.2,2.8,4.4,0.2,6.7c-2.2,2-4.2,1.1-6.1-0.6c-3.3-3-6.4-6.4-9.7-9.7C103.9,86,102.7,85.1,101.9,84.3z"/>
</g>
</svg>
