<?xml version="1.0" encoding="utf-8"?>
<!-- Generator: Adobe Illustrator 22.1.0, SVG Export Plug-In . SVG Version: 6.00 Build 0)  -->
<svg version="1.1" id="Calque_1" xmlns="http://www.w3.org/2000/svg" xmlns:xlink="http://www.w3.org/1999/xlink" x="0px" y="0px"
	 width="100%" viewBox="0 0 150 150" enable-background="new 0 0 150 150" xml:space="preserve">
<g>
	<path fill="#F8991D" d="M0,74.2C0,33.7,34.5-0.8,75.5,0c41.8,1,74.3,32.2,74.5,75c0.2,42.2-32.3,74.8-75,75
		C33.6,150.3-0.2,117.2,0,74.2z M96.5,110.6c-0.5-2.3-2.1-3.8-3.9-4.9c-9.8-6.7-20.2-7.5-30.8-2.6c-3,1.3-5.9,2.5-7.4,5.7
		c-0.7,1.3-1.1,2.6,0,3.6c0.7,0.5,2.1,1,3,0.5c12-6.6,24-6.2,35.9,0C94.8,113.9,96.2,112.7,96.5,110.6z M45.8,61.9
		c-7.4,0-13.9,6.2-13.1,12.6c0.2,1.6,0.5,3.4,2.5,3.8c1.6,0.3,2.1-1,3-2.3c7.4-10.5,8-10.5,14.8,0c1,1.6,2.1,2.6,3.9,2.1
		c2-0.5,2.3-2.1,2.5-3.8C59.7,68.1,53,61.9,45.8,61.9z M97.3,77.3c-0.5-5.1,1-8,5.6-8.7c4.9-0.8,6.7,2.6,8.2,6.1
		c1,2.1,1.8,4.4,4.6,3.3c3-1.1,2.5-3.8,1.8-6.2c-2.8-10-15.3-13.3-23-5.9C89.9,70.2,88.6,74.2,97.3,77.3z"/>
	<path fill="#37271A" d="M96.5,110.6c-0.3,2-1.6,3.3-3.4,2.3c-12-6.2-24-6.6-35.9,0c-0.7,0.3-2.3,0-3-0.5c-1.1-1-0.7-2.3,0-3.6
		c1.6-3.1,4.6-4.4,7.4-5.7c10.8-5.1,21.2-4.3,30.8,2.6C94.2,107,96,108.3,96.5,110.6z"/>
	<path fill="#382C1B" d="M45.8,61.9c7.4,0,13.9,6.2,13.5,12.5c-0.2,1.6-0.5,3.4-2.5,3.8C55,78.5,54,77.5,52.8,76
		c-6.7-10.5-7.4-10.5-14.8,0c-0.8,1.1-1.3,2.5-3,2.3c-2-0.3-2.3-2-2.5-3.8C31.8,68.1,38.4,61.9,45.8,61.9z"/>
	<path fill="#37271A" d="M97.3,77.3c-8.7-3.1-7.2-7.1-2.8-11.5c7.5-7.4,20.2-4.1,23,5.9c0.7,2.5,1.1,5.1-1.8,6.2
		c-2.8,1.1-3.6-1.1-4.6-3.3c-1.5-3.4-3.3-6.9-8.2-6.1C98.3,69.3,96.8,72.4,97.3,77.3z"/>
</g>
</svg>
