<?xml version="1.0" encoding="utf-8"?>
<!-- Generator: Adobe Illustrator 22.1.0, SVG Export Plug-In . SVG Version: 6.00 Build 0)  -->
<svg version="1.1" id="Calque_1" xmlns="http://www.w3.org/2000/svg" xmlns:xlink="http://www.w3.org/1999/xlink" x="0px" y="0px"
	 viewBox="-64 292 783 184" style="enable-background:new 0 0 595.3 841.9;" xml:space="preserve">
<style type="text/css">
	.st0{fill:#FB9807;}
	.st1{fill:#362619;}
	.st2{fill:#382B1A;}
</style>
<g>
	<path class="st0" d="M153,411.3c0-24.7,21-45.7,46-45.2c25.5,0.6,45.3,19.6,45.4,45.7c0.1,25.7-19.7,45.6-45.7,45.7
		C173.5,457.7,152.9,437.5,153,411.3z M211.8,433.5c-0.3-1.4-1.3-2.3-2.4-3c-6-4.1-12.3-4.6-18.8-1.6c-1.8,0.8-3.6,1.5-4.5,3.5
		c-0.4,0.8-0.7,1.6,0,2.2c0.4,0.3,1.3,0.6,1.8,0.3c7.3-4,14.6-3.8,21.9,0C210.8,435.5,211.6,434.8,211.8,433.5z M180.9,403.8
		c-4.5,0-8.5,3.8-8,7.7c0.1,1,0.3,2.1,1.5,2.3c1,0.2,1.3-0.6,1.8-1.4c4.5-6.4,4.9-6.4,9,0c0.6,1,1.3,1.6,2.4,1.3
		c1.2-0.3,1.4-1.3,1.5-2.3C189.4,407.6,185.3,403.8,180.9,403.8z M212.3,413.2c-0.3-3.1,0.6-4.9,3.4-5.3c3-0.5,4.1,1.6,5,3.7
		c0.6,1.3,1.1,2.7,2.8,2c1.8-0.7,1.5-2.3,1.1-3.8c-1.7-6.1-9.3-8.1-14-3.6C207.8,408.9,207,411.3,212.3,413.2z"/>
	<path class="st1" d="M211.8,433.5c-0.2,1.2-1,2-2.1,1.4c-7.3-3.8-14.6-4-21.9,0c-0.4,0.2-1.4,0-1.8-0.3c-0.7-0.6-0.4-1.4,0-2.2
		c1-1.9,2.8-2.7,4.5-3.5c6.6-3.1,12.9-2.6,18.8,1.6C210.4,431.3,211.5,432.1,211.8,433.5z"/>
	<path class="st2" d="M180.9,403.8c4.5,0,8.5,3.8,8.2,7.6c-0.1,1-0.3,2.1-1.5,2.3c-1.1,0.2-1.7-0.4-2.4-1.3c-4.1-6.4-4.5-6.4-9,0
		c-0.5,0.7-0.8,1.5-1.8,1.4c-1.2-0.2-1.4-1.2-1.5-2.3C172.4,407.6,176.4,403.8,180.9,403.8z"/>
	<path class="st1" d="M212.3,413.2c-5.3-1.9-4.4-4.3-1.7-7c4.6-4.5,12.3-2.5,14,3.6c0.4,1.5,0.7,3.1-1.1,3.8c-1.7,0.7-2.2-0.7-2.8-2
		c-0.9-2.1-2-4.2-5-3.7C212.9,408.3,212,410.2,212.3,413.2z"/>
</g>
</svg>
