<!-- Generator: Adobe Illustrator 22.1.0, SVG Export Plug-In . SVG Version: 6.00 Build 0)  -->
<svg version="1.1" id="Calque_1" xmlns="http://www.w3.org/2000/svg" xmlns:xlink="http://www.w3.org/1999/xlink" x="0px" y="0px"
	 width="100%" viewBox="0 0 150 150" enable-background="new 0 0 150 150" xml:space="preserve">
<g>
	<path fill="#FFFFFF" d="M69.2,76.2c0,13.9,0,27.8,0,41.7c0,4.4-0.6,8.6-5.3,10.8c-5.3,2.2-8.6-0.6-12-3.9c-1.7-1.9-3.9-3.3-5.3-5.3
		c-8.9-11.7-19.7-17.8-35-15.6c-7.8,1.1-11.4-3.6-11.4-11.7c-0.3-10.8-0.3-21.7,0-32.5c0-7.5,3.9-12.2,11.1-11.1
		c16.4,2.8,27.2-5,36.7-17c1.7-1.9,3.6-3.6,5.3-5.3c2.8-3.1,6.4-4.2,10.3-2.5c4.2,1.7,5.3,5,5.3,9.2C69.2,47.3,69.2,61.7,69.2,76.2z
		 M59.1,36.1c-1.1,0.3-1.7,0.3-1.9,0.6c-6.1,5.8-12,11.7-17.8,17.5c-2.2,2.2-4.4,3.6-7.8,3.9c-7,0.3-16.7-3.3-20.3,1.7
		c-3.6,5-1.1,14.2-1.1,21.4c0,0.3,0,0.6,0,0.8c0,12.5,0,13.1,12.5,12.2c9.5-0.6,16.7,1.9,22.2,9.5c3.9,5,8.3,9.2,12.5,13.6
		c0.6-0.6,1.1-0.8,1.7-1.4C59.1,89.8,59.1,63.1,59.1,36.1z"/>
	<path fill="#FFFFFF" d="M96.4,74.8c0,8.1-2.2,15.6-6.7,22.2c-1.7,2.5-4.2,3.9-7.2,2.5c-3.1-1.7-2.8-4.7-1.1-7.2
		c7-10.8,7.2-21.7,0.3-32.8c-1.7-2.8-1.1-5.3,1.7-7c2.8-1.7,5-0.3,6.4,1.9C94.5,60.3,96.4,67.3,96.4,74.8z"/>
</g>
</svg>
