<?xml version="1.0" encoding="utf-8"?>
<!-- Generator: Adobe Illustrator 22.1.0, SVG Export Plug-In . SVG Version: 6.00 Build 0)  -->
<svg version="1.1" id="Calque_1" xmlns="http://www.w3.org/2000/svg" xmlns:xlink="http://www.w3.org/1999/xlink" x="0px" y="0px"
	 width="100%" viewBox="0 0 150 150" enable-background="new 0 0 150 150" xml:space="preserve">
<g>
	<path fill="#F9C014" d="M74.3,150.1c-42-1.3-74.7-33.8-74.3-76.2C0.5,32.1,34.3-1.2,76.4,0C118.2,1,150.5,33.3,150,76
		C149.3,118.2,116.1,149.5,74.3,150.1z M75.1,111.4c5.4-0.3,11.1-0.5,16.9-1c1.8-0.2,4.1-0.8,4.1-3.3c-0.2-2.5-2.5-2.6-4.3-2.8
		c-11.1-1.5-22.3-1.5-33.4,0c-2,0.3-4.3,0.3-4.4,2.6c-0.2,2.8,2.6,3.3,4.8,3.4C63.9,111,69.3,111.1,75.1,111.4z M59.2,73.7
		c0.3-6.1-6.1-12-12.8-12.3c-7.2-0.2-14.1,5.7-13.9,12c0,2.1,0.3,3.9,2.8,4.3c2,0.3,3.3-0.8,3.6-2.5c0.7-3.8,2.1-6.9,6.4-7
		c4.6-0.2,6.6,2.8,7.5,6.9c0.5,2,2.1,3.3,4.4,2.6C58.9,77.2,59,75.5,59.2,73.7z M104.3,61.6c-7.2,0-13.8,6.2-13.3,12.5
		c0.2,1.6,0.3,3.3,2.3,3.8c2,0.5,3-0.8,3.8-2.3c6.7-10.5,7.5-10.5,14.3,0c1,1.5,2,2.6,3.8,2.1c2-0.5,2.3-2,2.5-3.8
		C118,68,111.3,61.6,104.3,61.6z"/>
	<path fill="#32241D" d="M75.1,111.4c-5.7-0.3-11.1-0.5-16.6-1c-2.1-0.2-4.8-0.7-4.8-3.4c0.2-2.3,2.6-2.3,4.4-2.6
		c11.1-1.5,22.3-1.5,33.4,0c2,0.3,4.3,0.3,4.3,2.8c0.2,2.5-2.1,3.1-4.1,3.3C86.2,110.8,80.7,111.1,75.1,111.4z"/>
	<path fill="#382C1B" d="M59.2,73.7c-0.2,1.6-0.2,3.4-2.1,3.9c-2.3,0.7-3.9-0.7-4.4-2.6c-1-4.1-3-7-7.5-6.9c-4.4,0.2-5.7,3.3-6.4,7
		c-0.3,1.8-1.6,3-3.6,2.5c-2.3-0.5-2.8-2.3-2.8-4.3c-0.2-6.2,6.7-12.3,13.9-12C53.1,61.8,59.3,67.8,59.2,73.7z"/>
	<path fill="#382C1B" d="M104.3,61.6c7,0,13.9,6.4,13.3,12.5c-0.2,1.8-0.5,3.3-2.5,3.8c-1.8,0.5-2.8-0.7-3.8-2.1
		c-6.7-10.5-7.5-10.5-14.3,0c-1,1.5-2,2.8-3.8,2.3c-2-0.5-2.1-2.1-2.3-3.8C90.3,67.8,97,61.6,104.3,61.6z"/>
</g>
</svg>
