<!-- Generator: Adobe Illustrator 22.1.0, SVG Export Plug-In . SVG Version: 6.00 Build 0)  -->
<svg version="1.1" id="Calque_1" xmlns="http://www.w3.org/2000/svg" xmlns:xlink="http://www.w3.org/1999/xlink" x="0px" y="0px"
	 width="100%" viewBox="0 0 150 150" enable-background="new 0 0 150 150" xml:space="preserve">
<g>
	<path fill="#FFFFFF" d="M68.1,76.2c0,13.8,0,27.6,0,41.3c0,4.7-0.8,8.5-5.5,10.5c-4.4,1.7-7.7-0.3-10.7-3.3c-1.7-1.7-3.3-3-4.7-4.7
		c-9.4-11.9-20.1-19.3-36.4-16.5C4.1,104.6,0,99.9,0,93.1c0-11.3,0-22.6,0-33.9c0-6.9,4.1-11.6,10.7-10.5c16.3,2.8,27-5,36.7-16.5
		c3.9-4.4,7.7-11.3,15.4-8.3c8.3,3.3,5.2,11,5.5,17.1C68.3,52.5,68.1,64.4,68.1,76.2z M57.9,33.8c-3.3,3.6-5.5,5.5-7.2,7.7
		c-9.4,11.9-20.4,19.6-36.4,16.3c-3.9-0.8-5.5,1.1-5.2,5c0.3,6.1,0,12.1,0,18.2c0,12.7,0,13.5,12.7,12.7c9.4-0.6,16.3,1.9,22,9.4
		c3.9,4.7,8.5,8.5,14.1,14.1C57.9,88.6,57.9,62.5,57.9,33.8z"/>
	<path fill="#FFFFFF" d="M113.5,74.3c0,12.4-3.9,23.7-11.3,33.6c-2.2,2.8-4.4,6.3-8.5,3.3c-3.6-2.8-1.4-5.8,0.6-8.5
		c12.7-18.2,13.2-36.9,0.6-55.4c-1.9-3-3.6-6.1,0.3-8.3c3.6-2.5,6.1,0.3,8,3C109.7,50.3,113.5,62.2,113.5,74.3z"/>
	<path fill="#FFFFFF" d="M95.1,74.9c-0.3,7.7-2.5,15.2-6.9,21.5c-1.7,2.5-4.1,3.9-7.2,2.2s-2.8-4.4-1.1-7.2
		c6.9-10.7,7.2-21.5,0.3-32.5c-1.7-2.8-1.1-5.2,1.9-6.9c2.8-1.7,5-0.3,6.3,1.9C92.9,60,94.8,66.9,95.1,74.9z"/>
</g>
</svg>
