<!-- Generator: Adobe Illustrator 22.1.0, SVG Export Plug-In . SVG Version: 6.00 Build 0)  -->
<svg version="1.1" id="Calque_1" xmlns="http://www.w3.org/2000/svg" xmlns:xlink="http://www.w3.org/1999/xlink" x="0px" y="0px"
	 width="100%" viewBox="0 0 150 150" enable-background="new 0 0 150 150" xml:space="preserve">
<g>
	<path fill="#8CC14B" d="M150,75.7c-0.2,40.9-33.8,75.2-74.5,74.5C32.8,149.7,0.3,117.6,0,74.7C-0.3,33.5,34.6-0.1,75.5,0.1
		C116.7,0.2,150.2,34.2,150,75.7z M97.8,103.9c-1.1-0.8-1.8-1.3-2.6-1.5c-0.7-0.2-1.6-0.3-2.3,0c-11.7,5.7-23.3,6.4-35.1,0.2
		c-1.6-1-3.3-0.5-4.1,1.3c-1,2.1,0.3,3.1,2.1,4.4C69.3,119.2,86.3,117.6,97.8,103.9z M59.4,73.8c-0.2-6.1-6.6-11.7-13.5-11.8
		c-6.7,0-13.3,5.6-13.6,11.5c-0.2,2.1,0.3,3.9,2.5,4.6c2.3,0.8,3.4-0.8,4.1-2.8c1-3.6,2.3-6.9,6.9-6.7c4.3,0.2,6.2,2.8,7.1,6.6
		c0.5,2,1.6,3.6,3.9,3.1C58.9,77.5,59.6,75.7,59.4,73.8z M104.4,61.9c-6.9,0-13.1,5.4-13.5,11.7c-0.2,2.1,0.2,3.9,2.5,4.6
		c1.8,0.5,3.3-0.8,3.6-2.5c1-4.1,2.6-7.4,7.4-7.2c4.8,0.2,6.2,3.6,6.7,7.7c0.2,1.6,1,3.4,3,3.3c2.1-0.2,2.8-2.3,3.3-4.1
		C118.8,69,111.9,61.9,104.4,61.9z"/>
	<path fill="#25311C" d="M97.8,103.9c-11.5,13.6-28.6,15.3-42,4.4c-1.6-1.3-3-2.3-2.1-4.4c0.8-1.8,2.3-2.1,4.1-1.3
		c11.7,6.2,23.5,5.7,35.1-0.2c0.7-0.3,1.6-0.3,2.3,0C96,102.6,96.5,103.1,97.8,103.9z"/>
	<path fill="#25311C" d="M59.4,73.8c0.2,2.1-0.5,3.9-2.6,4.4c-2.3,0.7-3.4-1-3.9-3.1c-1-3.8-3-6.4-7.1-6.6c-4.4-0.2-5.9,3.1-6.9,6.7
		c-0.5,2-1.8,3.6-4.1,2.8c-2.1-0.7-2.5-2.6-2.5-4.6c0.3-6.1,6.9-11.7,13.6-11.5C52.8,61.9,59.2,67.7,59.4,73.8z"/>
	<path fill="#25311C" d="M104.4,61.9c7.7,0,14.4,7.1,13,13.5c-0.3,1.8-1,3.9-3.3,4.1c-2,0.2-2.8-1.6-3-3.3c-0.5-4.1-2-7.5-6.7-7.7
		c-4.8-0.2-6.4,3.1-7.4,7.2c-0.3,1.6-1.8,3-3.6,2.5c-2.3-0.5-2.5-2.5-2.5-4.6C91.2,67.4,97.5,61.9,104.4,61.9z"/>
</g>
</svg>
