<?xml version="1.0" encoding="utf-8"?>
<!-- Generator: Adobe Illustrator 22.1.0, SVG Export Plug-In . SVG Version: 6.00 Build 0)  -->
<svg version="1.1" id="Calque_1" xmlns="http://www.w3.org/2000/svg" xmlns:xlink="http://www.w3.org/1999/xlink" x="0px" y="0px"
	 width="100%" viewBox="0 0 150 150" enable-background="new 0 0 150 150" xml:space="preserve">
<g>
	<path fill="#FFFFFF" d="M67.9,76.4c0,13.6,0,27.2,0,40.8c0,4.6-0.8,8.4-5.7,10.3c-4.4,1.9-7.6-0.3-10.6-3.3
		c-1.6-1.6-3.8-3.3-5.2-5.2c-9-11.7-19.9-18.2-35.4-15.8C4,104.4,0.5,99.8,0.2,92.2c-0.3-10.6-0.3-21.2,0-31.8
		C0.5,52.5,4,48.1,11.6,49.2c15,2.2,25.6-3.8,34.3-15.2c1.9-2.4,4.1-4.1,6.3-6.3c3-3.3,6.5-4.4,10.6-2.4c3.8,1.9,4.9,5.2,4.9,9.2
		C67.9,48.1,67.9,62.3,67.9,76.4z M58.1,35.6c-3.3,3-5.4,4.6-7.1,6.5c-9.2,11.7-20.1,19.3-35.9,16.1c-3.8-0.8-5.2,1.1-5.2,5.2
		c0.3,6.8,0,13.3,0,20.1c0.3,11.4-1.6,11.2,10.3,10.1c11.2-0.8,18.8,2.7,25.8,10.9c3.3,3.8,6.5,8.4,12,10.6
		C58.1,88.7,58.1,63.1,58.1,35.6z"/>
	<path fill="#FFFFFF" d="M131.1,75.6c-0.3,16.1-5.7,31.6-16.6,45.2c-2.2,2.7-4.9,5.7-8.7,2.7c-3.5-2.7-0.8-5.7,1.1-8.4
		c19.6-26.7,19.9-53.3,1.1-80.5c-2.2-3-3.5-5.7,0-8.4c3.5-2.4,6,0,8.2,2.7C126.2,42.4,131.3,57.4,131.1,75.6z"/>
	<path fill="#FFFFFF" d="M113.1,74.5c-0.3,12.2-3.8,23.7-11.4,33.7c-1.9,2.7-4.1,5.7-7.9,3.3c-4.1-2.7-1.6-6,0.3-8.7
		c12.2-18,13.1-36.2,0.5-54.7c-1.9-3-3.5-6,0-8.4s6,0,7.9,2.7C109.6,51.9,112.8,62.5,113.1,74.5z"/>
	<path fill="#FFFFFF" d="M94.6,74.5c-0.3,7.6-2.2,14.7-6,20.7c-1.9,3-4.4,5.4-7.9,3.3c-3.3-2.2-2.2-4.9-0.5-7.9
		c6.3-10.1,6.5-20.1,0.3-30.2c-1.6-2.7-2.4-5.7,0.8-7.6c3.8-2.4,6,0.3,7.9,3C93,61.7,94.3,68,94.6,74.5z"/>
</g>
</svg>
