<!-- Generator: Adobe Illustrator 22.1.0, SVG Export Plug-In . SVG Version: 6.00 Build 0)  -->
<svg version="1.1" id="Calque_1" xmlns="http://www.w3.org/2000/svg" xmlns:xlink="http://www.w3.org/1999/xlink" x="0px" y="0px"
	 width="100%" viewBox="0 0 150 150" enable-background="new 0 0 150 150" xml:space="preserve">
<g>
	<path fill="#50AF50" d="M150,74.2c0.5,41.5-32.9,75.6-74.3,75.9C34.5,150.4,0.5,117,0,76.3C-0.5,34.8,32.7,0.7,74,0
		C115.5-0.8,149.5,32.7,150,74.2z M57.7,100.1c-3,1.8-3.6,4.4-3.5,7.7c0.2,9.3,5.4,15.9,15.6,19.2c5.4,1.6,19.2-3.9,22.7-9
		c5.6-8.5,4.9-13.9-2.1-18.2c-6.2-3.6-13.2-1.3-19.7-1.5C66.4,98.1,61.5,95.8,57.7,100.1z"/>
	<path fill="#272D21" d="M90.1,99.2c7.1,4.3,8.7,10,3.1,18.4c-3.5,5.1-18.1,11.2-23.5,9.5c-10.2-3.1-15.6-10.5-15.6-19.8
		c0-3.3,0.7-5.9,3.5-7.7C68.4,99.6,79.3,99.4,90.1,99.2z M75.8,120.7c3.9-0.3,11.3,0.5,11.3-6.6c0-5.7-7.1-6.6-12.2-6.6
		c-5.4,0-12.8,0.8-12.8,6.9C62.2,120.2,69.2,120.7,75.8,120.7z"/>
	<g>
		<path fill="#25311C" d="M106.9,58.4L106.9,58.4L106.9,58.4L106.9,58.4z"/>
	</g>
	<path fill="#272D21" d="M90.1,99.2c-10.9,0.2-21.7,0.3-32.7,0.5c3.6-4.4,8.7-2,12.8-2C77,97.9,83.9,95.8,90.1,99.2z"/>
	<path fill="#E34537" d="M75.8,120.7c-6.6,0-13.7-0.7-13.7-6.2c0-6.1,7.4-6.9,12.8-6.9c5.1,0,12.2,0.8,12.2,6.6
		C87.3,121.4,79.8,120.4,75.8,120.7z"/>
</g>
<path fill="#25311C" d="M41.6,71.9c1.2,2,2.5,3.9,3.6,5.9c3.1,2.6,5.8,2.8,7.9-1c1.6-2.8,3.5-5.2,5.1-8c0.7-0.5,1-2,2.5-4.9
	c0-2.6,0-2.6-0.8-3.6c-1.8-3-5.3-3.3-8.1-1.5c-2.8,3-2.1,3.1-4.4,1.1c-2.6-2.3-5.4-2.3-8.1-0.2c-3.1,2.5-2.5,5.6-0.7,8.7
	C39.8,69.4,40.6,70.7,41.6,71.9"/>
<path fill="#25311C" d="M93.3,71.9c1.2,2,2.5,3.9,3.6,5.9c3.1,2.6,5.8,2.8,7.9-1c1.6-2.8,3.5-5.2,5.1-8c0.7-0.5,1-2,2.5-4.9
	c0-2.6,0-2.6-0.8-3.6c-1.8-3-5.3-3.3-8.1-1.5c-2.8,3-2.1,3.1-4.4,1.1c-2.6-2.3-5.4-2.3-8.1-0.2c-3.1,2.5-2.5,5.6-0.7,8.7
	C91.4,69.4,92.3,70.7,93.3,71.9"/>
</svg>
