<?xml version="1.0" encoding="utf-8"?>
<!-- Generator: Adobe Illustrator 22.1.0, SVG Export Plug-In . SVG Version: 6.00 Build 0)  -->
<svg version="1.1" id="Calque_1" xmlns="http://www.w3.org/2000/svg" xmlns:xlink="http://www.w3.org/1999/xlink" x="0px" y="0px"
	 width="100%" viewBox="0 0 150 150" enable-background="new 0 0 150 150" xml:space="preserve">
<path fill="#FFFFFF" d="M67.8,76.2c0,13.6,0,27.1,0,40.7c0,4.6-0.8,8.4-5.7,10.3c-4.3,1.9-7.6-0.3-10.6-3.3
	c-1.6-1.6-3.8-3.3-5.2-5.2c-9-11.7-19.8-18.2-35.3-15.7C4,104.2,0.5,99.6,0.2,92c-0.3-10.6-0.3-21.2,0-31.8C0.5,52.3,4,48,11.6,49.1
	c14.9,2.2,25.5-3.8,34.2-15.2c1.9-2.4,4.1-4.1,6.2-6.2c3-3.3,6.5-4.3,10.6-2.4c3.8,1.9,4.9,5.2,4.9,9.2
	C67.8,48.3,67.8,62.1,67.8,76.2z M57.7,35.5c-3.3,3-5.4,4.6-7.1,6.5c-9.2,11.7-20.1,19.3-35.8,16c-3.8-0.8-5.2,1.1-5.2,5.2
	c0.3,6.8,0,13.3,0,20.1C10,94.7,8.1,94.4,20,93.3c11.1-0.8,18.7,2.7,25.8,10.9c3.3,3.8,6.5,8.4,11.9,10.6
	C57.7,88.7,57.7,62.9,57.7,35.5z"/>
<path fill="#FFFFFF" d="M130.7,75.7c-0.3,16-5.7,31.5-16.6,45c-2.2,2.7-4.9,5.7-8.7,2.7c-3.5-2.7-0.8-5.7,1.1-8.4
	c19.5-26.6,19.8-53.2,1.1-80.3c-2.2-3-3.5-5.7,0-8.4c3.5-2.4,6,0,8.1,2.7C125.6,42.3,130.7,57.5,130.7,75.7z"/>
<path fill="#FFFFFF" d="M112.6,74.3c-0.3,12.2-3.8,23.6-11.4,33.6c-1.9,2.7-4.1,5.7-7.9,3.3c-4.1-2.7-1.6-6,0.3-8.7
	c12.2-17.9,13-36.1,0.5-54.5c-1.9-3-3.5-6,0-8.4c3.5-2.4,6,0,7.9,2.7C109,52.1,112.3,62.7,112.6,74.3z"/>
<path fill="#FFFFFF" d="M94.1,74.3c-0.3,7.6-2.2,14.7-6,20.6c-1.9,3-4.3,5.4-7.9,3.3c-3.3-2.2-2.2-4.9-0.5-7.9
	c6.2-10,6.5-20.1,0.3-30.1c-1.6-2.7-2.4-5.7,0.8-7.6c3.8-2.4,6,0.3,7.9,3C92.5,61.6,94.1,68.1,94.1,74.3z"/>
<path fill="#FFFFFF" d="M150,76c-0.3,16-5.7,31.5-16.6,45c-2.2,2.7-10.9,16.6-16,12.8c-3.5-7.3,6.5-15.7,8.7-18.5
	c19.5-26.6,19.8-53.2,1.1-80.3c-2.2-3-14.1-14.1-9.5-19c4.1-4.3,15.5,10.9,17.6,13.6C145.1,42.8,150,57.8,150,76z"/>
</svg>
