<?xml version="1.0" encoding="utf-8"?>
<!-- Generator: Adobe Illustrator 22.1.0, SVG Export Plug-In . SVG Version: 6.00 Build 0)  -->
<svg version="1.0" id="Calque_1" xmlns="http://www.w3.org/2000/svg" xmlns:xlink="http://www.w3.org/1999/xlink" x="0px" y="0px"
	 width="100%" viewBox="0 0 150 150" enable-background="new 0 0 150 150" xml:space="preserve">
<g>
	<path fill="#544227" d="M63.4,109.3c0.1-0.6,0.2-1.1,0.3-1.7c0.1-0.7-0.6-1.3-1.2-1.2l0,0c0.3-0.3,0-0.5-0.2-0.6
		c-1.2-0.8-2.5-1.1-3.9-1.3c-1.9-0.2-3.9,0-5.8,0c-1.5,0-2.9-0.3-4.4-0.5c0,0-0.1,0-0.1-0.1c-2.9-0.9-5.5-2.3-8.1-3.7
		c-3.3-1.9-6.9-2.3-10.6-1.9c-2.9,0.3-5.8,0.5-8.7,0c-0.6-0.1-1.1-0.2-1.8-0.3c1.8,2.7,3.4,5.3,5.9,7.3c1.3,1.1,2.9,1.7,4.5,2
		c1.3,0.2,2.6,0.5,3.9,0.9c3.6,1.1,5.8,3.5,7,6.9c0.5,1.3,0.9,2.7,1.4,4c0,0.2,0,0.4,0.1,0.5c0.1,0.4,0.3,0.8,0.4,1.2
		c0.1,0.3,0.3,0.5,0.3,0.9c0.3,1.5,0.8,2.8,1.2,4.2c0.3,1.1,0.6,2.1,0.9,3.1c-0.3,0.1-0.2,0.3-0.2,0.5c-0.5-0.3-0.6-0.8-0.8-1.2
		c-0.3-0.7-0.6-1.4-0.9-2.1c0-0.1-0.1-0.3-0.2-0.3c-0.7-2-1.3-4-2.1-6.1c-0.6,1.3-1,2.6-2.3,3.2c0.2-0.3,0.5-0.5,0.6-0.8
		c1-1.6,1.7-3.1,0.9-5.1c-0.7-1.7-1.2-3.4-2.4-4.8c-1.7-1.9-4-2.8-6.4-3.3c-1.6-0.4-3.3-0.4-4.8-1.1c-0.2,2-0.1,4,0.6,5.9
		c0.3,0.9,1,1.6,1.8,2.2c1.3,0.9,2.6,1.7,4.1,2.2c1.7,0.7,2.3,1.4,2.2,3.6c-0.1,1.5-0.4,3-1.1,4.4c-1,1.9-0.8,2.8,0.7,4.4
		c0.7,0.7,1.3,1.3,2,2c-1.2-0.4-3-2.3-3.9-4.1c-0.4,0.6-0.7,1.1-1.1,1.7c0,0,0-0.1,0-0.1c0.3-1.2,1-2.3,1.5-3.4
		c0.6-1.3,0.9-2.6,1.2-3.9c0.1-0.2,0.1-0.5-0.1-0.8c-1.3,2.5-3.3,4.2-6,5.1c-0.9,0.3-1.7,0.8-2.4,1.3c0-0.1,0-0.2,0-0.2
		c0.2-0.3,0.5-0.5,0.7-0.8c0,0,0,0,0,0c2.4-1.1,5-2,6.4-4.5c0.3-0.6,0.6-1.3,0.8-1.9c0.3-0.8-0.1-1.2-0.7-1.5
		c-0.9-0.4-1.8-0.7-2.7-1.1c-1.6-0.7-3-1.5-3.9-3c0-0.1-0.2-0.1-0.2-0.2c0,0,0,0,0,0c-0.2-0.5-0.3-1-0.5-1.5c0-0.3,0-0.5-0.2-0.7
		c-0.4-1.8-0.7-3.7-0.6-5.6c0-0.3,0-0.5-0.2-0.7c-2.8-2.5-4.9-5.6-7.2-8.5c-4.1-5.1-8.4-9.8-13.3-14.2C2,83,1.8,82.8,0.3,83
		c0-1.2,0-2.3,0-3.5c2.2-0.1,2.6-0.6,4.5-1.7c5.6-3.1,11.6-4.2,17.9-4.1c3.8,0.1,7.5,0,11.3,0.6c1.2,0.2,2.1,0,3.1-0.5
		c1.7-0.9,3.2-1.9,4.5-3.3c0.3-0.1,0.4-0.4,0.6-0.7c0.2-0.2,0.4-0.5,0.6-0.7c0.3-0.3,0.4-0.6,0.3-1c0.1-0.1,0-0.2,0.1-0.3
		c0.1,0.2,0.1,0.3,0.2,0.5c0.5-0.5,1-1,1.5-1.5c1.3-1.4,2.9-2.2,4.7-2.7c0.1,0,0.1,0,0.2,0c0.5,0.1,1-0.1,1.4-0.1
		c-0.1,0.1-0.2,0.2-0.2,0.2c-2.6,0.4-4.7,1.6-6.4,3.8c1.4-0.3,2.7-0.4,4.1-0.1c-2.3,0.4-4.9,0.3-6.3,2.7c0,0.1,0,0.2,0,0.2
		c-0.8,0.3-1.1,1.2-1.7,1.6c-0.2,0-0.5,0-0.5,0.4c-0.9,0.8-1.9,1.3-3.1,2c1.6,0.6,3,1.2,4.3,2.1c0.7,0.4,1.2,0.6,1.9,0.2
		c0.4,0.5,1.1,0.7,1.4,1.4c-0.1,0.2-0.7,0.2-0.2,0.6c1.1,0.8,2.2,1.7,3.3,2.5c2.8,2.2,5.8,3.1,9.4,2.2c1.8-0.5,3.6-1,5.4-1.1l0,0
		c1.1,0,2.2,0.1,3.2,0.5c0.1,0.2-0.2,0.7,0.4,0.4c0.1-0.1,0.3,0,0.5,0c0.7,0.3,1.4,0.7,2,1.2c1,0.7,2.2,1.2,3.4,1.5
		c3.3,0.7,4.5,0.1,6.7-2.8c1.1-1.5,1.4-3.4,2-5.2l0,0c0.9-0.9,1.4-2,1.5-3.4c0.4,0.5,0,1,0.3,1.3c0.3-0.2,0.7-0.3,1-0.5
		c0.1,0,0.2,0,0.2,0c-0.5,0.5-1,1-1.5,1.4c-1,1-1.4,2.2-1.6,3.6c1-0.7,1.9-1.5,3.3-1.6c-0.7,0.5-1.4,0.8-1.9,1.2
		c-0.9,0.6-1.8,1.3-2.1,2.4c-0.2,0.7-0.6,1.2-1,1.8c-0.4,0.6-0.9,1-1.5,1.5c2.6-0.5,4.9-1.3,7.1-2.4c0.2-0.1,0.4-0.2,0.5-0.5
		c0.4-1.5,1.4-2.7,2.6-3.7c1.2-1,2.5-1.8,3.8-2.7c0.4-0.3,0.8-0.5,0.8-1l0.1,0l0.1,0c0.1,0.4,0.3,0.2,0.4,0c0.6-0.6,0.9-1.3,1-2.1
		c0.3-1.4,0.7-2.8,1.2-4.1c0.2-0.5,0.5-1,0.4-1.6c-0.1-0.4,0.1-0.9,0.4-1.4c0.2,0.5-0.2,1,0.1,1.4c0.7-0.8,1.4-1.6,2.4-2
		c0,0.1,0,0.2,0,0.2C96,68,95,70.4,94.6,73.1c-0.3,1.9-1.1,3.3-2.7,4.4c-1.2,0.8-2.4,1.6-3.5,2.5c-1,0.8-1.8,1.7-2.3,2.9
		c0.3,0.1,0.5-0.1,0.7-0.2c4.2-2.2,8.2-4.9,12.1-7.5c0.3-0.2,0.7-0.4,1-0.6c0.2,0.1,0.1,0.2,0.1,0.3c-2.1,1.8-4.3,3.3-6.6,5
		c1.4,0,2.3,0.7,3.3,1.2c2.7,1.5,5,1.2,7.6-1.1c0.3-0.1,0.5-0.3,0.7-0.6c0-0.1,0.1-0.1,0.1-0.2l0,0c0.1,0,0.2-0.1,0.1-0.2l0,0
		c0.1,0,0.3-0.2,0.4,0c-1.8,2.7-5.3,4.6-8.3,3.4c-0.4-0.2-0.8-0.4-1.2-0.7c-0.6-0.4-1.2-0.8-1.9-0.9c-1-0.2-1.9-0.3-2.8,0.4
		c-0.7,0.6-1.5,0.9-2.1,1.5c0,0-0.1,0.1-0.1,0.1c-0.7,0.1-1.1,0.6-1.7,0.8c-0.2,0.1-0.6-0.1-0.6,0.4c-1.6,0.8-3.2,1.5-4.9,2.1
		c-2.4,0.8-4.8,1.6-7.3,1.6c-2.7,0.1-5.2-0.8-7.6-2.1c-1-0.5-2.1-1-3.3-1c-1.7-0.1-3.3,0.5-5,1c1.3,0.5,2.4,0.8,3.4,1.3
		c1.8,1,3.4,2.3,4.8,3.8c0.9,0.9,1.8,1.7,3,2.1c-0.3,0.4-0.6,0.6-1.1,0.8c-1-0.5-1.8-1.1-2.5-1.8c-1.2-1.2-2.5-2.2-4-3
		c-2.8-1.4-5.7-2.4-9-2.3c-1.5,0.1-3-0.2-4.4-0.9c-2.1-1-3.9-2.5-5.8-3.9c-0.3-0.2-0.5-0.5-0.9-0.5c-0.1,0.6-0.1,1.2-0.3,1.6
		c-0.3,0.5-0.2,1,0,1.5c0.1,0.3,0.3,0.7,0.5,1c-0.2-0.1-0.3,0.2-0.5,0.2c-0.3-0.4-0.4-0.9-0.6-1.4c-0.8,0.9-1.6,1.6-2.7,2
		c0-0.1-0.1-0.2-0.2-0.1c0.3-0.3,0.6-0.6,0.9-0.9c1.4-1.1,2.2-2.4,1.9-4.3c-0.1-0.3-0.1-0.6-0.4-0.8c-3-2.1-6.3-3.5-10.1-3.6
		c-2.4-0.1-4.7,0.2-7.1,0.3c-5,0.1-9.9,0.8-14.5,2.7c-1.6,0.6-3.1,1.4-4.6,2.3c1.1,0.9,2,1.7,2.9,2.6c3.1,3.1,5.7,6.6,8.3,10.1
		c0.3,0.4,0.6,0.6,1,0.8c1.6,0.7,3.2,1.1,4.9,1.4c0.9,0.1,1.9,0.5,2.6,0.1c1-0.6,1.5-1.7,1.9-2.8c0.4-1.1,0.7-2.3,0.4-3.5
		c0.1-0.1,0.2-0.2,0.1-0.4c-0.1-1.3-0.3-2.7-0.1-4c0.1-0.5,0.1-1,0-1.5c-0.3-1.5,0-2.9,0.8-4.2c0.1,0,0.1,0,0.2,0.1
		c-0.5,1.1-0.6,2.3-0.5,3.7c0.9-1.8,2.1-3.1,4.1-3.3c-1.6,0.8-2.9,1.9-3.5,3.6c-0.6,1.7-0.5,3.3-0.3,5.1c2-1.2,3.8-2.6,5.6-4.2
		c-0.1,0.5-0.3,0.7-0.5,0.9c-1.3,1.5-2.9,2.8-4.5,3.9c-0.2,0.2-0.5,0.3-0.5,0.7c0.1,0.5,0.1,0.9,0.1,1.4c0,0.1,0,0.2-0.1,0.3
		c0,1.5-0.4,3-1.3,4.4c0.4,0,0.7,0,1-0.1c3.1-0.3,6.1-0.2,9,0.8c0.9,0.3,1.7,0.1,2.5-0.3c1.2-0.6,1.9-1.6,2.8-2.6
		c0.3,0.1,0.4,0.3,0.3,0.6c-0.3,0.4-0.6,0.8-0.9,1.2c0.6,0,1.1-0.3,1.6-0.4c0.2,0,0.3,0.2,0.3,0.4c-1.3,0.6-2.9,0.8-3.9,2
		c1.4,0.6,2.9,1.3,4.2,2.1c0.3,0.2,0.5,0.2,0.8-0.1c0.5-0.5,1-1,1.6-1.4c0.2,0.2,0,0.7,0.4,0.6c0.3-0.1,0-0.5,0-0.7
		c0-0.1,0-0.2,0-0.4c1.6-1,3.1-2,4.9-2.5c1.6-0.5,3.1-1,4.7-1.4c1.5-0.4,2.3-1.4,2.7-2.8c0-0.1,0-0.4,0.3-0.4c0.1,0.7-0.3,1.3-0.4,2
		c1-0.5,1.7-1.3,2.4-2.1c0,0,0.1,0.1,0.1,0.1c-0.1,0.3-0.4,0.6-0.6,0.9c-0.6,0.7-1.5,1.2-2.2,1.9c0,0.1,0,0.1,0,0.2
		c-0.8-0.1-1.3,0.5-2.2,0.7c1,0.5,1.9,0.6,2.6,1.5c-1.6-0.6-3-1.4-4.7-0.7c-1.6,0.6-3.2,1.1-4.7,1.9c-0.1,0.1-0.6,0.1-0.3,0.4
		c0,0.1,0,0.1,0,0.2c-0.2-0.1-0.5-0.2-0.7,0c-1.1,0.8-2.1,1.6-2.8,2.7c-0.1,0.2-0.2,0.3,0.1,0.5c2.5,1.3,5.1,2.3,8,2.2
		c1.6-0.1,3.2-0.1,4.4-1.4c0.2-0.2,0.5-0.4,0.7-0.7c1.6-1.9,3.4-3.6,5.5-5c0.2-0.1,0.3-0.4,0.6-0.3c-0.4,1-1.6,1-2.1,2
		c1.4-0.5,3-0.2,4.1-1.4c-0.2,0.4-0.3,0.9-0.2,1.4c-2,0-3.8,0.3-5.5,1.8c0.8,0,1.2,0.3,1.7,0.6c0.7,0.5,1.5,0.8,2.4,0.4l0,0
		c0,0.2-0.3,0.1-0.3,0.4c0.5,0,1.1,0,1.6,0c0,0.1,0,0.2,0,0.3c-1.6,0.1-3.1-0.1-4.5-1c-0.6-0.4-1.4-0.2-1.8,0.3
		c-0.7,0.9-1.3,1.8-2.4,2.5c0.6,0.1,1,0.1,1.4,0.1c1.8,0.2,3.5,0.7,4.9,2c0.5,0.5,1,0.9,1.6,0.9c0.7,0.1,1.5,0.6,2.1-0.3
		c0.2,0,0,0.6,0.4,0.2c1-0.2,1.9-0.5,2.9-0.3c0.3,0,0.5,0.1,0.8,0.2c0,0-0.1,0.1-0.1,0.1c-0.6-0.1-1.2-0.2-1.8,0
		c0.5,0.4,1,0.8,1.2,1.4c-0.1,0-0.2,0-0.2,0c-0.6-1.1-1.3-1.4-2.5-1.1c-0.9,0.2-1.9,0.5-3,0.3c0.8,1.5,1.4,2.9,1.9,4.3
		c0.7,2,1.1,4.1,0.9,6.3c0,0.4-0.1,0.9-0.6,1.2c0.7-4.2-0.8-7.7-2.8-11.1c-0.2,0.3-0.2,0.6-0.3,0.9c-0.1,0.3-0.1,0.6-0.4,0.9
		C63.5,109.6,63.4,109.5,63.4,109.3z"/>
	<path fill="#67BD45" d="M87,84c0-0.5,0.4-0.3,0.6-0.4c0,0.5,0.4,0.5,0.7,0.4c0.7-0.1,1.3-0.3,2-0.5c-0.2-0.5-0.6-0.5-0.9-0.7
		c0,0,0.1-0.1,0.1-0.1c0.4,0.1,0.8,0,1.2-0.2c2-1.2,4.8-1,6.4,1c0.6,0.8,0.7,0.9-0.2,1.3c-0.2,0.1-0.3,0.2-0.5,0.3
		c0.8,0.6,1.4,1.3,2,2c-0.1,0.3,0.2,0.4,0.4,0.6c0.2,0.6,0.5,1.3,0.7,1.9c0.2,0.6,0.3,1.1-0.5,1.1c-0.3,0-0.4,0.1-0.2,0.4
		c0,0.8,0.5,1.3,0.9,1.9c0.2,1.2,0.2,2.4-0.3,3.5c-0.2,0.6-0.5,0.7-1,0.3c-0.4-0.3-0.7-0.5-1.2-0.8c0.1,1,0.3,1.9,0.1,2.8
		c0,0.3-0.1,0.7-0.6,0.6c-2.4-0.5-4.6-1.5-6.1-3.6c-0.7-1-1-2.2-0.9-3.3c0-0.9-0.1-1.8-0.6-2.6c0.1-0.1,0.2-0.1,0.4-0.2
		c0.1,0.7,0.6,1,1.3,1.1c0.7,0,1.4,0.3,2.1,0.5c0.7,0.3,1.3,0.8,2,1.1c0-0.4,0-0.8,0.1-1.2c0-0.2,0-0.4-0.2-0.4
		c-1.3-0.1-2.4-0.8-3.6-1.1c0.1-0.1,0.1-0.1,0.2-0.2c-0.5-0.2-0.7-0.7-1.3-0.8c-0.8-1.2-1.5-2.4-2-3.7C87.9,84.7,87.5,84.2,87,84z"
		/>
	<path fill="#67BD45" d="M66.6,83.6c-0.2,0-0.4-0.1-0.5,0c-0.6,0.3-0.3-0.2-0.4-0.4c1.2-0.2,1.5-0.6,1.6-2.1
		c0.3-0.1,0.3-0.3,0.3-0.5c0.4-0.3,0.5-0.8,0.8-1.3c-1.4,0-2.5-0.7-3.5-1.5c-0.3-0.2-0.6-0.4-1-0.2c-0.1-0.1-0.2-0.2-0.3-0.3
		c0.6,0,1.1-0.3,1.5-0.7c1.5-1.6,4.9-2.7,7.3-1.1c0.2,0.1,0.4,0.3,0.7,0.2c0.8-0.2,1.6-0.3,2.4-0.3c0.8,0,1.6,0.1,2.4,0.3
		c0.1-0.7-0.1-1.4,0.2-2.1c0.2-0.4,0.3-0.5,0.8-0.3c1.5,0.9,2.8,2.4,2,4.5c-0.1,0.2-0.1,0.4-0.1,0.7c0,0,0,0,0,0
		c-0.9-0.6-1.8-1-2.4-2c-0.2,0.4-0.3,0.6-0.4,0.9c-0.5,1.1-1,2.2-1.7,3.2c-1,1.3-2.3,2.2-3.7,3c-0.2,0-0.4,0-0.6,0.2
		c-1.3,0.2-2.6,0.1-3.9-0.1C67.6,83.2,67,83,66.6,83.6z"/>
	<path fill="#67BD45" d="M64.9,66.1c0.2-0.5-0.1-0.9-0.4-1.3c-1.1-1.4-1.7-3.8-0.2-5.6c1-1.1,2.1-2.1,3.4-2.9
		c0.6-0.4,0.8,0.1,0.9,0.6c0.4,1.5,0.9,3,0.5,4.6c1.1-0.3,2.1-0.5,3.1-0.3c0.3,0.1,0.4-0.2,0.5-0.4c0.7-1.2,1.8-2,2.9-2.6
		c0.3-0.2,0.7-0.4,0.9,0.2c0.4,1.9,0.8,3.8,0,5.7c-0.5,1.2-1.3,2.1-2.4,2.6c-0.6,0.3-1.2,0.6-1.5,1.2c-0.1,0.2-0.2,0.4-0.3,0.5
		c-0.2,0-0.1-0.3-0.2-0.4c0.3-0.2,0.5-0.6,0.4-0.9c-0.3-0.8-0.5-1.6-0.7-2.5c-0.1,0-0.1,0-0.1,0c-0.1,0-0.1,0.1-0.2,0.1
		c-1.3,1.4-2.9,1.9-4.8,1.4c-0.2-0.1-0.5-0.2-0.7,0.1c-0.3-0.1-0.6,0.1-0.9,0.2C64.7,66.6,64.8,66.4,64.9,66.1z"/>
	<path fill="#67BD45" d="M133.7,102.8c0.6,0.3,1.3,0.4,2,0.6c2,0.4,3.1,1.8,3.6,3.6c0.2,0.8,0.3,1.6,0.4,2.4
		c0.1,0.6-0.1,0.9-0.8,0.7c-0.9-0.2-1.8-0.5-2.7-0.9c0,1.7-0.5,3.2-1.3,4.6c-0.6,1-0.6,1-1.5,0.3c-0.1-0.1-0.2-0.1-0.3-0.3
		c-0.4,0.9-1,1.4-1.8,1.8c-0.4,0.2-0.6,0.1-0.7-0.3c-0.2-1.1-0.3-2.1,0.2-3.1c0.2-0.4,0.2-0.7-0.1-1c-1.1-1.5-1.5-3.2-1.5-4.9
		c0-1.1,0.5-2.2,1-3.2c0.5-0.9,0.8-1.8,0.3-2.8c0.6-0.3,0.5,0.2,0.6,0.5c0,0.3,0,0.7,0.3,1c0.6,0.5,1.2,1,1.9,1.4
		c0.1,0.1,0.2-0.2,0.1-0.3C133.6,102.8,133.7,102.8,133.7,102.8z"/>
	<path fill="#67BD45" d="M40.1,73c-0.1-0.4,0.2-0.4,0.5-0.4c0.4,0.3,0.8,0.7,1.4,0.5c0.7-0.2,1.4-0.4,2.2-0.6
		c-0.7-0.5-1.2-1.2-1.9-1.6c0-0.1,0-0.2,0-0.2c0.4,0.1,0.6-0.2,0.9-0.4c2-1.4,4.8-1.6,6.7,0.5c0.4,0.4,0.4,0.7-0.1,1
		c-0.6,0.3-1.2,0.7-1.9,1c0.8,0.3,1.5,0.6,2.2,0.8c0.2,0.4,0.5,0.6,0.9,0.6c0.1,0.3,0.3,0.6,0.7,0.7c0.2,0.4,0.4,0.8,0.8,1.1
		c0.3,0.7,0.7,1.4,1,2.1c0.3,0.6,0.1,0.9-0.5,1c-0.6,0.1-1.1,0.2-1.7,0.3c-2.1,0.4-4.1,0.2-6-0.8c-0.2-0.1-0.4-0.1-0.6-0.1
		c-0.3-0.6-1-0.9-1.4-1.4c-0.6-0.9-1.1-1.9-1.6-2.8C41.4,73.6,40.9,73.1,40.1,73z"/>
	<path fill="#67BD45" d="M115.7,97.3c0,0.5,0.3,0.6,0.8,0.6c2.8,0.5,5.5,2.8,5.3,6.5c-0.1,1-0.1,1-1.1,0.8c-1.7-0.5-3.3-1.2-4.3-2.8
		c-0.6-1-0.9-2-0.8-3.1c0-0.5,0.1-0.9-0.1-1.4c-0.1-0.2-0.1-0.4-0.3-0.4c-0.2,0-0.3,0.2-0.3,0.4c-0.1,0.4,0,0.9,0.2,1.3
		c0.5,1,0.4,2.1,0.3,3.2c0,0.6-0.2,1.1-0.3,1.6c-0.7,2.2-2.2,3.5-4.3,4.3c-0.3,0.1-0.6,0.1-0.7-0.3c-0.5-2.2-0.9-4.4,0.2-6.6
		c0.7-1.5,1.8-2.5,3.4-3c0.5-0.2,0.7-0.6,1-1c0.1-0.2-0.2-0.1-0.3-0.2C114.8,97.1,115.3,96.6,115.7,97.3z"/>
	<path fill="#67BD45" d="M66.1,101.7c0-0.1,0-0.2,0-0.3c0-1.1,0.1-2.1,0.1-3.2c0-0.5,0-0.9,0.2-1.4c0.8-1.2,1.5-2.3,2.5-3.3
		c0.4-0.2,0.8-0.4,1.1-0.8c0.6-0.3,1.1-0.6,1.6,0.2c-0.1,0.4,0.1,0.8,0.2,1.2c0.3,1.2,0.9,2.4,0.8,3.8c0,0.1,0.1,0.3,0.2,0.4
		c0.3,0.4,0.5,0.6-0.1,1c-0.5,0.3-0.4,1-0.6,1.5c-0.6,1.8-1.7,3-3.2,3.9c-0.7,0.4-1.1,1-1.3,1.8c-0.4,0.4-0.2-0.2-0.4-0.2
		c0-0.4,0.4-0.8,0.2-1.2C66.9,104,66.5,102.9,66.1,101.7z"/>
	<path fill="#67BD45" d="M103.7,95.7c0,0.8,0.7,1,1.1,1.4c2,2.2,3,4.7,2.5,7.7c-0.2,1.6-1.1,2.9-2,4.1c-0.2,0.3-0.4,0.3-0.7,0.1
		c-2.2-2.3-4-4.8-3.7-8.2c0.1-1.2,0.6-2.3,1.3-3.3c0.5-0.7,1.2-1.4,0.8-2.4c0.2-0.1,0.1-0.4,0.5-0.5
		C103.5,94.9,103.6,95.3,103.7,95.7z"/>
	<path fill="#544227" d="M52.5,76c-0.4-0.2-0.6-0.7-0.8-1.1c1.6-0.3,3.2-0.7,4.8-0.7c0.4,0,0.6-0.3,0.9-0.5c1.3-1.2,2.4-2.6,3.3-4
		c0.5-0.7,1-1.4,1.5-2.1c0.7-0.9,1.5-1.5,2.6-1.4c-0.1,0.3-0.2,0.5,0.3,0.4c0.3-0.1,0.5-0.3,0.9-0.2c0.3,0.1,0.5,0.1,0.8,0.2
		c1.7,0.6,3.4,1.3,5.3,1.5c0.1,0.1,0,0.4,0.2,0.4c0.1,0,0.2-0.3,0.3-0.5c0.8,0.4,1.7,0.3,2.5,0.3c2.2,0.1,4.3,0,6.5-0.4
		c0.2,0,0.6,0,0.6-0.4c0.1,0,0.1-0.1,0.2-0.1c0.6-0.4,1-1.1,2-1.4c-0.6,0.6-1.2,1-1.5,1.7c2.4-0.6,4.6-1.4,6.1-3.3
		c0.6-0.8,0.6-0.8-0.2-1.4c-0.7-0.6-0.9-1.1-0.5-2c0,0.4-0.2,0.8,0.1,1.2c0.3,0.4,0.7,0.6,1,0.9c0.6,0.4,0.4-0.6,1-0.5
		c-0.4,1-1.1,1.7-1.7,2.5c-0.6,0.8-1.5,1.3-2.5,1.9c1.7,0,3.2-0.4,4.6,0.3c-1.9-0.4-3.8-0.1-5.6,0.3c-0.9,0.2-1.9,0.6-2.8,0.8
		c-5,1.2-9.9,0.8-14.8-0.5c-0.6-0.2-1.1-0.3-1.6-0.5c-1-0.4-1.9-0.1-2.5,0.7c0,0-0.1,0.1-0.1,0.1c-0.8,0.9-1.4,2-2,2.9
		c-0.8,1.1-1.7,2.2-2.8,3.1c2.1,0.4,3.7,1.6,5.2,2.8c0.1,0.1,0.2,0.2,0.3,0.3c1.2,1.1,2.4,2.1,3.7,3.1c0,0.2,0.1,0.5-0.3,0.5
		c-0.1-0.1-0.2-0.2-0.4-0.3c-1.8-1.4-3.4-3-5.3-4.2c-1.8-1.1-3.7-1.6-5.8-1.2C54.7,75.6,53.6,75.8,52.5,76z"/>
	<path fill="#544227" d="M103.7,95.7c-0.1-0.4-0.2-0.7-0.3-1.1c-0.3,0-0.2,0.4-0.5,0.5c-1.1-0.7-2.2-1.3-3.2-2
		c-0.4-0.6-0.9-1.1-0.9-1.9c1.2,0.6,2.3,1.4,3.4,2.2c1.1,0.8,2.2,1.5,3.4,2c0.1,0.1,0.3,0.1,0.5,0.1c0.5,0.2,1,0.5,1.7,0.3
		c0.1,0.1,0.1,0.1,0.2,0.2c2.8,0.6,5.7,0.6,8.6,0.5c1.4-0.1,2.1-1,2.6-2.2c0.2-0.4,0.2-0.9,0.3-1.4c0-0.5,0.1-1-0.7-0.9
		c-0.2,0-0.4-0.1-0.6-0.2c-1.1-0.7-1.9-1.7-2.4-2.9l0,0c0.6,0.7,1.1,1.3,1.7,2c0.3,0.3,0.6,0.6,1.1,0.7c0.3,0,0.8,0.2,0.9-0.1
		c0.1-0.3,0.1-0.8-0.3-1.1c-0.2-0.2-0.4-0.4-0.7-0.6c-1.3-1.1-1.9-2.5-1.6-4.4c0.1,0.7,0.2,1.2,0.3,1.7c0.3,0,0.2-0.5,0.6-0.4
		c-0.8,1.6,0.5,2.1,1.5,3.2c-0.1-1.4-0.3-2.6,0.7-3.6c0,0,0.1,0.1,0.1,0.1c-1,1.4-0.6,2.9-0.2,4.4c0,0.1,0.1,0.1,0.1,0.2
		c-0.1,0.6,0.1,1.1,0.1,1.6c0,1.5-0.5,2.7-1.6,3.9c1.4,0,2.6,0.2,3.9-0.4c2.1-1,3.9-2.3,5.5-3.9c0.6-0.6,1.4-1,1.7-1.9
		c0.2-0.6,0.3-1.1,0.3-1.9c0.4,0.8,0.2,1.4,0.1,2.1c-0.1,0-0.1,0-0.1,0.1c0,0,0.1,0,0.2,0c0.7-0.4,1.5-0.7,2.4-0.9
		c0,0.1,0,0.1,0.1,0.1c-0.1,0.2-0.3,0.2-0.5,0.3c0,0-0.1,0.1-0.1,0.1c-1.6,0.5-2.9,1.6-4.1,2.8c-0.7,0.6-1.3,1.3-1.9,1.9
		c-0.1,0.1-0.2,0.2-0.1,0.4c0,0,0,0.1,0,0.1c-0.2,0-0.3-0.1-0.5,0c-0.8,0.6-1.8,1-2.8,1.6c3,0.5,5.6,1.6,8.1,3
		c0.2,0.1,0.4,0.2,0.6,0.1c0.9-0.3,1.8-0.5,2.8-0.5c0.1,0,0.3,0,0.3-0.2c0,0,0,0,0,0c0.3,0.6,1,0.1,1.3,0.6c-1.5,0-2.9-0.2-4.3,0.5
		c0.9,0.9,1.9,1.6,2.5,2.7c-0.1,0-0.1,0-0.2,0c-0.7-0.7-1.4-1.5-2.3-2c-0.1-0.3,0-0.8-0.6-0.5c-0.5-0.3-1-0.6-1.6-1
		c-0.1,0.5,0.1,1-0.2,1.5c-0.1,0-0.1-0.1-0.2-0.1c0.2-1.3,0-1.5-1.1-2c-1.1-0.5-2.2-0.8-3.7-1.1c1.5,1.5,1.8,3.3,2.2,5
		c0.2,0.8,0.6,1.5,1.1,2.1c0.1,0.2,0.4,0.3,0.3,0.6l0,0c-1-0.9-1.4-2-1.8-3.2c-0.2-0.5-0.3-1-0.5-1.7c-0.4,1.2-1.4,1.9-1.1,3.2
		c-0.4-0.9-0.4-1,0.1-1.8c1-1.6,0.6-3.2-1-4.2c-0.2-0.1-0.4-0.1-0.6-0.2c-2.1-0.3-4.2-0.3-6.3-0.2c-0.2,0-0.4,0.1-0.5,0.2
		c-0.4-0.7-0.8-0.2-1.3-0.1c-3.1,0.2-6.2-0.1-9.2-0.9C104.7,96.1,104.2,95.7,103.7,95.7z"/>
	<path fill="#67BD45" d="M100.1,74.9c0-0.1,0.1-0.3-0.1-0.3c1-0.5,1.1-1.3,1.2-2.3c0.5-3.5,3-6.4,7.3-6.4c0.4,0,0.8,0,0.7,0.6
		c-0.3,1.9-0.7,3.8-2.1,5.4c-1,1.2-2.3,2-3.9,2.1C102.1,73.9,101,74.2,100.1,74.9z"/>
	<path fill="#67BD45" d="M63.4,109.3c0,0.2,0.1,0.3,0.2,0.4c-0.5,0.8-0.5,1.5-0.2,2.4c0.7,2.4,0.4,4.8-1.2,6.8
		c-0.8,1.1-1.9,1.7-3.2,2.2c-0.4,0.2-0.6,0-0.7-0.4c-0.6-2.2-0.8-4.4,0.2-6.6c0.6-1.2,1.5-2.2,2.8-2.7C62.3,111,63,110.4,63.4,109.3
		z"/>
	<path fill="#67BD45" d="M92.4,75.9L92.4,75.9c-0.1,0-0.1,0-0.1,0c-0.5-1-1.6-1.5-2-2.6c-1.4,2.2-3.2,2.9-5.6,2.4
		c-0.3-0.1-0.5-0.1-0.8,0.1c-0.1,0-0.2,0-0.2,0c0.3-0.3,0.6-0.7,0.7-1.2c0.7-1.9,2.3-2.9,4.3-2.9c0.2,0,0.5,0,0.7,0
		c0.4,0.1,0.5-0.1,0.4-0.4c-0.1-1.2,0.4-2.1,1-3.1c0.2-0.3,0.3-0.4,0.6-0.1c1.7,1.5,3,3.8,1.9,6.2C92.9,74.8,92.5,75.3,92.4,75.9z"
		/>
	<path fill="#67BD45" d="M36.5,140.1c0.1,0.1,0.1,0.2,0.1,0.2c-0.7,0.9-0.2,1.7,0,2.6c0.6,3.2-1.2,6.4-4.2,7.3
		c-0.3,0.1-0.6,0.2-0.7-0.2c-0.5-2.2-0.7-4.4,0.6-6.4c0.4-0.7,1-1.2,1.7-1.6C35,141.5,36,141.1,36.5,140.1z"/>
	<path fill="#67BD45" d="M43.2,67.8c-0.2,0-0.1,0.2-0.1,0.3c-0.2-0.5-0.6-0.8-1-1c-2.4-1.4-4.6-4.8-2.8-8.5c0.2-0.4,0.3-0.8,0.9-0.4
		c1.5,1.1,3,2.3,3.6,4.2c0.4,1.3,0.4,2.6-0.1,3.8C43.5,66.6,43.3,67.2,43.2,67.8z"/>
	<path fill="#67BD45" d="M70.4,108c0.1,0,0.2,0,0.2,0c0.2,0.4,0.6,0.7,1.1,0.8c2.5,0.8,4.2,2.5,4.8,5.1c0.2,1,0.1,1.9-0.2,2.9
		c-0.1,0.4-0.3,0.5-0.6,0.3c-2-0.8-3.8-1.8-4.8-3.8c-0.5-1.1-0.6-2.1-0.4-3.3C70.6,109.3,70.6,108.6,70.4,108z"/>
	<path fill="#67BD45" d="M74.4,104.7c-0.5,0.1-1.2,0.1-1.8,0.1c-0.4,0-0.6-0.2-0.5-0.6c0.5-2,1.1-3.9,2.8-5.2c1-0.7,2-1,3.2-1
		c0.1,0,0.2,0,0.4,0c0.5,0.1,1.1-0.4,1.3,0c0.2,0.3-0.1,0.9-0.2,1.3C79.1,102,77,104.3,74.4,104.7z"/>
	<path fill="#67BD45" d="M44,129.8c0-0.2-0.1-0.5,0.2-0.5c0.4,0.3,0.8,0.3,1.3,0.1c3.3-1.7,7.2-0.5,8.8,2.7c0.2,0.4,0.2,0.7-0.2,0.8
		c-2.2,0.7-4.5,1.3-6.7,0.1c-0.9-0.5-1.4-1.2-1.9-1.9c-0.3-0.4-0.4-1-1.1-1c-0.1,0-0.2,0-0.2,0C44.1,129.9,44.1,129.8,44,129.8z"/>
	<path fill="#67BD45" d="M108.2,84.9c0.5-0.4,0.6-0.9,0.7-1.5c0.6-3.4,3-5.5,6.5-5.3c0.4,0,0.6,0.2,0.5,0.6c-0.4,1.9-1,3.6-2.6,4.9
		c-0.9,0.7-1.9,1-3,1c-0.7,0-1.4,0.1-2,0.4C108.3,85,108.3,85,108.2,84.9z"/>
	<path fill="#67BD45" d="M42.2,121.9c0-0.3-0.3-0.6-0.3-0.9c0.4,0,0.8,0,1.2-0.1c3.2-1,6.6,0.8,7.5,4c0.1,0.4,0.1,0.6-0.3,0.6
		c-2,0.4-3.9,0.5-5.7-0.7c-0.8-0.5-1.4-1.2-1.8-2C42.6,122.5,42.6,122,42.2,121.9z"/>
	<path fill="#544227" d="M71.9,94.1c-0.1-0.4-0.3-0.8-0.2-1.2c2.1-0.2,4.2-0.8,6.2-1.5c4-1.3,7.9-2.7,12.2-2.6
		c0.5,0.1,0.8,0.6,1.3,0.8c-0.1,0.1-0.1,0.1-0.2,0.2c-0.5,0-1,0-1.5,0c-0.1,0.1-0.2,0.1-0.4,0.2c-0.2-0.2-0.5-0.1-0.8-0.1
		c-1.9,0.2-3.9,0.5-5.8,1.2c2.1,1.7,3.8,3.6,4,6.4c0,0,0,0,0,0c-0.6-1.7-1.5-3.2-2.8-4.5c-0.2-0.2-0.4-0.4-0.7-0.5
		c-0.2,0.9-0.4,1.7-0.8,2.5c-0.2,0.4,0,0.7,0.1,1c0.3,0.9,0.5,1.8,0.4,2.7c0-0.1-0.1-0.1-0.1-0.2c0-1-0.3-1.8-0.6-2.8
		c-0.7,0.6-0.8,1.5-1.9,1.8c0.8-0.8,1.2-1.6,1.5-2.4c0,0,0-0.1,0-0.1c0.5-0.8,0.6-1.8,0.8-2.8c0.1-0.5-0.9-0.9-1.4-0.8
		c-2.1,0.7-4.2,1.5-6.3,2.1C73.8,93.8,72.9,94,71.9,94.1z"/>
	<path fill="#67BD45" d="M51,64.3c0.1-0.1,0.2-0.2,0.2-0.2c0.6-0.1,0.8-0.6,1-1.1c1.4-2.7,4.5-3.9,7.4-2.8c0.8,0.3,0.8,0.4,0.3,1.1
		c-0.9,1.4-2,2.7-3.7,3.3c-1,0.4-2,0.4-3,0C52.5,64.3,51.8,64.2,51,64.3z"/>
	<path fill="#67BD45" d="M24.9,128.4c0,0.1,0,0.2,0,0.2c-0.2,0.3-0.2,0.6-0.2,1c0,2.2-0.9,3.9-2.7,5.1c-0.8,0.6-1.8,0.7-2.8,0.8
		c-0.3,0-0.5,0-0.5-0.4c-0.3-2.1,1.2-5,3.2-5.9c0.5-0.2,1-0.3,1.6-0.4C24,128.8,24.5,128.7,24.9,128.4z"/>
	<path fill="#67BD45" d="M79.7,114.4c0.4,0.7,1,0.9,1.7,1.1c2.8,1,4.4,3.8,3.7,6.5c-0.1,0.4-0.2,0.6-0.6,0.4
		c-1.9-0.7-3.6-1.6-4.4-3.6c-0.3-0.7-0.4-1.5-0.3-2.2C80,115.8,80,115.1,79.7,114.4z"/>
	<path fill="#67BD45" d="M119.9,86.4c0,0-0.1-0.1-0.1-0.1c0.3-0.5,0.4-1,0.2-1.6c-0.5-2.3,0.5-5.4,3.5-6.4c0.9-0.3,1-0.3,1.1,0.6
		c0.2,1.4,0.1,2.8-0.5,4.1c-0.6,1.1-1.4,1.9-2.6,2.3C120.9,85.5,120.3,85.8,119.9,86.4z"/>
	<path fill="#67BD45" d="M42.2,126.1c0.1,0.1,0.2,0.2,0.2,0.3c-0.4,0.2-0.2,0.5-0.1,0.8c0.7,1.7,0.6,3.4-0.2,5
		c-0.6,1.2-1.6,1.9-2.8,2.4c-0.2,0.1-0.4,0.1-0.5-0.2c-0.7-2-0.8-4.9,1.2-6.6c0.3-0.2,0.6-0.4,0.9-0.6
		C41.3,126.9,41.8,126.6,42.2,126.1z"/>
	<path fill="#67BD45" d="M82.7,98.6c0,0.1,0.1,0.1,0.1,0.2c0,0.4,0.3,0.7,0.5,0.9c1.3,1.5,1.8,3.3,1.4,5.2c-0.2,1-0.8,1.7-1.4,2.4
		c-0.2,0.3-0.5,0.2-0.6,0c-1.4-1.7-2.4-3.5-1.7-5.8c0.2-0.5,0.4-1,0.8-1.4C82.2,99.6,82.5,99.1,82.7,98.6z"/>
	<path fill="#67BD45" d="M47.4,133.7c0.5,0.5,1.1,0.5,1.8,0.5c2.5,0,5,1.4,5.6,4.5c0.1,0.6,0,0.9-0.7,0.8c-1.3-0.1-2.6-0.2-3.8-0.9
		c-1.1-0.7-1.9-1.7-2.1-3c-0.1-0.7-0.4-1.3-1-1.8C47.3,133.8,47.3,133.7,47.4,133.7z"/>
	<path fill="#67BD45" d="M66.8,119.4c1,1.7,1.4,3.4,0.8,5.3c-0.4,1.4-1.4,2.3-2.6,3c-0.3,0.2-0.5,0.1-0.6-0.2
		c-0.7-1.9-1.2-3.8-0.1-5.8c0.3-0.5,0.7-1,1.2-1.3C65.9,120.1,66.4,119.8,66.8,119.4z"/>
	<path fill="#67BD45" d="M106.2,78.4c0.2-0.3,0.2-0.6,0.2-0.9c-0.1-2.4,1.2-5.1,4.3-5.6c0.9-0.2,1-0.1,0.9,0.8
		c-0.1,1.5-0.4,2.9-1.4,4c-0.6,0.6-1.2,1.1-2.1,1.3C107.5,78.2,106.9,78.3,106.2,78.4z"/>
	<path fill="#67BD45" d="M116.6,114.4c-0.3-1,0.3-2,0.6-3.1c0.1-0.3,0.3-0.2,0.5-0.1c2.4,1.2,4.2,4,2.8,7.1
		c-0.2,0.4-0.4,0.6-0.7,0.3C118.2,117.6,116.9,116.5,116.6,114.4z"/>
	<path fill="#67BD45" d="M97.6,112.1c0,0.7,0.4,1,0.8,1.5c1.9,1.8,2,4.9,0.3,6.8c-0.2,0.3-0.4,0.3-0.7,0.1c-0.8-1-1.6-1.9-1.8-3.2
		c-0.3-1.3,0-2.5,0.8-3.5C97.3,113.2,97.5,112.7,97.6,112.1z"/>
	<path fill="#67BD45" d="M82.3,67.4c-0.1,0-0.1,0.1-0.2,0.1c0-0.6-0.6-0.9-0.9-1.2c-1.7-1.7-1.9-4.6-0.5-6.5c0.3-0.5,0.6-0.5,1-0.1
		c1.1,1.2,2,2.6,1.9,4.3c0,0.8-0.3,1.5-0.7,2.1C82.6,66.5,82.3,66.9,82.3,67.4z"/>
	<path fill="#67BD45" d="M107.9,96.1c-0.1-0.1-0.1-0.1-0.2-0.2c0.4-0.3,0.4-0.9,0.6-1.3c0.8-2.2,3.1-3.7,5.5-3.3
		c0.6,0.1,0.8,0.3,0.5,0.9c-0.5,1.1-0.9,2.1-1.8,2.9c-1,0.9-2.2,1.2-3.5,1C108.7,95.9,108.3,95.8,107.9,96.1z"/>
	<path fill="#67BD45" d="M137.6,112.9c0.4,0.6,1,0.7,1.5,0.9c2.4,0.8,3.8,2.8,3.4,5.3c-0.1,0.4-0.2,0.6-0.6,0.4
		c-1.5-0.5-2.8-1.1-3.6-2.6c-0.4-0.7-0.5-1.4-0.5-2.1C137.8,114.1,137.9,113.5,137.6,112.9z"/>
	<path fill="#67BD45" d="M30.7,130.3C30.8,130.4,30.8,130.4,30.7,130.3c0,0.5,0.2,0.8,0.4,1.2c1.1,2.1,0.5,4.5-1.4,5.9
		c-0.5,0.3-0.8,0.4-1-0.3c-0.4-1.1-0.8-2.3-0.5-3.5c0.2-0.9,0.7-1.7,1.4-2.2C30,131.1,30.4,130.7,30.7,130.3z"/>
	<path fill="#67BD45" d="M50.1,141.3c0.2,0.7,0.7,0.9,1.2,1.1c1.8,0.9,3.1,3.5,2.2,5.7c-0.2,0.5-0.4,0.6-0.8,0.3
		c-0.8-0.6-1.6-1.1-2.2-1.9c-0.7-1-1-2.1-0.6-3.3C50.1,142.5,50.3,141.9,50.1,141.3z"/>
	<path fill="#67BD45" d="M86.7,97.5C86.7,97.5,86.7,97.4,86.7,97.5c0.4,0.3,0.9,0.5,1.3,0.7c2,0.9,3.4,3,2.7,5.4
		c-0.1,0.3-0.2,0.5-0.5,0.4c-1.2-0.6-2.4-1.2-3.1-2.4c-0.4-0.8-0.6-1.6-0.4-2.5C86.7,98.4,86.8,98,86.7,97.5z"/>
	<path fill="#67BD45" d="M136,99.8c1.3-1,2.6-1.7,4.2-1.5c1.2,0.1,2.1,0.8,2.9,1.6c0.2,0.2,0.2,0.4,0,0.6c-1.6,1.1-3.8,1.9-5.7,0.5
		C136.9,100.5,136.6,100,136,99.8z"/>
	<path fill="#67BD45" d="M131.4,80.6c0.6-0.1,1.4-0.3,1.8,0.1c0.3,0.5-0.2,1.1-0.4,1.7c-1,2-2.2,2.7-4.5,2.5c-0.4,0-0.4-0.2-0.4-0.5
		C128.2,82.5,129.7,80.8,131.4,80.6z"/>
	<path fill="#67BD45" d="M45.9,135.2c-0.1,0.7,0.4,1,0.7,1.3c1.4,1.6,1.5,3.9,0.2,5.5c-0.3,0.4-0.5,0.5-0.8,0
		c-0.6-0.8-1.2-1.5-1.4-2.5c-0.2-1.1-0.1-2.1,0.6-3C45.5,136.2,45.7,135.8,45.9,135.2z"/>
	<path fill="#67BD45" d="M25.2,139c-0.3,0.4-0.2,0.8-0.2,1.2c0.3,1.9-0.8,3.7-2.7,4.3c-0.7,0.2-0.8,0.2-0.8-0.6c0-0.7,0-1.4,0.2-2.1
		c0.4-1.1,1-1.9,2.1-2.2C24.3,139.5,24.8,139.4,25.2,139z"/>
	<path fill="#67BD45" d="M16.7,128.2c-1.1,1.6-2.5,2.4-4.3,2.3c-0.7-0.1-1.2-0.4-1.8-0.7c-0.3-0.2-0.3-0.4-0.1-0.6
		c1.3-1.3,2.8-2.3,4.9-1.5C15.9,127.9,16.1,128.4,16.7,128.2z"/>
	<path fill="#67BD45" d="M90.7,61.7c0.2-0.4,0-0.7,0-1.1c-0.3-2,0.8-3.8,2.6-4.5c0.5-0.2,0.8-0.1,0.8,0.5c0,0.7,0.1,1.5-0.1,2.2
		C93.6,60.6,92.3,61.3,90.7,61.7z"/>
	<path fill="#67BD45" d="M49.8,64.1c-0.1,0-0.1,0-0.2,0c0.2-0.5,0-0.9-0.1-1.3c-0.5-2.1,0.3-3.8,2.1-4.7c0.5-0.2,0.7-0.1,0.8,0.3
		c0.5,1.9,0.4,4.1-2,5.1C50.1,63.7,49.9,63.9,49.8,64.1z"/>
	<path fill="#67BD45" d="M25.3,115.3C25.3,115.3,25.3,115.4,25.3,115.3c-0.2,0.4-0.4,0.7-0.5,1.1c-0.5,1.8-2.2,2.9-4,2.8
		c-0.6,0-0.7-0.3-0.5-0.8c0.7-2,1.9-3.3,4.3-3C24.8,115.5,25.1,115.4,25.3,115.3z"/>
	<path fill="#67BD45" d="M108.4,85.3c0.3,0.1,0.5,0,0.8-0.1c1.9-0.6,3.9,0.3,4.7,2c0.2,0.5,0.1,0.6-0.4,0.8
		c-2.2,0.5-4.1-0.2-4.7-2.1C108.7,85.7,108.3,85.7,108.4,85.3C108.4,85.3,108.4,85.3,108.4,85.3z"/>
	<path fill="#67BD45" d="M132.4,89.6c-0.1,0-0.1,0-0.1-0.1c0.5-0.2,0.8-0.5,1-0.9c1-2,3.3-1.9,5-1.3c0.4,0.2,0.2,0.5,0,0.7
		c-0.8,1.6-2.8,2.4-4.6,1.7C133.3,89.5,132.9,89.5,132.4,89.6z"/>
	<path fill="#67BD45" d="M71.9,106.8c0.4,0,0.9,0,1.3-0.1c1.9-0.5,3.7,0.4,4.4,2.1c0.2,0.4,0.1,0.6-0.4,0.7c-2,0.5-3.9,0-4.7-2
		C72.4,107.2,72.2,107,71.9,106.8L71.9,106.8z"/>
	<path fill="#67BD45" d="M48,104.1c0,0,0.1,0,0.1,0.1c0,0.5,0.4,0.7,0.7,1c1.4,1.1,1.9,3,1.1,4.5c-0.2,0.5-0.5,0.6-0.9,0.2
		c-0.4-0.4-0.8-0.8-1.1-1.3c-0.6-1-0.7-2-0.2-3C47.9,105.1,48,104.6,48,104.1z"/>
	<path fill="#67BD45" d="M124.2,105.7c0.6,1,1,2.1,0.8,3.3c-0.2,1-0.8,1.6-1.5,2.2c-0.4,0.3-0.6,0-0.7-0.3
		C121.7,108.7,122.1,107.5,124.2,105.7z"/>
	<path fill="#67BD45" d="M81.1,109.2c0.4,0.1,0.9,0.1,1.4,0.2c1.5,0.2,2.8,1.6,2.9,3.1c0.1,0.6-0.1,0.8-0.7,0.6
		c-0.6-0.2-1.3-0.2-1.8-0.6c-1-0.6-1.5-1.4-1.6-2.4C81.3,109.8,81.2,109.5,81.1,109.2z"/>
	<path fill="#67BD45" d="M119.9,90.9c0-0.1-0.1-0.1-0.1-0.2c0.5-0.2,0.3-0.7,0.3-1c0.4-1.5,1.5-2.6,3-2.9c0.1,0,0.3,0,0.4,0
		c0.6,0,0.8,0.1,0.5,0.7c-0.2,0.4-0.2,0.9-0.4,1.3c-0.5,1.1-1.3,1.8-2.6,1.9C120.6,90.8,120.2,90.9,119.9,90.9z"/>
	<path fill="#67BD45" d="M41.4,119.8c-0.1-0.1-0.1-0.3-0.1-0.5c0.5-0.1,0.5-0.5,0.6-0.9c0.4-1.6,2.1-2.8,3.8-2.6
		c0.6,0.1,0.7,0.2,0.5,0.8c-0.8,2.2-1.7,2.7-4,2.7C41.8,119.3,41.4,119.3,41.4,119.8z"/>
	<path fill="#67BD45" d="M97,77.7c0.7-0.7,1.5-1.2,2.5-1.4c1.1-0.2,2,0.1,2.8,0.8c0.4,0.3,0.4,0.5,0,0.8C100.5,79.2,99,79.5,97,77.7
		z"/>
	<path fill="#67BD45" d="M25.7,127.6C25.7,127.6,25.6,127.6,25.7,127.6c-0.3,0-0.6,0.2-0.8,0.3c-1.9,0.8-3.5-0.4-4.4-1.8
		c-0.3-0.4,0.1-0.5,0.3-0.6c1.5-0.7,3.2-0.2,4.3,1.2C25.3,127,25.5,127.3,25.7,127.6z"/>
	<path fill="#67BD45" d="M125.6,95C125.6,95,125.6,95,125.6,95c1-0.5,2-0.8,3.1-0.6c1,0.2,1.7,0.7,2.2,1.5c0.3,0.4,0.2,0.6-0.3,0.8
		c-1.9,0.7-3.8,0.4-4.7-1.3C125.8,95.3,125.7,95.2,125.6,95z"/>
	<path fill="#67BD45" d="M52.7,127.9c1-0.5,2.1-0.9,3.3-0.6c0.9,0.2,1.5,0.8,2,1.5c0.3,0.4,0.1,0.6-0.3,0.8
		c-1.8,0.7-3.7,0.6-4.7-1.2C53,128.2,52.8,128.1,52.7,127.9L52.7,127.9z"/>
	<path fill="#67BD45" d="M81.8,95c0,0,0,0.1,0,0.1c-0.4,0-0.5,0.3-0.6,0.6c-1.1,1.5-3.1,1.9-4.6,1.1c-0.5-0.3-0.5-0.5-0.2-0.9
		c1.5-1.7,3.1-2.1,4.7-1.2C81.3,95,81.5,95,81.8,95z"/>
	<path fill="#67BD45" d="M62.4,106.5c-0.2,0.9-0.3,1.8-0.9,2.6c-0.7,0.9-1.6,1.3-2.8,1.4c-0.5,0-0.7-0.2-0.5-0.7
		c0.5-2.2,1.4-3,3.6-3.3C62.1,106.6,62.3,106.6,62.4,106.5C62.5,106.5,62.4,106.5,62.4,106.5z"/>
	<path fill="#67BD45" d="M66.5,130.9c0.3,1.8-0.6,3.5-2.2,4.1c-0.5,0.2-0.8,0.2-0.8-0.5c-0.2-1.6,0.6-3.5,2.3-4
		C66.4,130.3,66.5,130.5,66.5,130.9z"/>
	<path fill="#544227" d="M51,74.2c-0.4,0-0.7-0.2-0.9-0.6c0.7-0.9,1-2,1.4-3.1c0.1-0.3,0.3-0.6,0.5-0.8c0.7-0.8,1.3-1.6,1.8-2.6
		c0.3-0.6,0.9-1,1.7-1.4c-0.6,0.7-1.3,1.3-1.6,2.3c1.6-0.5,3.2-0.5,4.7,0.2c-0.4,0-0.7-0.1-1.1-0.1c-0.4,0-0.8,0-1.2,0
		c-2.2,0-3.5,1-4,3.1C51.9,72.3,51.6,73.3,51,74.2z"/>
	<path fill="#67BD45" d="M42.2,69.8c-0.2,0.3-0.3,0.5-0.6,0.7c-0.2-0.5-0.5-0.1-0.7-0.1c-1.4,0.3-2.8-0.2-3.6-1.4
		c-0.2-0.4-0.2-0.6,0.3-0.8c1.5-0.6,3.5-0.3,4.1,1.2C41.8,69.6,41.9,69.8,42.2,69.8z"/>
	<path fill="#67BD45" d="M127.2,105.4c1,0.9,1.6,1.7,1.7,2.9c0.1,0.9-0.2,1.6-0.7,2.2c-0.2,0.3-0.4,0.2-0.6,0
		c-1.3-1.4-1.8-3.2-0.6-4.6C127.2,105.8,127.2,105.6,127.2,105.4z"/>
	<path fill="#67BD45" d="M106.9,86.1c0.2,0.3,0.5,0.4,0.7,0.6c1.2,0.9,1.6,2.4,1,3.6c-0.2,0.5-0.4,0.5-0.8,0.2
		c-1.4-1.2-1.9-2.5-1.1-3.8C106.9,86.5,106.8,86.3,106.9,86.1C106.8,86.1,106.9,86.1,106.9,86.1L106.9,86.1z"/>
	<path fill="#544227" d="M106.9,86.1L106.9,86.1C106.9,86.1,106.8,86.1,106.9,86.1c-2.7,1-5.4,1.3-8.2,1.6c-0.2-0.2-0.5-0.3-0.4-0.6
		c1.6-0.1,3-0.5,4.1-1.8c0.4-0.4,0.7-0.9,1.2-1.4c-0.3,1.1-1.1,1.9-2,2.7c2.3-0.1,4.6-0.6,6.6-1.8c0,0.1,0.1,0.1,0.1,0.2
		c0,0.1,0,0.2,0.1,0.3c0,0,0,0,0,0C107.8,85.4,107.4,85.7,106.9,86.1z"/>
	<path fill="#67BD45" d="M99.4,101.3c0.4,0.7,0.7,1.4,0.7,2.3c-0.1,0.8-0.8,1.9-1.3,2c-0.3,0-0.7-1-0.8-1.8
		C97.9,102.6,98.6,101.9,99.4,101.3z"/>
	<path fill="#67BD45" d="M132.1,90.7c-0.3-0.5,0-0.6,0.5-0.6c1.3,0,2.5,1,2.7,2.2c0.1,0.4,0,0.6-0.5,0.5
		C133.3,92.8,132.4,92.2,132.1,90.7z"/>
	<path fill="#67BD45" d="M24.6,113.1c0.2,0.2,0.2,0.5,0.2,0.7c-0.2-0.4-0.5-0.3-0.8-0.1c-1.1,0.5-2.3-0.1-3.1-1.2
		c-0.2-0.4,0-0.5,0.3-0.6c1-0.4,2.1-0.1,2.9,0.8C24.3,112.8,24.3,113.2,24.6,113.1z"/>
	<path fill="#67BD45" d="M27,126.7c-1.6-0.7-2.4-1.7-2.2-3c0.1-0.6,0.3-0.8,0.9-0.5C27,124,27.4,124.8,27,126.7z"/>
	<path fill="#67BD45" d="M86.9,104.7c0.4,0.3,0.9,0.5,1.3,0.9c0.7,0.8,0.8,1.6,0.6,2.6c-0.1,0.4-0.3,0.5-0.6,0.2
		c-1.2-0.7-1.9-1.9-1.4-3.3C86.9,105,86.9,104.8,86.9,104.7z"/>
	<path fill="#67BD45" d="M13.2,144.2c0,0.7,0.1,1.5-0.3,2.2c-0.4,0.6-1.5,1.5-1.8,1.2c-0.5-0.5-0.2-1.2,0-1.8
		c0.2-0.6,0.6-1.1,1.3-1.3C12.7,144.4,13,144.3,13.2,144.2z"/>
	<path fill="#67BD45" d="M105.2,79.4c-0.2,0.3-0.4,0.5-0.7,0.6c-1-1.6-1-2.4-0.2-3.6c0.3-0.4,0.5-0.4,0.8,0c0.4,0.6,0.5,1.3,0.4,2
		c0,0.2-0.3,0.4,0,0.6c0,0,0,0,0,0c-0.1,0-0.1-0.1-0.2,0c-0.1,0.1,0,0.1,0,0.2c0,0,0,0,0,0c-0.1-0.1-0.2,0-0.2,0
		C105,79.3,105.1,79.4,105.2,79.4z"/>
	<path fill="#67BD45" d="M43.9,145.2c0.2,0.2,0.5,0.2,0.8,0.3c1.1,0.3,1.8,1.3,1.8,2.3c0,0.4-0.2,0.5-0.6,0.4c-1.3-0.3-1.9-1-2-2.4
		C44,145.6,43.9,145.5,43.9,145.2z"/>
	<path fill="#67BD45" d="M144.7,106.6c1.5-0.3,2.7,0.2,3.2,1.5c0.2,0.5,0.1,0.7-0.5,0.7C145.9,108.8,145.3,108.3,144.7,106.6z"/>
	<path fill="#67BD45" d="M63.2,68.2c0,0,0.1-0.1,0.1-0.1c0.3,0.2,0.6,0.1,0.9,0.1c1,0.1,2,1.2,2,2.2c0,0.3-0.1,0.4-0.4,0.4
		c-1.1,0.1-2.1-0.8-2.4-1.9C63.3,68.6,63.3,68.4,63.2,68.2z"/>
	<path fill="#67BD45" d="M68.8,119.4c0.7,0.3,1.5,0.7,1.8,1.5c0.3,0.7,0.4,1.8,0,1.9c-0.6,0.1-1.1-0.4-1.5-0.8
		c-0.5-0.5-0.6-1.1-0.5-1.8C68.7,119.9,68.7,119.6,68.8,119.4z"/>
	<path fill="#67BD45" d="M133.4,119.3c0.3,0.5,0.5,1,0.6,1.6c0.1,0.8-0.2,1.5-0.8,2c-0.3,0.2-0.4,0.1-0.6-0.1
		C131.7,121.6,132.1,120.2,133.4,119.3L133.4,119.3z"/>
	<path fill="#67BD45" d="M115.2,121.9c-0.2-1.2,0.3-2.2,1.2-2.6c0.3-0.1,0.4-0.1,0.5,0.2c0.4,0.9,0.2,2.1-0.5,2.7
		c-0.2,0.2-0.5,0.6-0.9,0.5C115.1,122.6,115.3,122.1,115.2,121.9z"/>
	<path fill="#67BD45" d="M68.4,136c0.5,0.4,0.9,1,1,1.7c0.1,0.5,0,1-0.3,1.4c-0.3,0.4-0.5,0.4-0.8,0C67.5,138,67.6,137,68.4,136z"/>
	<path fill="#67BD45" d="M106.1,95.5c-0.2,0-0.4,0-0.5-0.1c0.1-0.4-0.2-0.7-0.3-1.1c0-0.7,0.3-1.2,0.7-1.7c0.1-0.1,0.2-0.1,0.4,0.1
		c0.5,0.5,0.5,1.1,0.4,1.7C106.7,94.9,106.4,95.2,106.1,95.5z"/>
	<path fill="#67BD45" d="M134.1,99C134.1,99,134.2,99,134.1,99c0.1-1.6,0.4-2,1.5-2.4c0.5-0.2,0.5,0,0.5,0.4
		C136.2,98,135.4,98.9,134.1,99z"/>
	<path fill="#67BD45" d="M137.6,122.1c1.2,0.4,1.6,1.1,1.5,2c0,0.4-0.2,0.5-0.6,0.3C137.7,124,137.4,123.4,137.6,122.1z"/>
	<path fill="#544227" d="M47.4,133.7c-0.1,0-0.1,0-0.2,0.1c-1.4-0.8-2.2-2.1-3-3.4c-0.1-0.1,0-0.3,0-0.4c0.1,0,0.2,0,0.2,0
		c0.4,0.3,0.5,0.8,0.8,1.1C45.9,132,46.6,132.8,47.4,133.7z"/>
	<path fill="#544227" d="M128.8,100.8c0,0.2-0.1,0.3-0.2,0.4c-0.2-0.2,0-0.3,0-0.5C128.7,100.7,128.8,100.8,128.8,100.8z"/>
	<path fill="#67BD45" d="M71.2,106.5c0,0,0.1-0.1,0.1-0.1c0.1,0,0.2,0,0.3,0.1c0,0,0,0-0.1,0.1C71.4,106.6,71.3,106.6,71.2,106.5z"
		/>
	<path fill="#67BD45" d="M52.7,127.9c-0.2,0-0.3,0-0.4-0.2C52.5,127.7,52.6,127.7,52.7,127.9C52.7,127.9,52.7,127.9,52.7,127.9z"/>
	<polygon fill="#544227" points="58.7,68.1 58.7,68.2 58.8,68.1 	"/>
	<path fill="#67BD45" d="M133.4,119.3c0-0.1,0-0.1,0-0.2c0,0,0,0,0,0C133.4,119.3,133.4,119.3,133.4,119.3
		C133.4,119.3,133.4,119.3,133.4,119.3z"/>
	<path fill="#67BD45" d="M131.7,90c0,0,0.1-0.1,0.1-0.1C131.9,89.9,131.8,90,131.7,90z"/>
	<polygon fill="#544227" points="115.7,88.9 115.7,88.9 115.7,88.9 	"/>
	<path fill="#544227" d="M127.5,105.3C127.5,105.3,127.5,105.3,127.5,105.3C127.5,105.3,127.5,105.3,127.5,105.3
		C127.5,105.3,127.5,105.3,127.5,105.3C127.5,105.3,127.5,105.3,127.5,105.3z"/>
	<path fill="#67BD45" d="M71.9,106.8c-0.1,0-0.1-0.1-0.2-0.1l0,0C71.9,106.7,72,106.6,71.9,106.8C71.9,106.8,71.9,106.8,71.9,106.8z
		"/>
	<path fill="#67BD45" d="M71.8,106.7c-0.1,0-0.2,0-0.2-0.1c0,0,0,0,0.1-0.1C71.7,106.5,71.8,106.5,71.8,106.7
		C71.8,106.7,71.8,106.7,71.8,106.7z"/>
	<path fill="#67BD45" d="M42.6,85.3c0.2,0.1,0.4,0.2,0.7,0.4c0-0.7,0.4-0.6,0.9-0.5c2.2,0.6,3.1,1.3,4.4,3.1c0.4-0.5,0.6-1,1.1-1.4
		c0.4-0.3,0.6-0.3,0.8,0.2c0.8,1.6,0.9,3.5-0.7,4.7c-0.2,0.2-0.3,0.4-0.4,0.6c-0.1,0-0.2-0.1-0.4-0.1c-0.3-0.3-0.5-0.5-0.9-0.5
		c-0.6-0.1-0.9,0-0.6,0.6c0,0.2,0,0.3,0.1,0.4c0,1.4-0.3,2.7-1,3.9c-0.3,0.5-0.5,1-0.5,1.5c0,0.1,0,0.2,0,0.4c0,0.3,0.3,0.6,0,0.7
		c-0.4,0.1-0.2-0.4-0.4-0.6c0-0.3,0-0.6-0.2-0.7c-0.9-0.5-1.6-1.3-2.5-1.8c0-0.2,0-0.4-0.3-0.4c-0.1-0.3-0.3-0.7-0.7-0.8
		c0.1-0.3,0-0.5-0.3-0.6c0-0.6-0.4-1.2-0.6-1.7c-0.9-2.6-0.4-5,1-7.2C42.2,85.5,42.3,85.3,42.6,85.3z"/>
	<path fill="#67BD45" d="M26.7,90.2c-0.4-0.4-0.8-0.4-1.3-0.4c-2.6-0.1-5.3-1.8-5.5-5.3c0-0.5,0.1-0.7,0.7-0.6
		c2.1,0.2,3.9,0.8,5.1,2.8c0.4,0.7,0.5,1.4,0.6,2.1c0.1,0.4-0.1,0.9,0.5,1.1C26.9,90,26.8,90.1,26.7,90.2z"/>
	<path fill="#67BD45" d="M63.8,96.6c0-0.4-0.3-0.2-0.5-0.2c-1.7,0.3-3-0.3-4.2-1.5c-0.3-0.4-0.7-0.6-1.1-0.8c0-0.1,0-0.1,0-0.2
		c0.5,0.1,0.8-0.2,1.1-0.4c1.9-1.4,5.2-2,7.5,0.6c0.4,0.5,0.4,0.8-0.1,1.1c-0.7,0.4-1.4,0.7-2.1,1.1C64.1,96.2,64.1,96.5,63.8,96.6z
		"/>
	<path fill="#67BD45" d="M38.7,86.1c0,0.3,0.1,0.5,0.3,0.8c1,1.4,0.8,3.3-0.4,4.4c-0.4,0.4-0.6,0.4-0.9-0.1
		c-0.4-0.8-0.7-1.6-0.6-2.6c0-0.2-0.1-0.3-0.1-0.5c-0.4,0.1-0.7,0.3-0.9,0.5c-1.1,0.7-2.2,0.6-3.3,0.2c-0.4-0.1-0.4-0.4-0.2-0.7
		c0.9-1.5,2.5-3.1,5-2.3c0.3,0.1,0.6,0.1,1,0.1C38.6,85.9,38.7,86,38.7,86.1z"/>
	<path fill="#67BD45" d="M48.7,98.1c0.3,0.1,0.5-0.1,0.7-0.3c1.8-1.2,4-1.2,5.6,0c1.5,1.1,1.5,1.5-0.2,2.2c-1.8,0.8-4.1,0.7-5.4-1.1
		c-0.2-0.3-0.5-0.4-0.7-0.6C48.7,98.2,48.7,98.1,48.7,98.1z"/>
	<path fill="#67BD45" d="M27.7,92c0.5,0.2,0.7-0.2,1-0.4c1.5-1.5,3.4-1.7,5.1-0.6c0.7,0.4,0.7,0.5,0.1,1.1c-1.1,1-2.4,1.6-3.9,1.2
		c-0.5-0.1-0.9-0.4-1.2-0.7c-0.3-0.2-0.7-0.4-1.1-0.3C27.7,92.2,27.7,92.1,27.7,92z"/>
	<path fill="#67BD45" d="M62.5,82.7c-0.1-0.2-0.3-0.4-0.4-0.6c-0.9-0.8-1-2.1-0.4-3.2c0.2-0.3,0.3-0.2,0.5,0
		c0.8,0.6,1.1,1.7,0.8,2.7C62.9,82,62.7,82.4,62.5,82.7C62.6,82.7,62.5,82.7,62.5,82.7z"/>
	<path fill="#67BD45" d="M105.2,79.4c-0.1,0-0.1-0.1-0.1-0.2c0-0.1,0.1-0.2,0.2,0C105.2,79.3,105.2,79.3,105.2,79.4z"/>
	<path fill="#67BD45" d="M105.3,79.2c0-0.1-0.1-0.1,0-0.2c0.1-0.1,0.1,0,0.2,0C105.5,79.2,105.4,79.2,105.3,79.2z"/>
	<path fill="#544227" d="M72.5,83.2c0.7,0.2,1.3,0.3,2,0.5c-0.9,0.2-1.7,0-2.6-0.3C72.1,83.2,72.3,83.1,72.5,83.2z"/>
	<path fill="#67BD45" d="M28.3,87.2c-0.6,0.4-0.6,0-0.7-0.5c0-2.2,1.3-3.6,3-3.8c0.5-0.1,0.7,0.1,0.6,0.5c-0.1,0.7-0.1,1.3-0.4,2
		C30.4,86.5,29.6,87.1,28.3,87.2z"/>
	<path fill="#67BD45" d="M33.6,84.6c-0.1-1.7,0.7-2.9,2.1-3.1c0.5-0.1,0.6,0.1,0.6,0.5C36.1,83.7,35.2,84.6,33.6,84.6z"/>
	<path fill="#544227" d="M27.5,80.1c0,0,0.1-0.1,0.1-0.1c0,0.1,0,0.1,0,0.2C27.6,80.1,27.6,80.1,27.5,80.1z"/>
	<path fill="#544227" d="M47.6,92.9c-0.1-0.1-0.1-0.3-0.1-0.4c0.5-0.1,1,0.3,1.5-0.1c0.1,0,0.2,0.1,0.4,0.1c1.2,0,2.2-0.4,2.9-1.5
		c0,0.7-0.4,1.1-0.8,1.3c-0.8,0.5-1.7,0.6-2.7,0.6C48.4,92.9,48,92.9,47.6,92.9z"/>
	<path fill="#544227" d="M60.7,91.2c0.1-0.1,0.1-0.2,0.2-0.1c0.1,0.1,0,0.2-0.1,0.2C60.8,91.2,60.7,91.2,60.7,91.2z"/>
	<path fill="#544227" d="M64.8,101c0.1,0,0.1-0.1,0.2-0.1c0,0,0,0,0,0.1C65,101,64.9,101,64.8,101C64.8,101,64.8,101,64.8,101z"/>
</g>
</svg>
