<?xml version="1.0" encoding="utf-8"?>
<!-- Generator: Adobe Illustrator 22.1.0, SVG Export Plug-In . SVG Version: 6.00 Build 0)  -->
<svg version="1.0" id="Calque_1" xmlns="http://www.w3.org/2000/svg" xmlns:xlink="http://www.w3.org/1999/xlink" x="0px" y="0px"
	 width="100%" viewBox="0 0 150 150" enable-background="new 0 0 150 150" xml:space="preserve">
<g>
	<path fill="#544227" d="M86.9,79.3c-0.1-0.6-0.2-1.1-0.3-1.7c-0.1-0.7,0.6-1.3,1.2-1.2l0,0c-0.3-0.3,0-0.5,0.2-0.6
		c1.2-0.8,2.5-1.1,3.9-1.3c1.9-0.2,3.9,0,5.8,0c1.5,0,2.9-0.3,4.4-0.5c0,0,0.1,0,0.1-0.1c2.9-0.9,5.5-2.3,8.1-3.7
		c3.3-1.9,6.9-2.3,10.6-1.9c2.9,0.3,5.8,0.5,8.7,0c0.6-0.1,1.1-0.2,1.8-0.3c-1.8,2.7-3.4,5.3-5.9,7.3c-1.3,1.1-2.9,1.7-4.5,2
		c-1.3,0.2-2.6,0.5-3.9,0.9c-3.6,1.1-5.8,3.5-7,6.9c-0.5,1.3-0.9,2.7-1.4,4c0,0.2,0,0.4-0.1,0.5c-0.1,0.4-0.3,0.8-0.4,1.2
		c-0.1,0.3-0.3,0.5-0.3,0.9c-0.3,1.5-0.8,2.8-1.2,4.2c-0.3,1.1-0.6,2.1-0.9,3.1c0.3,0.1,0.2,0.3,0.2,0.5c0.5-0.3,0.6-0.8,0.8-1.2
		c0.3-0.7,0.6-1.4,0.9-2.1c0-0.1,0.1-0.3,0.2-0.3c0.7-2,1.3-4,2.1-6.1c0.6,1.3,1,2.6,2.3,3.2c-0.2-0.3-0.5-0.5-0.6-0.8
		c-1-1.6-1.7-3.1-0.9-5.1c0.7-1.7,1.2-3.4,2.4-4.8c1.7-1.9,4-2.8,6.4-3.3c1.6-0.4,3.3-0.4,4.8-1.1c0.2,2,0.1,4-0.6,5.9
		c-0.3,0.9-1,1.6-1.8,2.2c-1.3,0.9-2.6,1.7-4.1,2.2c-1.7,0.7-2.3,1.4-2.2,3.6c0.1,1.5,0.4,3,1.1,4.4c1,1.9,0.8,2.8-0.7,4.4
		c-0.7,0.7-1.3,1.3-2,2c1.2-0.4,3-2.3,3.9-4.1c0.4,0.6,0.7,1.1,1.1,1.7c0,0,0-0.1,0-0.1c-0.3-1.2-1-2.3-1.5-3.4
		c-0.6-1.3-0.9-2.6-1.2-3.9c-0.1-0.2-0.1-0.5,0.1-0.8c1.3,2.5,3.3,4.2,6,5.1c0.9,0.3,1.7,0.8,2.4,1.3c0-0.1,0-0.2,0-0.2
		c-0.2-0.3-0.5-0.5-0.7-0.8c0,0,0,0,0,0c-2.4-1.1-5-2-6.4-4.5c-0.3-0.6-0.6-1.3-0.8-1.9c-0.3-0.8,0.1-1.2,0.7-1.5
		c0.9-0.4,1.8-0.7,2.7-1.1c1.6-0.7,3-1.5,3.9-3c0-0.1,0.2-0.1,0.2-0.2c0,0,0,0,0,0c0.2-0.5,0.3-1,0.5-1.5c0-0.3,0-0.5,0.2-0.7
		c0.4-1.8,0.7-3.7,0.6-5.6c0-0.3,0-0.5,0.2-0.7c2.8-2.5,4.9-5.6,7.2-8.5c4.1-5.1,8.4-9.8,13.3-14.2c1.3-1.2,1.5-1.4,3.1-1.2
		c0-1.2,0-2.3,0-3.5c-2.2-0.1-2.6-0.6-4.5-1.7c-5.6-3.1-11.6-4.2-17.9-4.1c-3.8,0.1-7.5,0-11.3,0.6c-1.2,0.2-2.1,0-3.1-0.5
		c-1.7-0.9-3.2-1.9-4.5-3.3c-0.3-0.1-0.4-0.4-0.6-0.7c-0.2-0.2-0.4-0.5-0.6-0.7c-0.3-0.3-0.4-0.6-0.3-1c-0.1-0.1,0-0.2-0.1-0.3
		c-0.1,0.2-0.1,0.3-0.2,0.5c-0.5-0.5-1-1-1.5-1.5c-1.3-1.4-2.9-2.2-4.7-2.7c-0.1,0-0.1,0-0.2,0c-0.5,0.1-1-0.1-1.4-0.1
		c0.1,0.1,0.2,0.2,0.2,0.2c2.6,0.4,4.7,1.6,6.4,3.8c-1.4-0.3-2.7-0.4-4.1-0.1c2.3,0.4,4.9,0.3,6.3,2.7c0,0.1,0,0.2,0,0.2
		c0.8,0.3,1.1,1.2,1.7,1.6c0.2,0,0.5,0,0.5,0.4c0.9,0.8,1.9,1.3,3.1,2c-1.6,0.6-3,1.2-4.3,2.1c-0.7,0.4-1.2,0.6-1.9,0.2
		c-0.4,0.5-1.1,0.7-1.4,1.4c0.1,0.2,0.7,0.2,0.2,0.6c-1.1,0.8-2.2,1.7-3.3,2.5c-2.8,2.2-5.8,3.1-9.4,2.2c-1.8-0.5-3.6-1-5.4-1.1l0,0
		c-1.1,0-2.2,0.1-3.2,0.5c-0.1,0.2,0.2,0.7-0.4,0.4c-0.1-0.1-0.3,0-0.5,0c-0.7,0.3-1.4,0.7-2,1.2c-1,0.7-2.2,1.2-3.4,1.5
		c-3.3,0.7-4.5,0.1-6.7-2.8c-1.1-1.5-1.4-3.4-2-5.2l0,0c-0.9-0.9-1.4-2-1.5-3.4c-0.4,0.5,0,1-0.3,1.3c-0.3-0.2-0.7-0.3-1-0.5
		c-0.1,0-0.2,0-0.2,0c0.5,0.5,1,1,1.5,1.4c1,1,1.4,2.2,1.6,3.6c-1-0.7-1.9-1.5-3.3-1.6c0.7,0.5,1.4,0.8,1.9,1.2
		c0.9,0.6,1.8,1.3,2.1,2.4c0.2,0.7,0.6,1.2,1,1.8c0.4,0.6,0.9,1,1.5,1.5c-2.6-0.5-4.9-1.3-7.1-2.4c-0.2-0.1-0.4-0.2-0.5-0.5
		c-0.4-1.5-1.4-2.7-2.6-3.7c-1.2-1-2.5-1.8-3.8-2.7c-0.4-0.3-0.8-0.5-0.8-1l-0.1,0l-0.1,0c-0.1,0.4-0.3,0.2-0.4,0
		c-0.6-0.6-0.9-1.3-1-2.1c-0.3-1.4-0.7-2.8-1.2-4.1c-0.2-0.5-0.5-1-0.4-1.6c0.1-0.4-0.1-0.9-0.4-1.4c-0.2,0.5,0.2,1-0.1,1.4
		c-0.7-0.8-1.4-1.6-2.4-2c0,0.1,0,0.2,0,0.2c2.3,1.7,3.3,4.2,3.7,6.9c0.3,1.9,1.1,3.3,2.7,4.4c1.2,0.8,2.4,1.6,3.5,2.5
		c1,0.8,1.8,1.7,2.3,2.9c-0.3,0.1-0.5-0.1-0.7-0.2c-4.2-2.2-8.2-4.9-12.1-7.5c-0.3-0.2-0.7-0.4-1-0.6c-0.2,0.1-0.1,0.2-0.1,0.3
		c2.1,1.8,4.3,3.3,6.6,5c-1.4,0-2.3,0.7-3.3,1.2c-2.7,1.5-5,1.2-7.6-1.1c-0.3-0.1-0.5-0.3-0.7-0.6c0-0.1-0.1-0.1-0.1-0.2l0,0
		c-0.1,0-0.2-0.1-0.1-0.2l0,0c-0.1,0-0.3-0.2-0.4,0c1.8,2.7,5.3,4.6,8.3,3.4c0.4-0.2,0.8-0.4,1.2-0.7c0.6-0.4,1.2-0.8,1.9-0.9
		c1-0.2,1.9-0.3,2.8,0.4c0.7,0.6,1.5,0.9,2.1,1.5c0,0,0.1,0.1,0.1,0.1c0.7,0.1,1.1,0.6,1.7,0.8c0.2,0.1,0.6-0.1,0.6,0.4
		c1.6,0.8,3.2,1.5,4.9,2.1c2.4,0.8,4.8,1.6,7.3,1.6c2.7,0.1,5.2-0.8,7.6-2.1c1-0.5,2.1-1,3.3-1c1.7-0.1,3.3,0.5,5,1
		c-1.3,0.5-2.4,0.8-3.4,1.3c-1.8,1-3.4,2.3-4.8,3.8c-0.9,0.9-1.8,1.7-3,2.1c0.3,0.4,0.6,0.6,1.1,0.8c1-0.5,1.8-1.1,2.5-1.8
		c1.2-1.2,2.5-2.2,4-3c2.8-1.4,5.7-2.4,9-2.3c1.5,0.1,3-0.2,4.4-0.9c2.1-1,3.9-2.5,5.8-3.9c0.3-0.2,0.5-0.5,0.9-0.5
		c0.1,0.6,0.1,1.2,0.3,1.6c0.3,0.5,0.2,1,0,1.5c-0.1,0.3-0.3,0.7-0.5,1c0.2-0.1,0.3,0.2,0.5,0.2c0.3-0.4,0.4-0.9,0.6-1.4
		c0.8,0.9,1.6,1.6,2.7,2c0-0.1,0.1-0.2,0.2-0.1c-0.3-0.3-0.6-0.6-0.9-0.9c-1.4-1.1-2.2-2.4-1.9-4.3c0.1-0.3,0.1-0.6,0.4-0.8
		c3-2.1,6.3-3.5,10.1-3.6c2.4-0.1,4.7,0.2,7.1,0.3c5,0.1,9.9,0.8,14.5,2.7c1.6,0.6,3.1,1.4,4.6,2.3c-1.1,0.9-2,1.7-2.9,2.6
		c-3.1,3.1-5.7,6.6-8.3,10.1c-0.3,0.4-0.6,0.6-1,0.8c-1.6,0.7-3.2,1.1-4.9,1.4c-0.9,0.1-1.9,0.5-2.6,0.1c-1-0.6-1.5-1.7-1.9-2.8
		c-0.4-1.1-0.7-2.3-0.4-3.5c-0.1-0.1-0.2-0.2-0.1-0.4c0.1-1.3,0.3-2.7,0.1-4c-0.1-0.5-0.1-1,0-1.5c0.3-1.5,0-2.9-0.8-4.2
		c-0.1,0-0.1,0-0.2,0.1c0.5,1.1,0.6,2.3,0.5,3.7c-0.9-1.8-2.1-3.1-4.1-3.3c1.6,0.8,2.9,1.9,3.5,3.6c0.6,1.7,0.5,3.3,0.3,5.1
		c-2-1.2-3.8-2.6-5.6-4.2c0.1,0.5,0.3,0.7,0.5,0.9c1.3,1.5,2.9,2.8,4.5,3.9c0.2,0.2,0.5,0.3,0.5,0.7c-0.1,0.5-0.1,0.9-0.1,1.4
		c0,0.1,0,0.2,0.1,0.3c0,1.5,0.4,3,1.3,4.4c-0.4,0-0.7,0-1-0.1c-3.1-0.3-6.1-0.2-9,0.8c-0.9,0.3-1.7,0.1-2.5-0.3
		c-1.2-0.6-1.9-1.6-2.8-2.6c-0.3,0.1-0.4,0.3-0.3,0.6c0.3,0.4,0.6,0.8,0.9,1.2c-0.6,0-1.1-0.3-1.6-0.4c-0.2,0-0.3,0.2-0.3,0.4
		c1.3,0.6,2.9,0.8,3.9,2c-1.4,0.6-2.9,1.3-4.2,2.1c-0.3,0.2-0.5,0.2-0.8-0.1c-0.5-0.5-1-1-1.6-1.4c-0.2,0.2,0,0.7-0.4,0.6
		c-0.3-0.1,0-0.5,0-0.7c0-0.1,0-0.2,0-0.4c-1.6-1-3.1-2-4.9-2.5c-1.6-0.5-3.1-1-4.7-1.4C93,64,92.2,63,91.8,61.6
		c0-0.1,0-0.4-0.3-0.4c-0.1,0.7,0.3,1.3,0.4,2c-1-0.5-1.7-1.3-2.4-2.1c0,0-0.1,0.1-0.1,0.1c0.1,0.3,0.4,0.6,0.6,0.9
		c0.6,0.7,1.5,1.2,2.2,1.9c0,0.1,0,0.1,0,0.2c0.8-0.1,1.3,0.5,2.2,0.7c-1,0.5-1.9,0.6-2.6,1.5c1.6-0.6,3-1.4,4.7-0.7
		c1.6,0.6,3.2,1.1,4.7,1.9c0.1,0.1,0.6,0.1,0.3,0.4c0,0.1,0,0.1,0,0.2c0.2-0.1,0.5-0.2,0.7,0c1.1,0.8,2.1,1.6,2.8,2.7
		c0.1,0.2,0.2,0.3-0.1,0.5c-2.5,1.3-5.1,2.3-8,2.2c-1.6-0.1-3.2-0.1-4.4-1.4c-0.2-0.2-0.5-0.4-0.7-0.7c-1.6-1.9-3.4-3.6-5.5-5
		c-0.2-0.1-0.3-0.4-0.6-0.3c0.4,1,1.6,1,2.1,2c-1.4-0.5-3-0.2-4.1-1.4c0.2,0.4,0.3,0.9,0.2,1.4c2,0,3.8,0.3,5.5,1.8
		c-0.8,0-1.2,0.3-1.7,0.6c-0.7,0.5-1.5,0.8-2.4,0.4l0,0c0,0.2,0.3,0.1,0.3,0.4c-0.5,0-1.1,0-1.6,0c0,0.1,0,0.2,0,0.3
		c1.6,0.1,3.1-0.1,4.5-1c0.6-0.4,1.4-0.2,1.8,0.3c0.7,0.9,1.3,1.8,2.4,2.5c-0.6,0.1-1,0.1-1.4,0.1c-1.8,0.2-3.5,0.7-4.9,2
		c-0.5,0.5-1,0.9-1.6,0.9c-0.7,0.1-1.5,0.6-2.1-0.3c-0.2,0,0,0.6-0.4,0.2c-1-0.2-1.9-0.5-2.9-0.3c-0.3,0-0.5,0.1-0.8,0.2
		c0,0,0.1,0.1,0.1,0.1c0.6-0.1,1.2-0.2,1.8,0c-0.5,0.4-1,0.8-1.2,1.4c0.1,0,0.2,0,0.2,0c0.6-1.1,1.3-1.4,2.5-1.1
		c0.9,0.2,1.9,0.5,3,0.3c-0.8,1.5-1.4,2.9-1.9,4.3c-0.7,2-1.1,4.1-0.9,6.3c0,0.4,0.1,0.9,0.6,1.2c-0.7-4.2,0.8-7.7,2.8-11.1
		c0.2,0.3,0.2,0.6,0.3,0.9c0.1,0.3,0.1,0.6,0.4,0.9C86.8,79.6,86.8,79.5,86.9,79.3z"/>
	<path fill="#67BD45" d="M63.2,54c0-0.5-0.4-0.3-0.6-0.4c0,0.5-0.4,0.5-0.7,0.4c-0.7-0.1-1.3-0.3-2-0.5c0.2-0.5,0.6-0.5,0.9-0.7
		c0,0-0.1-0.1-0.1-0.1c-0.4,0.1-0.8,0-1.2-0.2c-2-1.2-4.8-1-6.4,1c-0.6,0.8-0.7,0.9,0.2,1.3c0.2,0.1,0.3,0.2,0.5,0.3
		c-0.8,0.6-1.4,1.3-2,2c0.1,0.3-0.2,0.4-0.4,0.6c-0.2,0.6-0.5,1.3-0.7,1.9c-0.2,0.6-0.3,1.1,0.5,1.1c0.3,0,0.4,0.1,0.2,0.4
		c0,0.8-0.5,1.3-0.9,1.9c-0.2,1.2-0.2,2.4,0.3,3.5c0.2,0.6,0.5,0.7,1,0.3c0.4-0.3,0.7-0.5,1.2-0.8c-0.1,1-0.3,1.9-0.1,2.8
		c0,0.3,0.1,0.7,0.6,0.6c2.4-0.5,4.6-1.5,6.1-3.6c0.7-1,1-2.2,0.9-3.3c0-0.9,0.1-1.8,0.6-2.6c-0.1-0.1-0.2-0.1-0.4-0.2
		c-0.1,0.7-0.6,1-1.3,1.1c-0.7,0-1.4,0.3-2.1,0.5c-0.7,0.3-1.3,0.8-2,1.1c0-0.4,0-0.8-0.1-1.2c0-0.2,0-0.4,0.2-0.4
		c1.3-0.1,2.4-0.8,3.6-1.1c-0.1-0.1-0.1-0.1-0.2-0.2c0.5-0.2,0.7-0.7,1.3-0.8c0.8-1.2,1.5-2.4,2-3.7C62.3,54.7,62.7,54.2,63.2,54z"
		/>
	<path fill="#67BD45" d="M83.6,53.6c0.2,0,0.4-0.1,0.5,0c0.6,0.3,0.3-0.2,0.4-0.4c-1.2-0.2-1.5-0.6-1.6-2.1
		c-0.3-0.1-0.3-0.3-0.3-0.5c-0.4-0.3-0.5-0.8-0.8-1.3c1.4,0,2.5-0.7,3.5-1.5c0.3-0.2,0.6-0.4,1-0.2c0.1-0.1,0.2-0.2,0.3-0.3
		c-0.6,0-1.1-0.3-1.5-0.7c-1.5-1.6-4.9-2.7-7.3-1.1c-0.2,0.1-0.4,0.3-0.7,0.2c-0.8-0.2-1.6-0.3-2.4-0.3c-0.8,0-1.6,0.1-2.4,0.3
		c-0.1-0.7,0.1-1.4-0.2-2.1c-0.2-0.4-0.3-0.5-0.8-0.3c-1.5,0.9-2.8,2.4-2,4.5c0.1,0.2,0.1,0.4,0.1,0.7c0,0,0,0,0,0
		c0.9-0.6,1.8-1,2.4-2c0.2,0.4,0.3,0.6,0.4,0.9c0.5,1.1,1,2.2,1.7,3.2c1,1.3,2.3,2.2,3.7,3c0.2,0,0.4,0,0.6,0.2
		c1.3,0.2,2.6,0.1,3.9-0.1C82.7,53.2,83.3,53,83.6,53.6z"/>
	<path fill="#67BD45" d="M85.4,36.1c-0.2-0.5,0.1-0.9,0.4-1.3c1.1-1.4,1.7-3.8,0.2-5.6c-1-1.1-2.1-2.1-3.4-2.9
		C82,26,81.8,26.5,81.7,27c-0.4,1.5-0.9,3-0.5,4.6c-1.1-0.3-2.1-0.5-3.1-0.3c-0.3,0.1-0.4-0.2-0.5-0.4c-0.7-1.2-1.8-2-2.9-2.6
		c-0.3-0.2-0.7-0.4-0.9,0.2c-0.4,1.9-0.8,3.8,0,5.7c0.5,1.2,1.3,2.1,2.4,2.6c0.6,0.3,1.2,0.6,1.5,1.2c0.1,0.2,0.2,0.4,0.3,0.5
		c0.2,0,0.1-0.3,0.2-0.4c-0.3-0.2-0.5-0.6-0.4-0.9c0.3-0.8,0.5-1.6,0.7-2.5c0.1,0,0.1,0,0.1,0c0.1,0,0.1,0.1,0.2,0.1
		c1.3,1.4,2.9,1.9,4.8,1.4c0.2-0.1,0.5-0.2,0.7,0.1c0.3-0.1,0.6,0.1,0.9,0.2C85.5,36.6,85.5,36.4,85.4,36.1z"/>
	<path fill="#67BD45" d="M16.5,72.8c-0.6,0.3-1.3,0.4-2,0.6c-2,0.4-3.1,1.8-3.6,3.6c-0.2,0.8-0.3,1.6-0.4,2.4
		c-0.1,0.6,0.1,0.9,0.8,0.7c0.9-0.2,1.8-0.5,2.7-0.9c0,1.7,0.5,3.2,1.3,4.6c0.6,1,0.6,1,1.5,0.3c0.1-0.1,0.2-0.1,0.3-0.3
		c0.4,0.9,1,1.4,1.8,1.8c0.4,0.2,0.6,0.1,0.7-0.3c0.2-1.1,0.3-2.1-0.2-3.1c-0.2-0.4-0.2-0.7,0.1-1c1.1-1.5,1.5-3.2,1.5-4.9
		c0-1.1-0.5-2.2-1-3.2c-0.5-0.9-0.8-1.8-0.3-2.8C19,70,19.1,70.5,19,70.8c0,0.3,0,0.7-0.3,1c-0.6,0.5-1.2,1-1.9,1.4
		c-0.1,0.1-0.2-0.2-0.1-0.3C16.6,72.8,16.6,72.8,16.5,72.8z"/>
	<path fill="#67BD45" d="M110.1,43c0.1-0.4-0.2-0.4-0.5-0.4c-0.4,0.3-0.8,0.7-1.4,0.5c-0.7-0.2-1.4-0.4-2.2-0.6
		c0.7-0.5,1.2-1.2,1.9-1.6c0-0.1,0-0.2,0-0.2c-0.4,0.1-0.6-0.2-0.9-0.4c-2-1.4-4.8-1.6-6.7,0.5c-0.4,0.4-0.4,0.7,0.1,1
		c0.6,0.3,1.2,0.7,1.9,1c-0.8,0.3-1.5,0.6-2.2,0.8c-0.2,0.4-0.5,0.6-0.9,0.6c-0.1,0.3-0.3,0.6-0.7,0.7c-0.2,0.4-0.4,0.8-0.8,1.1
		c-0.3,0.7-0.7,1.4-1,2.1c-0.3,0.6-0.1,0.9,0.5,1c0.6,0.1,1.1,0.2,1.7,0.3c2.1,0.4,4.1,0.2,6-0.8c0.2-0.1,0.4-0.1,0.6-0.1
		c0.3-0.6,1-0.9,1.4-1.4c0.6-0.9,1.1-1.9,1.6-2.8C108.8,43.6,109.4,43.1,110.1,43z"/>
	<path fill="#67BD45" d="M34.6,67.3c0,0.5-0.3,0.6-0.8,0.6c-2.8,0.5-5.5,2.8-5.3,6.5c0.1,1,0.1,1,1.1,0.8c1.7-0.5,3.3-1.2,4.3-2.8
		c0.6-1,0.9-2,0.8-3.1c0-0.5-0.1-0.9,0.1-1.4c0.1-0.2,0.1-0.4,0.3-0.4c0.2,0,0.3,0.2,0.3,0.4c0.1,0.4,0,0.9-0.2,1.3
		c-0.5,1-0.4,2.1-0.3,3.2c0,0.6,0.2,1.1,0.3,1.6c0.7,2.2,2.2,3.5,4.3,4.3c0.3,0.1,0.6,0.1,0.7-0.3c0.5-2.2,0.9-4.4-0.2-6.6
		c-0.7-1.5-1.8-2.5-3.4-3c-0.5-0.2-0.7-0.6-1-1c-0.1-0.2,0.2-0.1,0.3-0.2C35.4,67.1,34.9,66.6,34.6,67.3z"/>
	<path fill="#67BD45" d="M84.1,71.7c0-0.1,0-0.2,0-0.3c0-1.1-0.1-2.1-0.1-3.2c0-0.5,0-0.9-0.2-1.4c-0.8-1.2-1.5-2.3-2.5-3.3
		c-0.4-0.2-0.8-0.4-1.1-0.8c-0.6-0.3-1.1-0.6-1.6,0.2c0.1,0.4-0.1,0.8-0.2,1.2c-0.3,1.2-0.9,2.4-0.8,3.8c0,0.1-0.1,0.3-0.2,0.4
		c-0.3,0.4-0.5,0.6,0.1,1c0.5,0.3,0.4,1,0.6,1.5c0.6,1.8,1.7,3,3.2,3.9c0.7,0.4,1.1,1,1.3,1.8c0.4,0.4,0.2-0.2,0.4-0.2
		c0-0.4-0.4-0.8-0.2-1.2C83.3,74,83.7,72.9,84.1,71.7z"/>
	<path fill="#67BD45" d="M46.6,65.7c0,0.8-0.7,1-1.1,1.4c-2,2.2-3,4.7-2.5,7.7c0.2,1.6,1.1,2.9,2,4.1c0.2,0.3,0.4,0.3,0.7,0.1
		c2.2-2.3,4-4.8,3.7-8.2c-0.1-1.2-0.6-2.3-1.3-3.3c-0.5-0.7-1.2-1.4-0.8-2.4c-0.2-0.1-0.1-0.4-0.5-0.5
		C46.8,64.9,46.7,65.3,46.6,65.7z"/>
	<path fill="#544227" d="M97.8,46c0.4-0.2,0.6-0.7,0.8-1.1c-1.6-0.3-3.2-0.7-4.8-0.7c-0.4,0-0.6-0.3-0.9-0.5c-1.3-1.2-2.4-2.6-3.3-4
		c-0.5-0.7-1-1.4-1.5-2.1c-0.7-0.9-1.5-1.5-2.6-1.4c0.1,0.3,0.2,0.5-0.3,0.4c-0.3-0.1-0.5-0.3-0.9-0.2c-0.3,0.1-0.5,0.1-0.8,0.2
		c-1.7,0.6-3.4,1.3-5.3,1.5c-0.1,0.1,0,0.4-0.2,0.4c-0.1,0-0.2-0.3-0.3-0.5c-0.8,0.4-1.7,0.3-2.5,0.3c-2.2,0.1-4.3,0-6.5-0.4
		c-0.2,0-0.6,0-0.6-0.4c-0.1,0-0.1-0.1-0.2-0.1c-0.6-0.4-1-1.1-2-1.4c0.6,0.6,1.2,1,1.5,1.7c-2.4-0.6-4.6-1.4-6.1-3.3
		c-0.6-0.8-0.6-0.8,0.2-1.4c0.7-0.6,0.9-1.1,0.5-2c0,0.4,0.2,0.8-0.1,1.2c-0.3,0.4-0.7,0.6-1,0.9c-0.6,0.4-0.4-0.6-1-0.5
		c0.4,1,1.1,1.7,1.7,2.5c0.6,0.8,1.5,1.3,2.5,1.9c-1.7,0-3.2-0.4-4.6,0.3c1.9-0.4,3.8-0.1,5.6,0.3c0.9,0.2,1.9,0.6,2.8,0.8
		c5,1.2,9.9,0.8,14.8-0.5c0.6-0.2,1.1-0.3,1.6-0.5c1-0.4,1.9-0.1,2.5,0.7c0,0,0.1,0.1,0.1,0.1c0.8,0.9,1.4,2,2,2.9
		c0.8,1.1,1.7,2.2,2.8,3.1c-2.1,0.4-3.7,1.6-5.2,2.8c-0.1,0.1-0.2,0.2-0.3,0.3c-1.2,1.1-2.4,2.1-3.7,3.1c0,0.2-0.1,0.5,0.3,0.5
		c0.1-0.1,0.2-0.2,0.4-0.3c1.8-1.4,3.4-3,5.3-4.2c1.8-1.1,3.7-1.6,5.8-1.2C95.5,45.6,96.6,45.8,97.8,46z"/>
	<path fill="#544227" d="M46.6,65.7c0.1-0.4,0.2-0.7,0.3-1.1c0.3,0,0.2,0.4,0.5,0.5c1.1-0.7,2.2-1.3,3.2-2c0.4-0.6,0.9-1.1,0.9-1.9
		c-1.2,0.6-2.3,1.4-3.4,2.2c-1.1,0.8-2.2,1.5-3.4,2c-0.1,0.1-0.3,0.1-0.5,0.1c-0.5,0.2-1,0.5-1.7,0.3c-0.1,0.1-0.1,0.1-0.2,0.2
		c-2.8,0.6-5.7,0.6-8.6,0.5c-1.4-0.1-2.1-1-2.6-2.2c-0.2-0.4-0.2-0.9-0.3-1.4c0-0.5-0.1-1,0.7-0.9c0.2,0,0.4-0.1,0.6-0.2
		c1.1-0.7,1.9-1.7,2.4-2.9l0,0c-0.6,0.7-1.1,1.3-1.7,2c-0.3,0.3-0.6,0.6-1.1,0.7c-0.3,0-0.8,0.2-0.9-0.1c-0.1-0.3-0.1-0.8,0.3-1.1
		c0.2-0.2,0.4-0.4,0.7-0.6c1.3-1.1,1.9-2.5,1.6-4.4c-0.1,0.7-0.2,1.2-0.3,1.7c-0.3,0-0.2-0.5-0.6-0.4c0.8,1.6-0.5,2.1-1.5,3.2
		c0.1-1.4,0.3-2.6-0.7-3.6c0,0-0.1,0.1-0.1,0.1c1,1.4,0.6,2.9,0.2,4.4c0,0.1-0.1,0.1-0.1,0.2c0.1,0.6-0.1,1.1-0.1,1.6
		c0,1.5,0.5,2.7,1.6,3.9c-1.4,0-2.6,0.2-3.9-0.4c-2.1-1-3.9-2.3-5.5-3.9c-0.6-0.6-1.4-1-1.7-1.9c-0.2-0.6-0.3-1.1-0.3-1.9
		c-0.4,0.8-0.2,1.4-0.1,2.1c0.1,0,0.1,0,0.1,0.1c0,0-0.1,0-0.2,0c-0.7-0.4-1.5-0.7-2.4-0.9c0,0.1,0,0.1-0.1,0.1
		c0.1,0.2,0.3,0.2,0.5,0.3c0,0,0.1,0.1,0.1,0.1c1.6,0.5,2.9,1.6,4.1,2.8c0.7,0.6,1.3,1.3,1.9,1.9c0.1,0.1,0.2,0.2,0.1,0.4
		c0,0,0,0.1,0,0.1c0.2,0,0.3-0.1,0.5,0c0.8,0.6,1.8,1,2.8,1.6c-3,0.5-5.6,1.6-8.1,3c-0.2,0.1-0.4,0.2-0.6,0.1
		c-0.9-0.3-1.8-0.5-2.8-0.5c-0.1,0-0.3,0-0.3-0.2c0,0,0,0,0,0c-0.3,0.6-1,0.1-1.3,0.6c1.5,0,2.9-0.2,4.3,0.5
		c-0.9,0.9-1.9,1.6-2.5,2.7c0.1,0,0.1,0,0.2,0c0.7-0.7,1.4-1.5,2.3-2c0.1-0.3,0-0.8,0.6-0.5c0.5-0.3,1-0.6,1.6-1
		c0.1,0.5-0.1,1,0.2,1.5c0.1,0,0.1-0.1,0.2-0.1c-0.2-1.3,0-1.5,1.1-2c1.1-0.5,2.2-0.8,3.7-1.1c-1.5,1.5-1.8,3.3-2.2,5
		c-0.2,0.8-0.6,1.5-1.1,2.1c-0.1,0.2-0.4,0.3-0.3,0.6l0,0c1-0.9,1.4-2,1.8-3.2c0.2-0.5,0.3-1,0.5-1.7c0.4,1.2,1.4,1.9,1.1,3.2
		c0.4-0.9,0.4-1-0.1-1.8c-1-1.6-0.6-3.2,1-4.2c0.2-0.1,0.4-0.1,0.6-0.2c2.1-0.3,4.2-0.3,6.3-0.2c0.2,0,0.4,0.1,0.5,0.2
		c0.4-0.7,0.8-0.2,1.3-0.1c3.1,0.2,6.2-0.1,9.2-0.9C45.6,66.1,46,65.7,46.6,65.7z"/>
	<path fill="#67BD45" d="M50.1,44.9c0-0.1-0.1-0.3,0.1-0.3c-1-0.5-1.1-1.3-1.2-2.3c-0.5-3.5-3-6.4-7.3-6.4c-0.4,0-0.8,0-0.7,0.6
		c0.3,1.9,0.7,3.8,2.1,5.4c1,1.2,2.3,2,3.9,2.1C48.2,43.9,49.2,44.2,50.1,44.9z"/>
	<path fill="#67BD45" d="M86.9,79.3c0,0.2-0.1,0.3-0.2,0.4c0.5,0.8,0.5,1.5,0.2,2.4c-0.7,2.4-0.4,4.8,1.2,6.8
		c0.8,1.1,1.9,1.7,3.2,2.2c0.4,0.2,0.6,0,0.7-0.4c0.6-2.2,0.8-4.4-0.2-6.6c-0.6-1.2-1.5-2.2-2.8-2.7C88,81,87.2,80.4,86.9,79.3z"/>
	<path fill="#67BD45" d="M57.9,45.9L57.9,45.9c0.1,0,0.1,0,0.1,0c0.5-1,1.6-1.5,2-2.6c1.4,2.2,3.2,2.9,5.6,2.4
		c0.3-0.1,0.5-0.1,0.8,0.1c0.1,0,0.2,0,0.2,0c-0.3-0.3-0.6-0.7-0.7-1.2c-0.7-1.9-2.3-2.9-4.3-2.9c-0.2,0-0.5,0-0.7,0
		c-0.4,0.1-0.5-0.1-0.4-0.4c0.1-1.2-0.4-2.1-1-3.1c-0.2-0.3-0.3-0.4-0.6-0.1c-1.7,1.5-3,3.8-1.9,6.2C57.3,44.8,57.7,45.3,57.9,45.9z
		"/>
	<path fill="#67BD45" d="M113.7,110.1c-0.1,0.1-0.1,0.2-0.1,0.2c0.7,0.9,0.2,1.7,0,2.6c-0.6,3.2,1.2,6.4,4.2,7.3
		c0.3,0.1,0.6,0.2,0.7-0.2c0.5-2.2,0.7-4.4-0.6-6.4c-0.4-0.7-1-1.2-1.7-1.6C115.3,111.5,114.2,111.1,113.7,110.1z"/>
	<path fill="#67BD45" d="M107,37.8c0.2,0,0.1,0.2,0.1,0.3c0.2-0.5,0.6-0.8,1-1c2.4-1.4,4.6-4.8,2.8-8.5c-0.2-0.4-0.3-0.8-0.9-0.4
		c-1.5,1.1-3,2.3-3.6,4.2c-0.4,1.3-0.4,2.6,0.1,3.8C106.8,36.6,107,37.2,107,37.8z"/>
	<path fill="#67BD45" d="M79.9,78c-0.1,0-0.2,0-0.2,0c-0.2,0.4-0.6,0.7-1.1,0.8c-2.5,0.8-4.2,2.5-4.8,5.1c-0.2,1-0.1,1.9,0.2,2.9
		c0.1,0.4,0.3,0.5,0.6,0.3c2-0.8,3.8-1.8,4.8-3.8c0.5-1.1,0.6-2.1,0.4-3.3C79.7,79.3,79.6,78.6,79.9,78z"/>
	<path fill="#67BD45" d="M75.9,74.7c0.5,0.1,1.2,0.1,1.8,0.1c0.4,0,0.6-0.2,0.5-0.6c-0.5-2-1.1-3.9-2.8-5.2c-1-0.7-2-1-3.2-1
		c-0.1,0-0.2,0-0.4,0c-0.5,0.1-1.1-0.4-1.3,0c-0.2,0.3,0.1,0.9,0.2,1.3C71.1,72,73.2,74.3,75.9,74.7z"/>
	<path fill="#67BD45" d="M106.2,99.8c0-0.2,0.1-0.5-0.2-0.5c-0.4,0.3-0.8,0.3-1.3,0.1c-3.3-1.7-7.2-0.5-8.8,2.7
		c-0.2,0.4-0.2,0.7,0.2,0.8c2.2,0.7,4.5,1.3,6.7,0.1c0.9-0.5,1.4-1.2,1.9-1.9c0.3-0.4,0.4-1,1.1-1c0.1,0,0.2,0,0.2,0
		C106.1,99.9,106.2,99.8,106.2,99.8z"/>
	<path fill="#67BD45" d="M42,54.9c-0.5-0.4-0.6-0.9-0.7-1.5c-0.6-3.4-3-5.5-6.5-5.3c-0.4,0-0.6,0.2-0.5,0.6c0.4,1.9,1,3.6,2.6,4.9
		c0.9,0.7,1.9,1,3,1c0.7,0,1.4,0.1,2,0.4C41.9,55,42,55,42,54.9z"/>
	<path fill="#67BD45" d="M108.1,91.9c0-0.3,0.3-0.6,0.3-0.9c-0.4,0-0.8,0-1.2-0.1c-3.2-1-6.6,0.8-7.5,4c-0.1,0.4-0.1,0.6,0.3,0.6
		c2,0.4,3.9,0.5,5.7-0.7c0.8-0.5,1.4-1.2,1.8-2C107.6,92.5,107.6,92,108.1,91.9z"/>
	<path fill="#544227" d="M78.4,64.1c0.1-0.4,0.3-0.8,0.2-1.2c-2.1-0.2-4.2-0.8-6.2-1.5c-4-1.3-7.9-2.7-12.2-2.6
		c-0.5,0.1-0.8,0.6-1.3,0.8c0.1,0.1,0.1,0.1,0.2,0.2c0.5,0,1,0,1.5,0c0.1,0.1,0.2,0.1,0.4,0.2c0.2-0.2,0.5-0.1,0.8-0.1
		c1.9,0.2,3.9,0.5,5.8,1.2c-2.1,1.7-3.8,3.6-4,6.4c0,0,0,0,0,0c0.6-1.7,1.5-3.2,2.8-4.5c0.2-0.2,0.4-0.4,0.7-0.5
		c0.2,0.9,0.4,1.7,0.8,2.5c0.2,0.4,0,0.7-0.1,1c-0.3,0.9-0.5,1.8-0.4,2.7c0-0.1,0.1-0.1,0.1-0.2c0-1,0.3-1.8,0.6-2.8
		c0.7,0.6,0.8,1.5,1.9,1.8c-0.8-0.8-1.2-1.6-1.5-2.4c0,0,0-0.1,0-0.1c-0.5-0.8-0.6-1.8-0.8-2.8c-0.1-0.5,0.9-0.9,1.4-0.8
		c2.1,0.7,4.2,1.5,6.3,2.1C76.4,63.8,77.4,64,78.4,64.1z"/>
	<path fill="#67BD45" d="M99.3,34.3c-0.1-0.1-0.2-0.2-0.2-0.2c-0.6-0.1-0.8-0.6-1-1.1c-1.4-2.7-4.5-3.9-7.4-2.8
		c-0.8,0.3-0.8,0.4-0.3,1.1c0.9,1.4,2,2.7,3.7,3.3c1,0.4,2,0.4,3,0C97.7,34.3,98.5,34.2,99.3,34.3z"/>
	<path fill="#67BD45" d="M125.3,98.4c0,0.1,0,0.2,0,0.2c0.2,0.3,0.2,0.6,0.2,1c0,2.2,0.9,3.9,2.7,5.1c0.8,0.6,1.8,0.7,2.8,0.8
		c0.3,0,0.5,0,0.5-0.4c0.3-2.1-1.2-5-3.2-5.9c-0.5-0.2-1-0.3-1.6-0.4C126.2,98.8,125.7,98.7,125.3,98.4z"/>
	<path fill="#67BD45" d="M70.5,84.4c-0.4,0.7-1,0.9-1.7,1.1c-2.8,1-4.4,3.8-3.7,6.5c0.1,0.4,0.2,0.6,0.6,0.4
		c1.9-0.7,3.6-1.6,4.4-3.6c0.3-0.7,0.4-1.5,0.3-2.2C70.3,85.8,70.2,85.1,70.5,84.4z"/>
	<path fill="#67BD45" d="M30.3,56.4c0,0,0.1-0.1,0.1-0.1c-0.3-0.5-0.4-1-0.2-1.6c0.5-2.3-0.5-5.4-3.5-6.4c-0.9-0.3-1-0.3-1.1,0.6
		c-0.2,1.4-0.1,2.8,0.5,4.1c0.6,1.1,1.4,1.9,2.6,2.3C29.4,55.5,29.9,55.8,30.3,56.4z"/>
	<path fill="#67BD45" d="M108.1,96.1c-0.1,0.1-0.2,0.2-0.2,0.3c0.4,0.2,0.2,0.5,0.1,0.8c-0.7,1.7-0.6,3.4,0.2,5
		c0.6,1.2,1.6,1.9,2.8,2.4c0.2,0.1,0.4,0.1,0.5-0.2c0.7-2,0.8-4.9-1.2-6.6c-0.3-0.2-0.6-0.4-0.9-0.6
		C108.9,96.9,108.4,96.6,108.1,96.1z"/>
	<path fill="#67BD45" d="M67.6,68.6c0,0.1-0.1,0.1-0.1,0.2c0,0.4-0.3,0.7-0.5,0.9c-1.3,1.5-1.8,3.3-1.4,5.2c0.2,1,0.8,1.7,1.4,2.4
		c0.2,0.3,0.5,0.2,0.6,0c1.4-1.7,2.4-3.5,1.7-5.8c-0.2-0.5-0.4-1-0.8-1.4C68,69.6,67.7,69.1,67.6,68.6z"/>
	<path fill="#67BD45" d="M102.9,103.7c-0.5,0.5-1.1,0.5-1.8,0.5c-2.5,0-5,1.4-5.6,4.5c-0.1,0.6,0,0.9,0.7,0.8
		c1.3-0.1,2.6-0.2,3.8-0.9c1.1-0.7,1.9-1.7,2.1-3c0.1-0.7,0.4-1.3,1-1.8C103,103.8,102.9,103.7,102.9,103.7z"/>
	<path fill="#67BD45" d="M83.4,89.4c-1,1.7-1.4,3.4-0.8,5.3c0.4,1.4,1.4,2.3,2.6,3c0.3,0.2,0.5,0.1,0.6-0.2c0.7-1.9,1.2-3.8,0.1-5.8
		c-0.3-0.5-0.7-1-1.2-1.3C84.3,90.1,83.8,89.8,83.4,89.4z"/>
	<path fill="#67BD45" d="M44.1,48.4c-0.2-0.3-0.2-0.6-0.2-0.9c0.1-2.4-1.2-5.1-4.3-5.6c-0.9-0.2-1-0.1-0.9,0.8
		c0.1,1.5,0.4,2.9,1.4,4c0.6,0.6,1.2,1.1,2.1,1.3C42.7,48.2,43.4,48.3,44.1,48.4z"/>
	<path fill="#67BD45" d="M33.7,84.4c0.3-1-0.3-2-0.6-3.1c-0.1-0.3-0.3-0.2-0.5-0.1c-2.4,1.2-4.2,4-2.8,7.1c0.2,0.4,0.4,0.6,0.7,0.3
		C32,87.6,33.4,86.5,33.7,84.4z"/>
	<path fill="#67BD45" d="M52.7,82.1c0,0.7-0.4,1-0.8,1.5c-1.9,1.8-2,4.9-0.3,6.8c0.2,0.3,0.4,0.3,0.7,0.1c0.8-1,1.6-1.9,1.8-3.2
		c0.3-1.3,0-2.5-0.8-3.5C53,83.2,52.7,82.7,52.7,82.1z"/>
	<path fill="#67BD45" d="M68,37.4c0.1,0,0.1,0.1,0.2,0.1c0-0.6,0.6-0.9,0.9-1.2c1.7-1.7,1.9-4.6,0.5-6.5c-0.3-0.5-0.6-0.5-1-0.1
		c-1.1,1.2-2,2.6-1.9,4.3c0,0.8,0.3,1.5,0.7,2.1C67.6,36.5,67.9,36.9,68,37.4z"/>
	<path fill="#67BD45" d="M42.3,66.1c0.1-0.1,0.1-0.1,0.2-0.2c-0.4-0.3-0.4-0.9-0.6-1.3c-0.8-2.2-3.1-3.7-5.5-3.3
		c-0.6,0.1-0.8,0.3-0.5,0.9c0.5,1.1,0.9,2.1,1.8,2.9c1,0.9,2.2,1.2,3.5,1C41.6,65.9,42,65.8,42.3,66.1z"/>
	<path fill="#67BD45" d="M12.7,82.9c-0.4,0.6-1,0.7-1.5,0.9c-2.4,0.8-3.8,2.8-3.4,5.3c0.1,0.4,0.2,0.6,0.6,0.4
		c1.5-0.5,2.8-1.1,3.6-2.6c0.4-0.7,0.5-1.4,0.5-2.1C12.4,84.1,12.3,83.5,12.7,82.9z"/>
	<path fill="#67BD45" d="M119.5,100.3C119.5,100.4,119.5,100.4,119.5,100.3c0,0.5-0.2,0.8-0.4,1.2c-1.1,2.1-0.5,4.5,1.4,5.9
		c0.5,0.3,0.8,0.4,1-0.3c0.4-1.1,0.8-2.3,0.5-3.5c-0.2-0.9-0.7-1.7-1.4-2.2C120.2,101.1,119.8,100.7,119.5,100.3z"/>
	<path fill="#67BD45" d="M100.1,111.3c-0.2,0.7-0.7,0.9-1.2,1.1c-1.8,0.9-3.1,3.5-2.2,5.7c0.2,0.5,0.4,0.6,0.8,0.3
		c0.8-0.6,1.6-1.1,2.2-1.9c0.7-1,1-2.1,0.6-3.3C100.1,112.5,100,111.9,100.1,111.3z"/>
	<path fill="#67BD45" d="M63.6,67.5C63.6,67.5,63.5,67.4,63.6,67.5c-0.4,0.3-0.9,0.5-1.3,0.7c-2,0.9-3.4,3-2.7,5.4
		c0.1,0.3,0.2,0.5,0.5,0.4c1.2-0.6,2.4-1.2,3.1-2.4c0.4-0.8,0.6-1.6,0.4-2.5C63.5,68.4,63.4,68,63.6,67.5z"/>
	<path fill="#67BD45" d="M14.2,69.8c-1.3-1-2.6-1.7-4.2-1.5c-1.2,0.1-2.1,0.8-2.9,1.6c-0.2,0.2-0.2,0.4,0,0.6
		c1.6,1.1,3.8,1.9,5.7,0.5C13.3,70.5,13.7,70,14.2,69.8z"/>
	<path fill="#67BD45" d="M18.8,50.6c-0.6-0.1-1.4-0.3-1.8,0.1c-0.3,0.5,0.2,1.1,0.4,1.7c1,2,2.2,2.7,4.5,2.5c0.4,0,0.4-0.2,0.4-0.5
		C22,52.5,20.6,50.8,18.8,50.6z"/>
	<path fill="#67BD45" d="M104.4,105.2c0.1,0.7-0.4,1-0.7,1.3c-1.4,1.6-1.5,3.9-0.2,5.5c0.3,0.4,0.5,0.5,0.8,0
		c0.6-0.8,1.2-1.5,1.4-2.5c0.2-1.1,0.1-2.1-0.6-3C104.7,106.2,104.5,105.8,104.4,105.2z"/>
	<path fill="#67BD45" d="M125.1,109c0.3,0.4,0.2,0.8,0.2,1.2c-0.3,1.9,0.8,3.7,2.7,4.3c0.7,0.2,0.8,0.2,0.8-0.6c0-0.7,0-1.4-0.2-2.1
		c-0.4-1.1-1-1.9-2.1-2.2C125.9,109.5,125.5,109.4,125.1,109z"/>
	<path fill="#67BD45" d="M133.5,98.2c1.1,1.6,2.5,2.4,4.3,2.3c0.7-0.1,1.2-0.4,1.8-0.7c0.3-0.2,0.3-0.4,0.1-0.6
		c-1.3-1.3-2.8-2.3-4.9-1.5C134.4,97.9,134.2,98.4,133.5,98.2z"/>
	<path fill="#67BD45" d="M59.5,31.7c-0.2-0.4,0-0.7,0-1.1c0.3-2-0.8-3.8-2.6-4.5c-0.5-0.2-0.8-0.1-0.8,0.5c0,0.7-0.1,1.5,0.1,2.2
		C56.7,30.6,57.9,31.3,59.5,31.7z"/>
	<path fill="#67BD45" d="M100.5,34.1c0.1,0,0.1,0,0.2,0c-0.2-0.5,0-0.9,0.1-1.3c0.5-2.1-0.3-3.8-2.1-4.7c-0.5-0.2-0.7-0.1-0.8,0.3
		c-0.5,1.9-0.4,4.1,2,5.1C100.2,33.7,100.4,33.9,100.5,34.1z"/>
	<path fill="#67BD45" d="M124.9,85.3C124.9,85.3,124.9,85.4,124.9,85.3c0.2,0.4,0.4,0.7,0.5,1.1c0.5,1.8,2.2,2.9,4,2.8
		c0.6,0,0.7-0.3,0.5-0.8c-0.7-2-1.9-3.3-4.3-3C125.4,85.5,125.2,85.4,124.9,85.3z"/>
	<path fill="#67BD45" d="M41.8,55.3c-0.3,0.1-0.5,0-0.8-0.1c-1.9-0.6-3.9,0.3-4.7,2c-0.2,0.5-0.1,0.6,0.4,0.8
		c2.2,0.5,4.1-0.2,4.7-2.1C41.5,55.7,41.9,55.7,41.8,55.3C41.8,55.3,41.8,55.3,41.8,55.3z"/>
	<path fill="#67BD45" d="M17.9,59.6c0.1,0,0.1,0,0.1-0.1c-0.5-0.2-0.8-0.5-1-0.9c-1-2-3.3-1.9-5-1.3c-0.4,0.2-0.2,0.5,0,0.7
		c0.8,1.6,2.8,2.4,4.6,1.7C17,59.5,17.4,59.5,17.9,59.6z"/>
	<path fill="#67BD45" d="M78.3,76.8c-0.4,0-0.9,0-1.3-0.1c-1.9-0.5-3.7,0.4-4.4,2.1c-0.2,0.4-0.1,0.6,0.4,0.7c2,0.5,3.9,0,4.7-2
		C77.8,77.2,78.1,77,78.3,76.8L78.3,76.8z"/>
	<path fill="#67BD45" d="M102.2,74.1c0,0-0.1,0-0.1,0.1c0,0.5-0.4,0.7-0.7,1c-1.4,1.1-1.9,3-1.1,4.5c0.2,0.5,0.5,0.6,0.9,0.2
		c0.4-0.4,0.8-0.8,1.1-1.3c0.6-1,0.7-2,0.2-3C102.4,75.1,102.2,74.6,102.2,74.1z"/>
	<path fill="#67BD45" d="M26.1,75.7c-0.6,1-1,2.1-0.8,3.3c0.2,1,0.8,1.6,1.5,2.2c0.4,0.3,0.6,0,0.7-0.3
		C28.5,78.7,28.2,77.5,26.1,75.7z"/>
	<path fill="#67BD45" d="M69.1,79.2c-0.4,0.1-0.9,0.1-1.4,0.2c-1.5,0.2-2.8,1.6-2.9,3.1c-0.1,0.6,0.1,0.8,0.7,0.6
		c0.6-0.2,1.3-0.2,1.8-0.6c1-0.6,1.5-1.4,1.6-2.4C69,79.8,69,79.5,69.1,79.2z"/>
	<path fill="#67BD45" d="M30.4,60.9c0-0.1,0.1-0.1,0.1-0.2c-0.5-0.2-0.3-0.7-0.3-1c-0.4-1.5-1.5-2.6-3-2.9c-0.1,0-0.3,0-0.4,0
		c-0.6,0-0.8,0.1-0.5,0.7c0.2,0.4,0.2,0.9,0.4,1.3c0.5,1.1,1.3,1.8,2.6,1.9C29.6,60.8,30,60.9,30.4,60.9z"/>
	<path fill="#67BD45" d="M108.8,89.8c0.1-0.1,0.1-0.3,0.1-0.5c-0.5-0.1-0.5-0.5-0.6-0.9c-0.4-1.6-2.1-2.8-3.8-2.6
		c-0.6,0.1-0.7,0.2-0.5,0.8c0.8,2.2,1.7,2.7,4,2.7C108.5,89.3,108.9,89.3,108.8,89.8z"/>
	<path fill="#67BD45" d="M53.2,47.7c-0.7-0.7-1.5-1.2-2.5-1.4c-1.1-0.2-2,0.1-2.8,0.8c-0.4,0.3-0.4,0.5,0,0.8
		C49.7,49.2,51.3,49.5,53.2,47.7z"/>
	<path fill="#67BD45" d="M124.6,97.6C124.6,97.6,124.6,97.6,124.6,97.6c0.3,0,0.6,0.2,0.8,0.3c1.9,0.8,3.5-0.4,4.4-1.8
		c0.3-0.4-0.1-0.5-0.3-0.6c-1.5-0.7-3.2-0.2-4.3,1.2C125,97,124.8,97.3,124.6,97.6z"/>
	<path fill="#67BD45" d="M24.6,65C24.6,65,24.6,65,24.6,65c-1-0.5-2-0.8-3.1-0.6c-1,0.2-1.7,0.7-2.2,1.5c-0.3,0.4-0.2,0.6,0.3,0.8
		c1.9,0.7,3.8,0.4,4.7-1.3C24.4,65.3,24.5,65.2,24.6,65z"/>
	<path fill="#67BD45" d="M97.5,97.9c-1-0.5-2.1-0.9-3.3-0.6c-0.9,0.2-1.5,0.8-2,1.5c-0.3,0.4-0.1,0.6,0.3,0.8
		c1.8,0.7,3.7,0.6,4.7-1.2C97.3,98.2,97.4,98.1,97.5,97.9L97.5,97.9z"/>
	<path fill="#67BD45" d="M68.5,65c0,0,0,0.1,0,0.1c0.4,0,0.5,0.3,0.6,0.6c1.1,1.5,3.1,1.9,4.6,1.1c0.5-0.3,0.5-0.5,0.2-0.9
		c-1.5-1.7-3.1-2.1-4.7-1.2C68.9,65,68.7,65,68.5,65z"/>
	<path fill="#67BD45" d="M87.8,76.5c0.2,0.9,0.3,1.8,0.9,2.6c0.7,0.9,1.6,1.3,2.8,1.4c0.5,0,0.7-0.2,0.5-0.7c-0.5-2.2-1.4-3-3.6-3.3
		C88.2,76.6,88,76.6,87.8,76.5C87.8,76.5,87.8,76.5,87.8,76.5z"/>
	<path fill="#67BD45" d="M83.7,100.9c-0.3,1.8,0.6,3.5,2.2,4.1c0.5,0.2,0.8,0.2,0.8-0.5c0.2-1.6-0.6-3.5-2.3-4
		C83.8,100.3,83.7,100.5,83.7,100.9z"/>
	<path fill="#544227" d="M99.2,44.2c0.4,0,0.7-0.2,0.9-0.6c-0.7-0.9-1-2-1.4-3.1c-0.1-0.3-0.3-0.6-0.5-0.8c-0.7-0.8-1.3-1.6-1.8-2.6
		c-0.3-0.6-0.9-1-1.7-1.4c0.6,0.7,1.3,1.3,1.6,2.3c-1.6-0.5-3.2-0.5-4.7,0.2c0.4,0,0.7-0.1,1.1-0.1c0.4,0,0.8,0,1.2,0
		c2.2,0,3.5,1,4,3.1C98.3,42.3,98.6,43.3,99.2,44.2z"/>
	<path fill="#67BD45" d="M108.1,39.8c0.2,0.3,0.3,0.5,0.6,0.7c0.2-0.5,0.5-0.1,0.7-0.1c1.4,0.3,2.8-0.2,3.6-1.4
		c0.2-0.4,0.2-0.6-0.3-0.8c-1.5-0.6-3.5-0.3-4.1,1.2C108.5,39.6,108.3,39.8,108.1,39.8z"/>
	<path fill="#67BD45" d="M23,75.4c-1,0.9-1.6,1.7-1.7,2.9c-0.1,0.9,0.2,1.6,0.7,2.2c0.2,0.3,0.4,0.2,0.6,0c1.3-1.4,1.8-3.2,0.6-4.6
		C23.1,75.8,23,75.6,23,75.4z"/>
	<path fill="#67BD45" d="M111.6,126.2c0.1,0.4-0.1,0.6-0.3,0.8c-0.7,1.3-0.4,2.9,0.7,3.8c0.4,0.3,0.6,0.3,0.8-0.2
		c0.6-1.5,0.7-2.9-0.7-4C111.9,126.5,111.7,126.3,111.6,126.2z"/>
	<path fill="#67BD45" d="M43.3,56.1c-0.2,0.3-0.5,0.4-0.7,0.6c-1.2,0.9-1.6,2.4-1,3.6c0.2,0.5,0.4,0.5,0.8,0.2
		c1.4-1.2,1.9-2.5,1.1-3.8C43.4,56.5,43.4,56.3,43.3,56.1C43.4,56.1,43.4,56.1,43.3,56.1L43.3,56.1z"/>
	<path fill="#544227" d="M43.3,56.1L43.3,56.1C43.4,56.1,43.4,56.1,43.3,56.1c2.7,1,5.4,1.3,8.2,1.6c0.2-0.2,0.5-0.3,0.4-0.6
		c-1.6-0.1-3-0.5-4.1-1.8c-0.4-0.4-0.7-0.9-1.2-1.4c0.3,1.1,1.1,1.9,2,2.7c-2.3-0.1-4.6-0.6-6.6-1.8c0,0.1-0.1,0.1-0.1,0.2
		c0,0.1,0,0.2-0.1,0.3c0,0,0,0,0,0C42.4,55.4,42.9,55.7,43.3,56.1z"/>
	<path fill="#67BD45" d="M50.9,71.3c-0.4,0.7-0.7,1.4-0.7,2.3c0.1,0.8,0.8,1.9,1.3,2c0.3,0,0.7-1,0.8-1.8
		C52.4,72.6,51.7,71.9,50.9,71.3z"/>
	<path fill="#67BD45" d="M18.1,60.7c0.3-0.5,0-0.6-0.5-0.6c-1.3,0-2.5,1-2.7,2.2c-0.1,0.4,0,0.6,0.5,0.5
		C16.9,62.8,17.8,62.2,18.1,60.7z"/>
	<path fill="#67BD45" d="M125.6,83.1c-0.2,0.2-0.2,0.5-0.2,0.7c0.2-0.4,0.5-0.3,0.8-0.1c1.1,0.5,2.3-0.1,3.1-1.2
		c0.2-0.4,0-0.5-0.3-0.6c-1-0.4-2.1-0.1-2.9,0.8C126,82.8,126,83.2,125.6,83.1z"/>
	<path fill="#67BD45" d="M123.2,96.7c1.6-0.7,2.4-1.7,2.2-3c-0.1-0.6-0.3-0.8-0.9-0.5C123.2,94,122.9,94.8,123.2,96.7z"/>
	<path fill="#67BD45" d="M63.4,74.7c-0.4,0.3-0.9,0.5-1.3,0.9c-0.7,0.8-0.8,1.6-0.6,2.6c0.1,0.4,0.3,0.5,0.6,0.2
		c1.2-0.7,1.9-1.9,1.4-3.3C63.4,75,63.4,74.8,63.4,74.7z"/>
	<path fill="#67BD45" d="M137.1,114.2c0,0.7-0.1,1.5,0.3,2.2c0.4,0.6,1.5,1.5,1.8,1.2c0.5-0.5,0.2-1.2,0-1.8
		c-0.2-0.6-0.6-1.1-1.3-1.3C137.6,114.4,137.3,114.3,137.1,114.2z"/>
	<path fill="#67BD45" d="M45.1,49.4c0.2,0.3,0.4,0.5,0.7,0.6c1-1.6,1-2.4,0.2-3.6c-0.3-0.4-0.5-0.4-0.8,0c-0.4,0.6-0.5,1.3-0.4,2
		c0,0.2,0.3,0.4,0,0.6c0,0,0,0,0,0c0.1,0,0.1-0.1,0.2,0c0.1,0.1,0,0.1,0,0.2c0,0,0,0,0,0c0.1-0.1,0.2,0,0.2,0
		C45.2,49.3,45.2,49.4,45.1,49.4z"/>
	<path fill="#67BD45" d="M106.4,115.2c-0.2,0.2-0.5,0.2-0.8,0.3c-1.1,0.3-1.8,1.3-1.8,2.3c0,0.4,0.2,0.5,0.6,0.4
		c1.3-0.3,1.9-1,2-2.4C106.3,115.6,106.3,115.5,106.4,115.2z"/>
	<path fill="#67BD45" d="M5.5,76.6c-1.5-0.3-2.7,0.2-3.2,1.5c-0.2,0.5-0.1,0.7,0.5,0.7C4.3,78.8,5,78.3,5.5,76.6z"/>
	<path fill="#67BD45" d="M87,38.2c0,0-0.1-0.1-0.1-0.1c-0.3,0.2-0.6,0.1-0.9,0.1c-1,0.1-2,1.2-2,2.2c0,0.3,0.1,0.4,0.4,0.4
		c1.1,0.1,2.1-0.8,2.4-1.9C86.9,38.6,87,38.4,87,38.2z"/>
	<path fill="#67BD45" d="M81.5,89.4c-0.7,0.3-1.5,0.7-1.8,1.5c-0.3,0.7-0.4,1.8,0,1.9c0.6,0.1,1.1-0.4,1.5-0.8
		c0.5-0.5,0.6-1.1,0.5-1.8C81.6,89.9,81.5,89.6,81.5,89.4z"/>
	<path fill="#67BD45" d="M16.9,89.3c-0.3,0.5-0.5,1-0.6,1.6c-0.1,0.8,0.2,1.5,0.8,2c0.3,0.2,0.4,0.1,0.6-0.1
		C18.5,91.6,18.2,90.2,16.9,89.3L16.9,89.3z"/>
	<path fill="#67BD45" d="M35.1,91.9c0.2-1.2-0.3-2.2-1.2-2.6c-0.3-0.1-0.4-0.1-0.5,0.2c-0.4,0.9-0.2,2.1,0.5,2.7
		c0.2,0.2,0.5,0.6,0.9,0.5C35.1,92.6,35,92.1,35.1,91.9z"/>
	<path fill="#67BD45" d="M81.8,106c-0.5,0.4-0.9,1-1,1.7c-0.1,0.5,0,1,0.3,1.4c0.3,0.4,0.5,0.4,0.8,0C82.8,108,82.7,107,81.8,106z"
		/>
	<path fill="#67BD45" d="M44.1,65.5c0.2,0,0.4,0,0.5-0.1c-0.1-0.4,0.2-0.7,0.3-1.1c0-0.7-0.3-1.2-0.7-1.7c-0.1-0.1-0.2-0.1-0.4,0.1
		c-0.5,0.5-0.5,1.1-0.4,1.7C43.6,64.9,43.9,65.2,44.1,65.5z"/>
	<path fill="#67BD45" d="M16.1,69C16.1,69,16.1,69,16.1,69c-0.1-1.6-0.4-2-1.5-2.4c-0.5-0.2-0.5,0-0.5,0.4
		C14.1,68,14.8,68.9,16.1,69z"/>
	<path fill="#67BD45" d="M12.7,92.1c-1.2,0.4-1.6,1.1-1.5,2c0,0.4,0.2,0.5,0.6,0.3C12.5,94,12.8,93.4,12.7,92.1z"/>
	<path fill="#544227" d="M102.9,103.7c0.1,0,0.1,0,0.2,0.1c1.4-0.8,2.2-2.1,3-3.4c0.1-0.1,0-0.3,0-0.4c-0.1,0-0.2,0-0.2,0
		c-0.4,0.3-0.5,0.8-0.8,1.1C104.4,102,103.6,102.8,102.9,103.7z"/>
	<path fill="#544227" d="M21.4,70.8c0,0.2,0.1,0.3,0.2,0.4c0.2-0.2,0-0.3,0-0.5C21.5,70.7,21.5,70.8,21.4,70.8z"/>
	<path fill="#67BD45" d="M79,76.5c0,0-0.1-0.1-0.1-0.1c-0.1,0-0.2,0-0.3,0.1c0,0,0,0,0.1,0.1C78.8,76.6,78.9,76.6,79,76.5z"/>
	<path fill="#67BD45" d="M97.5,97.9c0.2,0,0.3,0,0.4-0.2C97.7,97.7,97.6,97.7,97.5,97.9C97.5,97.9,97.5,97.9,97.5,97.9z"/>
	<polygon fill="#544227" points="91.5,38.1 91.5,38.2 91.5,38.1 	"/>
	<path fill="#67BD45" d="M16.9,89.3c0-0.1,0-0.1,0-0.2c0,0,0,0,0,0C16.9,89.3,16.9,89.3,16.9,89.3C16.9,89.3,16.9,89.3,16.9,89.3z"
		/>
	<path fill="#67BD45" d="M18.5,60c0,0-0.1-0.1-0.1-0.1C18.4,59.9,18.4,60,18.5,60z"/>
	<polygon fill="#544227" points="34.5,58.9 34.5,58.9 34.5,58.9 	"/>
	<path fill="#544227" d="M22.8,75.3C22.8,75.3,22.7,75.3,22.8,75.3C22.7,75.3,22.7,75.3,22.8,75.3C22.8,75.3,22.8,75.3,22.8,75.3
		C22.8,75.3,22.8,75.3,22.8,75.3z"/>
	<path fill="#67BD45" d="M78.3,76.8c0.1,0,0.1-0.1,0.2-0.1l0,0C78.4,76.7,78.2,76.6,78.3,76.8C78.3,76.8,78.3,76.8,78.3,76.8z"/>
	<path fill="#67BD45" d="M78.5,76.7c0.1,0,0.2,0,0.2-0.1c0,0,0,0-0.1-0.1C78.5,76.5,78.5,76.5,78.5,76.7
		C78.5,76.7,78.5,76.7,78.5,76.7z"/>
	<path fill="#67BD45" d="M107.7,55.3c-0.2,0.1-0.4,0.2-0.7,0.4c0-0.7-0.4-0.6-0.9-0.5c-2.2,0.6-3.1,1.3-4.4,3.1
		c-0.4-0.5-0.6-1-1.1-1.4c-0.4-0.3-0.6-0.3-0.8,0.2c-0.8,1.6-0.9,3.5,0.7,4.7c0.2,0.2,0.3,0.4,0.4,0.6c0.1,0,0.2-0.1,0.4-0.1
		c0.3-0.3,0.5-0.5,0.9-0.5c0.6-0.1,0.9,0,0.6,0.6c0,0.2,0,0.3-0.1,0.4c0,1.4,0.3,2.7,1,3.9c0.3,0.5,0.5,1,0.5,1.5c0,0.1,0,0.2,0,0.4
		c0,0.3-0.3,0.6,0,0.7c0.4,0.1,0.2-0.4,0.4-0.6c0-0.3,0-0.6,0.2-0.7c0.9-0.5,1.6-1.3,2.5-1.8c0-0.2,0-0.4,0.3-0.4
		c0.1-0.3,0.3-0.7,0.7-0.8c-0.1-0.3,0-0.5,0.3-0.6c0-0.6,0.4-1.2,0.6-1.7c0.9-2.6,0.4-5-1-7.2C108,55.5,107.9,55.3,107.7,55.3z"/>
	<path fill="#67BD45" d="M123.5,60.2c0.4-0.4,0.8-0.4,1.3-0.4c2.6-0.1,5.3-1.8,5.5-5.3c0-0.5-0.1-0.7-0.7-0.6
		c-2.1,0.2-3.9,0.8-5.1,2.8c-0.4,0.7-0.5,1.4-0.6,2.1c-0.1,0.4,0.1,0.9-0.5,1.1C123.3,60,123.4,60.1,123.5,60.2z"/>
	<path fill="#67BD45" d="M86.4,66.6c0-0.4,0.3-0.2,0.5-0.2c1.7,0.3,3-0.3,4.2-1.5c0.3-0.4,0.7-0.6,1.1-0.8c0-0.1,0-0.1,0-0.2
		c-0.5,0.1-0.8-0.2-1.1-0.4c-1.9-1.4-5.2-2-7.5,0.6c-0.4,0.5-0.4,0.8,0.1,1.1c0.7,0.4,1.4,0.7,2.1,1.1
		C86.1,66.2,86.2,66.5,86.4,66.6z"/>
	<path fill="#67BD45" d="M111.7,55.9c0.3,0,0.7,0,1-0.1c2.5-0.8,4.1,0.7,5,2.3c0.2,0.3,0.1,0.6-0.2,0.7c-1.1,0.4-2.2,0.5-3.3-0.2
		c-0.3-0.2-0.5-0.4-0.9-0.5c0,0.2-0.1,0.4-0.1,0.5c0.1,0.9-0.2,1.8-0.6,2.6c-0.3,0.5-0.5,0.5-0.9,0.1c-1.2-1.1-1.4-3-0.4-4.4
		c0.2-0.3,0.3-0.5,0.3-0.8C111.6,56,111.6,55.9,111.7,55.9z"/>
	<path fill="#67BD45" d="M101.5,68.1c-0.3,0.1-0.5-0.1-0.7-0.3c-1.8-1.2-4-1.2-5.6,0c-1.5,1.1-1.5,1.5,0.2,2.2
		c1.8,0.8,4.1,0.7,5.4-1.1c0.2-0.3,0.5-0.4,0.7-0.6C101.5,68.2,101.5,68.1,101.5,68.1z"/>
	<path fill="#67BD45" d="M122.5,62c-0.5,0.2-0.7-0.2-1-0.4c-1.5-1.5-3.4-1.7-5.1-0.6c-0.7,0.4-0.7,0.5-0.1,1.1
		c1.1,1,2.4,1.6,3.9,1.2c0.5-0.1,0.9-0.4,1.2-0.7c0.3-0.2,0.7-0.4,1.1-0.3C122.6,62.2,122.6,62.1,122.5,62z"/>
	<path fill="#67BD45" d="M87.7,52.7c0.1-0.2,0.3-0.4,0.4-0.6c0.9-0.8,1-2.1,0.4-3.2c-0.2-0.3-0.3-0.2-0.5,0
		c-0.8,0.6-1.1,1.7-0.8,2.7C87.3,52,87.5,52.4,87.7,52.7C87.7,52.7,87.7,52.7,87.7,52.7z"/>
	<path fill="#67BD45" d="M45.1,49.4c0.1,0,0.1-0.1,0.1-0.2c0-0.1-0.1-0.2-0.2,0C45,49.3,45,49.3,45.1,49.4z"/>
	<path fill="#67BD45" d="M45,49.2c0-0.1,0.1-0.1,0-0.2c-0.1-0.1-0.1,0-0.2,0C44.8,49.2,44.9,49.2,45,49.2z"/>
	<path fill="#544227" d="M77.7,53.2c-0.7,0.2-1.3,0.3-2,0.5c0.9,0.2,1.7,0,2.6-0.3C78.1,53.2,77.9,53.1,77.7,53.2z"/>
	<path fill="#67BD45" d="M121.9,57.2c0.6,0.4,0.6,0,0.7-0.5c0-2.2-1.3-3.6-3-3.8c-0.5-0.1-0.7,0.1-0.6,0.5c0.1,0.7,0.1,1.3,0.4,2
		C119.9,56.5,120.7,57.1,121.9,57.2z"/>
	<path fill="#67BD45" d="M116.7,54.6c0.1-1.7-0.7-2.9-2.1-3.1c-0.5-0.1-0.6,0.1-0.6,0.5C114.1,53.7,115,54.6,116.7,54.6z"/>
	<path fill="#544227" d="M122.7,50.1c0,0-0.1-0.1-0.1-0.1c0,0.1,0,0.1,0,0.2C122.6,50.1,122.7,50.1,122.7,50.1z"/>
	<path fill="#544227" d="M102.6,62.9c0.1-0.1,0.1-0.3,0.1-0.4c-0.5-0.1-1,0.3-1.5-0.1c-0.1,0-0.2,0.1-0.4,0.1
		c-1.2,0-2.2-0.4-2.9-1.5c0,0.7,0.4,1.1,0.8,1.3c0.8,0.5,1.7,0.6,2.7,0.6C101.8,62.9,102.2,62.9,102.6,62.9z"/>
	<path fill="#544227" d="M89.6,61.2c-0.1-0.1-0.1-0.2-0.2-0.1c-0.1,0.1,0,0.2,0.1,0.2C89.5,61.2,89.5,61.2,89.6,61.2z"/>
	<path fill="#544227" d="M85.4,71c-0.1,0-0.1-0.1-0.2-0.1c0,0,0,0,0,0.1C85.3,71,85.4,71,85.4,71C85.4,71,85.4,71,85.4,71z"/>
</g>
</svg>
