<!-- Generator: Adobe Illustrator 22.1.0, SVG Export Plug-In . SVG Version: 6.00 Build 0)  -->
<svg version="1.1" id="Calque_1" xmlns="http://www.w3.org/2000/svg" xmlns:xlink="http://www.w3.org/1999/xlink" x="0px" y="0px"
	 width="100%" viewBox="0 0 150 150" enable-background="new 0 0 150 150" xml:space="preserve">
<path fill="#67BD45" d="M138,150H12.3c-6.6,0-12-5.4-12-12V12.3c0-6.6,5.4-12,12-12H138c6.6,0,12,5.4,12,12V138
	C150,144.6,144.6,150,138,150z"/>
<g>
	<path fill="#FFFFFF" d="M57.4,131.6c0,0.5,0,1,0,1.5c0,10.5,0,10.4-10.7,9.9c-2-0.1-2.5-0.7-2.4-2.6c0.1-5.8-0.1-11.7,0.1-17.5
		c0.1-2.3-0.5-2.9-2.9-2.4c-11.7,2.3-21.4-8-18.5-19.6c0.5-1.9,0-2.7-1.5-3.7c-5.6-3.7-8.1-8.9-7.1-15.6c1-6.7,5-11,11.3-12.8
		c2.5-0.7,2.5-2,2.6-3.9c0.8-11.7,9.6-21.8,20.2-23.1c8.9-1.2,17.8,4.4,22.1,14.1c1,2.2,2,3.2,4.6,3.6c12.4,1.9,17.7,16,9.8,25.6
		c-1.3,1.6-1.6,2.3-0.1,4.1c4.7,5.5,5.1,12.7,1.4,18.6c-3.7,5.8-10.6,8.6-17.4,6.8c-1.9-0.5-2.9,0.3-4.4,1
		C57,118.8,56.4,124.8,57.4,131.6z"/>
	<path fill="#FFFFFF" d="M115.3,130.7c-1.1,0.1-2.5-0.8-4.4-0.1c-4.4,1.7-4.1,5-4,8.5c0.1,4.5-1.7,5.8-6.1,4.6
		c-0.9-0.2-1.2-0.6-1.3-1.4c0-1.1-0.1-2.2,0-3.3c0.4-3.5,0.2-5.8-4.6-5.7c-4,0.1-7.1-4.8-6.5-9.1c0.3-2,0-3.2-1.6-4.6
		c-3.1-2.6-3-3.5,0.2-6.3c3.7-3.3,5.8-7.4,6.1-12.4c0.3-5.6,2.7-8.9,7.8-10.4c4.6-1.4,9.5,0.2,12.4,4.7c1.7,2.6,3.4,4.4,6.6,5.5
		c4.9,1.6,6.6,7.6,4,12.1c-1,1.7-1.4,2.8-0.1,4.7c1.9,2.8,1.5,6.1-0.3,9C121.7,129.3,119.1,130.6,115.3,130.7z"/>
	<path fill="#FFFFFF" d="M124.6,47.9c-0.1,7.6-6.1,13.5-13.8,13.4c-7.5-0.1-13.3-6-13.3-13.5c0-7.6,6-13.6,13.6-13.6
		C118.7,34.2,124.6,40.3,124.6,47.9z"/>
	<path fill="#FFFFFF" d="M109.3,26.8c0.4-1.6-0.9-4.5,1.5-4.5c2.7,0,1.6,3,1.6,4.7c0,1.6,0.9,4.5-1.4,4.5
		C108.4,31.5,109.8,28.5,109.3,26.8z"/>
	<path fill="#FFFFFF" d="M89.9,49.4c-0.5,0-1,0-1.5,0c-1.3,0-3.1,0.2-3.1-1.6c0-1.8,1.9-1.5,3.2-1.5c1.3,0,2.7,0,4,0
		c1,0,2.1,0.2,2.2,1.4c0.1,1.5-1.1,1.7-2.3,1.7C91.6,49.4,90.8,49.4,89.9,49.4z"/>
	<path fill="#FFFFFF" d="M112.8,68.6c-0.6,1.8,0.8,4.7-1.7,4.7c-2.7,0.1-1.6-2.8-1.5-4.4c0-1.7-1.3-4.7,1.6-4.7
		C113.7,64.3,111.9,67.3,112.8,68.6z"/>
	<path fill="#FFFFFF" d="M131.6,49.4c-0.6,0-1.2,0-1.8,0c-1.3,0-2.7-0.1-2.6-1.7c0-1.3,1.4-1.5,2.5-1.5c1.4,0,2.9,0,4.3,0
		c1.2,0,2.7,0.1,2.6,1.7c0,1.3-1.3,1.5-2.5,1.5C133.3,49.4,132.4,49.4,131.6,49.4z"/>
	<path fill="#FFFFFF" d="M124.5,27.4c-1.2,1.9-2.5,4.1-4,6.3c-0.4,0.6-1.1,0.4-1.6-0.1c-0.4-0.4-0.8-0.9-0.4-1.6c1.1-2,2.2-4,3.4-6
		c0.3-0.6,1-0.7,1.6-0.5C124.1,25.7,124.5,26.2,124.5,27.4z"/>
	<path fill="#FFFFFF" d="M103.8,32.7c-0.4,0.5-0.6,1-0.9,1.2c-0.6,0.4-1.2,0.2-1.6-0.4c-1.2-2-2.4-4.1-3.6-6.2
		c-0.3-0.5,0-1.3,0.5-1.5c0.4-0.2,1.1-0.3,1.3,0C101.5,27.7,102.6,30.2,103.8,32.7z"/>
	<path fill="#FFFFFF" d="M97.3,39c-0.3,1.1-0.9,1.9-2,1.3c-2-1-4-2.2-6-3.4c-0.7-0.4-0.7-1.3-0.3-2c0.3-0.6,1-0.8,1.5-0.5
		c2.1,1.2,4.2,2.4,6.2,3.7C97,38.2,97.1,38.7,97.3,39z"/>
	<path fill="#FFFFFF" d="M133.4,35.8c-0.5,1.7-2.2,2.1-3.5,2.8c-1.5,0.7-3.3,3.2-4.5,1.2c-1.4-2.4,2-2.5,3.2-3.6
		c0.8-0.7,1.8-1.2,2.8-1.6C132.5,34,133.2,34.6,133.4,35.8z"/>
	<path fill="#FFFFFF" d="M133.3,59.8c0.1,1.1-0.6,1.7-1.5,1.4c-2.4-0.8-4.5-2.2-6.5-3.7c-0.9-0.7-0.5-1.5,0.3-2
		C126.7,54.8,133.2,58.4,133.3,59.8z"/>
	<path fill="#FFFFFF" d="M124.4,67.9c0.1,1.1-0.1,1.6-0.7,1.9c-0.6,0.3-1.3,0.3-1.6-0.3c-1.3-2-2.4-4.1-3.6-6.2
		c-0.4-0.6,0.1-1.2,0.5-1.6c0.5-0.5,1.2-0.5,1.6,0.1C121.9,64,123.2,66.1,124.4,67.9z"/>
	<path fill="#FFFFFF" d="M99,70.2c-1.2-0.2-1.7-0.9-1.2-1.8c1.1-2.1,2.4-4.2,3.7-6.3c0.2-0.3,0.9-0.4,1.3-0.3c0.7,0.1,1,0.8,0.8,1.4
		c-0.8,2.4-2.1,4.6-3.7,6.6C99.7,70,99.2,70.1,99,70.2z"/>
	<path fill="#FFFFFF" d="M90.8,61.2c-1.2,0.1-1.7,0-2-0.6c-0.3-0.6-0.1-1.3,0.4-1.6c1.9-1.2,3.9-2.4,5.9-3.4
		c0.7-0.4,1.4-0.3,1.8,0.6c0.3,0.6,0.1,1.3-0.4,1.6C94.5,59,92.4,60.2,90.8,61.2z"/>
</g>
</svg>
