<?xml version="1.0" encoding="utf-8"?>
<!-- Generator: Adobe Illustrator 22.1.0, SVG Export Plug-In . SVG Version: 6.00 Build 0)  -->
<svg version="1.1" id="Calque_1" xmlns="http://www.w3.org/2000/svg" xmlns:xlink="http://www.w3.org/1999/xlink" x="0px" y="0px"
	 width="100%" viewBox="0 0 150 150" enable-background="new 0 0 150 150" xml:space="preserve">
<path fill="#67BD45" d="M138,149.6H12.2c-6.6,0-12-5.4-12-12V11.9c0-6.6,5.4-12,12-12H138c6.6,0,12,5.4,12,12v125.8
	C150,144.2,144.6,149.6,138,149.6z"/>
<g>
	<path fill="#FFFFFF" d="M29.1,119.8c0-7.2,0-14.5,0-21.7c0-1.5,0.4-2.6,1.5-3.6c13.7-13.7,27.4-27.4,41.1-41
		c2.6-2.6,4.4-2.5,7.1,0.1c13.7,13.7,27.4,27.4,41.1,41c1,1,1.4,2,1.4,3.4c0,14.6,0,29.2,0,43.8c0,1.7-0.4,2.4-2.3,2.4
		c-9.7-0.1-19.4-0.1-29.2,0c-1.9,0-2.5-0.5-2.5-2.5c0.1-10,0-20,0.1-30c0-2.4-0.7-2.9-2.9-2.8c-6.1,0.2-12.3,0.2-18.4,0
		c-2.7-0.1-3.1,0.9-3.1,3.3c0.1,9.8,0,19.6,0.1,29.4c0,2-0.5,2.6-2.6,2.6c-9.6-0.1-19.3-0.1-28.9,0c-2,0-2.5-0.6-2.4-2.5
		C29.1,134.3,29.1,127,29.1,119.8z"/>
	<path fill="#FFFFFF" d="M139.5,95c0,4.4-4.6,7.4-8.5,5.4c-1-0.5-1.9-1.4-2.8-2.2C111.5,81.4,94.7,64.7,78,48
		c-2.8-2.8-3-2.8-5.9,0.1C55.3,64.8,38.5,81.6,21.7,98.4c-1.8,1.8-3.7,3-6.3,2.5c-4.8-1.1-6.3-6.7-2.7-10.3
		c5.8-6,11.8-11.8,17.7-17.7c11.2-11.2,22.3-22.3,33.5-33.5c7.2-7.2,15.2-7.3,22.4-0.1C103,56,119.8,72.8,136.6,89.6
		C138.1,91.1,139.5,92.7,139.5,95z"/>
	<path fill="#FFFFFF" d="M120.4,68.6c-4.9-4.9-9.8-9.9-14.7-14.8c-0.7-0.7-0.9-1.5-0.9-2.5c0-3.8,0.1-7.7,0-11.5
		c0-1.5,0.4-2.1,2-2.1c4.1,0.1,8.2,0,12.4,0c0.9,0,1.9-0.1,1.9,1.3c0,9.8,0,19.5,0,29.3C120.8,68.5,120.6,68.5,120.4,68.6z"/>
</g>
</svg>
