<!-- Generator: Adobe Illustrator 22.1.0, SVG Export Plug-In . SVG Version: 6.00 Build 0)  -->
<svg version="1.1" id="Calque_1" xmlns="http://www.w3.org/2000/svg" xmlns:xlink="http://www.w3.org/1999/xlink" x="0px" y="0px"
	 width="100%" viewBox="0 0 150 150" enable-background="new 0 0 150 150" xml:space="preserve">
<path fill="#316484" d="M138,150H12c-6.6,0-12-5.4-12-12V12C0,5.4,5.4,0,12,0h126c6.6,0,12,5.4,12,12v126
	C150,144.6,144.6,150,138,150z"/>
<g>
	<path fill="#FFFFFF" d="M62.2,144.8c0,2.1-0.5,2.8-2.7,2.7c-10.1-0.1-20.1-0.1-30.2,0c-2.1,0-2.6-0.6-2.6-2.6
		c0.1-7.6,0-15.2,0-22.7c0-7.6,0-15.2,0-22.7c0-1.6,0.4-2.7,1.5-3.8c14.3-14.3,28.6-28.6,43-42.9c2.7-2.7,4.6-2.7,7.4,0.1
		c14.3,14.3,28.6,28.6,42.9,42.9c1,1,1.5,2.1,1.5,3.5c0,15.3,0,30.5,0,45.8c0,1.8-0.4,2.5-2.4,2.5c-10.2-0.1-20.3-0.1-30.5,0
		c-2,0-2.6-0.6-2.6-2.6"/>
	<path fill="#FFFFFF" d="M142.2,96.3c0,4.6-4.8,7.7-8.9,5.6c-1.1-0.6-2-1.4-2.9-2.3c-17.5-17.5-35-35-52.5-52.5c-3-3-3.1-3-6.2,0.1
		C54.2,64.8,36.6,82.3,19,99.9c-1.9,1.9-3.9,3.2-6.6,2.6c-5-1.1-6.6-7-2.8-10.8c6.1-6.2,12.3-12.4,18.5-18.5
		c11.7-11.7,23.3-23.3,35-35c7.6-7.6,15.9-7.6,23.4-0.1c17.6,17.6,35.1,35.1,52.7,52.7C140.8,92.3,142.2,93.9,142.2,96.3z"/>
	<path fill="#FFFFFF" d="M122.2,68.7c-5.1-5.2-10.2-10.3-15.4-15.5c-0.8-0.8-0.9-1.6-0.9-2.6c0-4,0.1-8,0-12.1
		c0-1.6,0.4-2.2,2.1-2.2c4.3,0.1,8.6,0,12.9,0c1,0,2-0.1,2,1.3c0,10.2,0,20.4,0,30.7C122.7,68.6,122.5,68.6,122.2,68.7z"/>
</g>
<path fill="#316484" d="M74.7,116.3c-3.5,0-6.9,0-10.4,0c-0.5,0-0.5,0-0.5,0.5c0,1.6,0,3.2,0,4.8c0,2.4-1.6,4-4,4
	c-0.6,0-1.1,0-1.7,0c-1.5-0.2-2.6-1.1-3.1-2.5c-0.1-0.3-0.2-0.4-0.6-0.3c-1.1,0.2-2.2,0.2-3.2,0c-1.7-0.3-2.8-1.8-2.9-3.5
	c0-0.3,0-0.6,0-1c0-0.3-0.1-0.5-0.4-0.5c-0.2,0-0.4,0-0.7,0c-1.2-0.2-2-1.2-2-2.4c0-1.6,0-3.3,0-4.9c0-1.4,1.1-2.5,2.6-2.5
	c0.6,0,0.6,0.1,0.5-0.6c0-0.9,0-1.7,0.5-2.5c0.7-1.3,1.8-1.9,3.3-2c0.9,0,1.8-0.1,2.7,0.2c0.2,0.1,0.2-0.1,0.3-0.3
	c0.5-1.3,1.3-2.2,2.7-2.5c1.1-0.2,2.2-0.2,3.3,0c1.7,0.4,2.9,1.9,2.9,3.7c0,1.6,0,3.3,0,4.9c0,0.3,0.1,0.4,0.4,0.4
	c7,0,13.9,0,20.9,0c0.4,0,0.4-0.1,0.4-0.4c0-1.7,0-3.3,0-5c0-2.2,1.6-3.8,3.8-3.8c0.5,0,0.9,0,1.4,0c1.7,0,3.1,1,3.6,2.6
	c0.1,0.3,0.2,0.3,0.5,0.3c1.1-0.2,2.3-0.3,3.4,0c1.6,0.4,2.8,1.9,2.8,3.6c0,0.3,0,0.6,0,0.9c0,0.2,0.1,0.4,0.3,0.3
	c0.3,0,0.6,0,0.9,0c1.3,0.1,2.2,1.1,2.2,2.4c0,1.6,0,3.3,0,4.9c0,1.4-1.1,2.4-2.5,2.4c-0.9,0-0.9,0-0.9,1c0.1,2.2-1.4,3.7-2.9,4
	c-1.1,0.2-2.2,0.2-3.3-0.1c-0.3-0.1-0.3,0-0.4,0.2c-0.5,1.6-1.9,2.6-3.6,2.6c-0.8,0-1.6,0.1-2.3-0.1c-1.7-0.4-2.8-1.9-2.9-3.6
	c0-1.7,0-3.4,0-5.1c0-0.4-0.1-0.4-0.4-0.4C81.7,116.3,78.2,116.3,74.7,116.3z M88.1,112.9c0,2.7,0,5.3,0,8c0,0.3,0,0.6,0,0.9
	c0,0.8,0.6,1.2,1.3,1.3c0.4,0,0.8,0,1.3,0c0.9,0,1.4-0.5,1.4-1.4c0-1.1,0-2.2,0-3.3c0-4.7,0-9.4,0-14.1c0-0.9-0.5-1.4-1.4-1.4
	c-0.3,0-0.7,0-1,0c-1.1,0-1.6,0.5-1.6,1.6C88.1,107.2,88.1,110,88.1,112.9z M61.4,112.9c0-2.9,0-5.9,0-8.8c0-0.8-0.5-1.3-1.3-1.4
	c-0.5,0-0.9,0-1.4,0c-0.4,0-0.7,0.2-1,0.5c-0.3,0.3-0.3,0.7-0.3,1.1c0,5.7,0,11.4,0,17.1c0,0.1,0,0.2,0,0.4c0.1,0.7,0.6,1.2,1.3,1.2
	c0.4,0,0.8,0,1.3,0c1,0,1.5-0.5,1.5-1.5C61.4,118.7,61.4,115.8,61.4,112.9z M98.6,112.9c0-2,0-4,0-6c0-0.9-0.5-1.4-1.4-1.4
	c-0.3,0-0.7,0-1,0c-1.2,0-1.6,0.5-1.6,1.6c0,3.4,0,6.7,0,10.1c0,0.6,0,1.2,0,1.7c0,0.9,0.5,1.4,1.4,1.4c0.4,0,0.8,0,1.2,0
	c1,0,1.4-0.5,1.4-1.5C98.6,116.9,98.6,114.9,98.6,112.9z M50.9,112.9c0,2,0,4,0,6.1c0,0.9,0.5,1.4,1.4,1.4c0.4,0,0.8,0,1.3,0
	c0.8,0,1.4-0.5,1.4-1.3c0-4.1,0-8.1,0-12.2c0-0.8-0.5-1.3-1.4-1.3c-0.4,0-0.8,0-1.2,0c-0.9,0-1.4,0.5-1.4,1.4
	C50.9,108.9,50.9,110.9,50.9,112.9z M74.8,112c-1.9,0-3.9,0-5.8,0c-1.5,0-3.1,0-4.6,0c-0.4,0-0.4,0.1-0.4,0.4c0,0.3,0,0.6,0,0.9
	c0,0.6-0.1,0.5,0.5,0.5c6.9,0,13.8,0,20.6,0c0.1,0,0.1,0,0.2,0c0.2,0,0.3-0.1,0.3-0.3c0-0.4,0-0.7,0-1.1c0-0.4-0.1-0.5-0.4-0.5
	C81.7,112,78.3,112,74.8,112z M102,112.9C102,112.9,102,112.9,102,112.9c0-0.6,0-1.2,0-1.8c0-0.6,0-0.6-0.7-0.6
	c-0.2,0-0.3,0.1-0.3,0.3c0,1.4,0,2.9,0,4.3c0,0.2,0.1,0.3,0.3,0.3c0.1,0,0.2,0,0.3,0c0.3,0,0.4-0.1,0.4-0.4
	C102,114.3,102,113.6,102,112.9z M47.7,112.9C47.7,112.9,47.7,112.9,47.7,112.9c0,0.7,0,1.4,0,2.1c0,0.3,0.1,0.3,0.4,0.3
	c0.2,0,0.3,0,0.3-0.3c0-1.4,0-2.8,0-4.2c0-0.2-0.1-0.3-0.3-0.3c-0.3,0-0.3,0.1-0.3,0.3C47.7,111.5,47.7,112.2,47.7,112.9z"/>
</svg>
