<!-- Generator: Adobe Illustrator 22.1.0, SVG Export Plug-In . SVG Version: 6.00 Build 0)  -->
<svg version="1.1" id="Calque_1" xmlns="http://www.w3.org/2000/svg" xmlns:xlink="http://www.w3.org/1999/xlink" x="0px" y="0px"
	 width="100%" viewBox="0 0 150 150" enable-background="new 0 0 150 150" xml:space="preserve">
<path fill="#316484" d="M138,150H12.2c-6.6,0-12-5.4-12-12V12.2c0-6.6,5.4-12,12-12H138c6.6,0,12,5.4,12,12V138
	C150,144.6,144.6,150,138,150z"/>
<g>
	<path fill="#FFFFFF" d="M70.9,122.8c0-2.4,0-4.8,0-7.2c0-0.7-0.2-1.1-0.9-1.4c-2.7-1.4-5.4-2.8-8-4.2c-0.7-0.4-0.9-0.2-1.2,0.5
		c-1.1,3-2.2,5.9-3.3,8.9c-0.8,2.2-2.3,3.6-4.5,4.1c-5.6,1.4-11.3,2.9-16.9,4.2c-3.5,0.8-6.9-1.2-7.7-4.5c-0.9-3.5,1.2-6.8,4.8-7.7
		c3.9-1,7.7-2,11.6-2.9c1.1-0.2,1.6-0.7,1.9-1.8c1.3-6.4,2.7-12.8,4-19.1c0.2-1.1,0-1.4-1.1-1.1c-0.7,0.2-1.4,0.3-2.1,0.3
		c-2.3-0.2-3.5,1.1-4.4,3c-0.9,1.8-2,3.5-3.1,5.3c-2,3.1-5.6,4.1-8.7,2.3c-3-1.8-4-5.5-2.1-8.7c2-3.5,4.2-7,6.3-10.5
		c1.1-1.7,2.6-2.8,4.6-3c4.8-0.6,9.5-1.2,14.3-1.8c0.3,0,0.7,0,0.9-0.1c3.3-2.1,6.6-0.5,9.8-0.1c1.2,0.2,2.4,0.5,3.7,0.7
		c1.2,0.3,2.2,0.8,3.1,1.7c2.5,2.7,5.6,4.6,8.4,7c0.5,0.4,1,0.3,1.5,0.2c4.2-1.1,8.4-2.1,12.7-3.2c3.8-0.9,7.2,1,8.1,4.4
		c0.8,3.5-1.2,6.8-5,7.7c-5.4,1.4-10.8,2.7-16.3,4.1c-2.3,0.6-4.4,0.2-6.2-1.4c-1-0.8-2-1.6-3-2.4c-0.5-0.4-0.9-0.4-0.9,0.3
		c0,0,0,0.1,0,0.1c-0.9,3.2-0.9,3.2,2.1,4.9c2.2,1.3,4.5,2.6,6.7,3.8c2.4,1.3,3.6,3.3,3.6,6.1c0,6.2,0,12.4,0,18.7
		c0,3.7-2.7,6.4-6.2,6.4c-3.6,0-6.2-2.7-6.3-6.5C70.8,127.6,70.9,125.2,70.9,122.8z M51.2,108.8c-0.2,0.8-0.1,1.1,0.4,1.2
		c1.3,0.4,2.6,0.8,3.9,1.2c0.6,0.2,0.8-0.1,1-0.6c0.5-1.4,1-2.8,1.6-4.2c0.6-1.6,1.7-2,3.3-1.2c1.7,0.8,3.3,1.7,4.9,2.6
		c3.3,1.7,3.3,1.7,5.4-1.4c0.5-0.7,0.4-0.9-0.3-1.3c-1.1-0.6-2.2-1.2-3.2-1.8c-2.4-1.4-2.4-1.4-1.9-4.1c0.1-0.6,0.1-0.9-0.6-1
		c-3.6-0.7-7.3-1.5-10.9-2.3c-0.6-0.1-0.9,0-1,0.6C52.9,100.7,52,104.9,51.2,108.8z M79.6,96.1c0.2,0,0.6-0.1,1-0.2
		c2-0.5,4-1,5.9-1.5c3.4-0.9,6.8-1.7,10.2-2.6c1.4-0.4,2-1.4,1.8-2.7c-0.3-1.2-1.3-1.9-2.7-1.7c-0.3,0-0.6,0.1-0.9,0.2
		c-4.5,1.1-9,2.2-13.4,3.4c-1.2,0.3-2,0.1-3-0.6c-2.7-2.2-5.4-4.3-8.1-6.5c-1.3-1-2.7-1-3.5,0.1c-0.8,1-0.6,2.4,0.7,3.4
		c3.3,2.7,6.7,5.3,10,8C78.1,95.9,78.6,96.2,79.6,96.1z M34.9,98.3c0.7,0,1.3-0.6,1.8-1.5c1.6-2.7,3.2-5.3,4.8-8
		c0.5-0.9,1.3-1.4,2.3-1.5c1.5-0.2,2.9-0.4,4.4-0.5c3.7-0.4,3.7-0.4,4.4-4c0.2-1.1-0.1-1.1-1-1c-2.6,0.4-5.3,0.9-7.9,1
		c-3,0.1-4.9,1.2-6.2,4c-1.3,2.7-3.1,5.3-4.7,7.9C31.7,96.4,32.6,98.3,34.9,98.3z M79.4,120.6C79.4,120.6,79.4,120.6,79.4,120.6
		c0-3.1,0-6.1,0-9.2c0-1.7-1.3-3.2-3.2-3.6c-1.2-0.2-1.2,1.2-1.9,1.7c-0.2,0.1-0.3,0.4-0.4,0.5c-0.6,0.6-1.1,1.2,0.2,1.8
		c0.7,0.3,0.8,1,0.8,1.7c0,0.8,0,1.5,0,2.3c0,4.6,0,9.2,0,13.9c0,1.7,0.8,2.6,2.1,2.7c1.4,0.1,2.3-0.9,2.4-2.6
		C79.5,126.7,79.4,123.7,79.4,120.6z M34.6,123.9c0.2,0,0.4,0,0.6-0.1c5.6-1.4,11.3-2.8,16.9-4.2c0.8-0.2,1.3-0.7,1.6-1.5
		c0.3-0.7,0.5-1.5,0.8-2.2c0.2-0.5,0.2-0.8-0.4-0.9c-1.1-0.3-2.1-0.6-3.2-1c-0.4-0.1-0.8-0.3-1,0.3c-0.3,1.2-1.3,1.5-2.3,1.8
		c-4,1-8,2-12,3c-0.7,0.2-1.5,0.3-2.2,0.6c-1.1,0.5-1.5,1.4-1.2,2.5C32.6,123.3,33.4,123.8,34.6,123.9z M67,94.3
		c0.1,0,0.5,0,0.5-0.5c0-0.5,0.5-1-0.1-1.5c-0.8-0.6-1.5-1.2-2.3-1.8c-3-2.4-3.5-5.4-1.6-8.7c0.4-0.7,0.2-0.9-0.5-1
		c-1.1-0.2-2.3-0.4-3.4-0.6c-1.5-0.2-2.4,0.3-2.8,1.8c-0.7,3-1.3,6-1.9,9c-0.1,0.5-0.1,0.7,0.5,0.8C59.2,92.7,62.9,93.5,67,94.3z"/>
	<path fill="#FFFFFF" d="M43,25.5c-2.7,4.7-5.3,9.1-7.9,13.5c-5.9,10.1-11.8,20.2-17.6,30.2c-0.8,1.3-0.8,1.4,0.8,1.4
		c12.2,0,24.4,0,36.6,0c1.5,0,1.5,0,1.1-1.5c-1.3-4.3,0.3-8.9,4.1-11.5c3.6-2.6,8.5-2.5,12.2,0.1c3.6,2.5,5.2,7.2,3.9,11.5
		c-0.4,1.4-0.4,1.4,1.1,1.4c8.7,0,17.3,0,26,0c0.7,0,1.3,0,2,0.1c1,0.2,1.5,0.9,1.6,1.9c0,1-0.5,1.7-1.5,1.9
		c-0.5,0.1-1.1,0.1-1.6,0.1c-10.3,0-20.5,0-30.8-0.1c-0.5,0-0.7,0.2-1.1,0.4c-3.9,2.4-7.9,2.4-11.8-0.1c-0.3-0.2-0.7-0.3-1.1-0.3
		c-15.1,0-30.1,0.1-45.2,0.1c-2.4,0-3.3-1.5-2-3.6c9.7-16.6,19.4-33.3,29.1-49.9c1.3-2.3,2.9-2.2,4.3,0.1C50.1,29.8,55,38.4,59.9,47
		c0.5,0.9,0.8,1.2,1.8,0.3c4.5-4,9.1-8,13.6-12c1.6-1.4,2.5-1.3,3.9,0.3C86.1,43.8,93.1,52,100,60.3c0.7,0.8,1.1,0.9,2,0.2
		c2.4-2,4.9-4,7.4-5.9c1.8-1.4,2.6-1.4,4,0.3c4.3,4.9,8.6,9.7,12.8,14.7c0.7,0.8,1.4,1.1,2.5,1.1c2.6-0.1,5.2,0,7.7,0
		c1.6,0,2.5,0.7,2.4,2c0,1.3-0.9,2-2.5,2c-7.5,0-14.9,0-22.4,0c-1.8,0-2.7-0.9-2.5-2.3c0.2-1.3,1.2-1.7,2.3-1.7c1.3,0,2.6,0,3.9,0
		c1.2,0,2.5,0,3.7,0c0.2-0.4,0-0.5-0.2-0.7c-3.1-3.6-6.3-7.1-9.4-10.7c-0.6-0.7-1-0.8-1.7-0.2c-2.5,2.1-5.1,4.1-7.7,6.2
		c-1.6,1.3-2.5,1.2-3.8-0.4c-6.9-8.2-13.9-16.4-20.8-24.6c-0.7-0.8-1-0.9-1.8-0.2c-4.6,4.1-9.3,8.2-14,12.3c-1.7,1.5-2.9,1.3-4-0.7
		c-4.7-8.2-9.4-16.5-14.1-24.7C43.6,26.5,43.4,26.1,43,25.5z M66.1,72.7c3.6,0,6.5-3,6.5-6.5c0-3.6-3-6.5-6.6-6.5
		c-3.6,0-6.5,2.9-6.5,6.5C59.6,69.9,62.5,72.7,66.1,72.7z"/>
	<path fill="#FFFFFF" d="M132.4,140.7c0,1.1-0.4,1.7-1.2,2c-0.9,0.3-1.8,0.1-2.4-0.7c-1.3-1.7-2.7-3.4-3.9-5.2c-0.7-1-1-1-1.7,0
		c-1.1,1.7-2.4,3.3-3.7,4.9c-1.2,1.6-2.6,1.6-3.8,0c-1.3-1.7-2.6-3.5-3.9-5.2c-0.4-0.6-0.7-0.7-1.1,0c-1.3,1.8-2.6,3.5-3.9,5.2
		c-1.3,1.7-2.6,1.6-3.9,0c-1.3-1.7-2.5-3.3-3.7-5c-0.5-0.7-0.8-0.9-1.4,0c-1.2,1.7-2.5,3.4-3.8,5.1c-0.9,1.2-2.1,1.5-3.1,0.8
		c-1-0.7-1-1.9-0.1-3.2c1.9-2.6,3.9-5.2,5.8-7.8c1.2-1.5,2.6-1.5,3.7,0c1.3,1.7,2.7,3.5,3.9,5.2c0.5,0.8,0.8,0.7,1.3,0
		c1.2-1.7,2.4-3.3,3.7-4.9c1.4-1.9,2.7-1.9,4.1,0c1.3,1.7,2.5,3.3,3.7,5c0.5,0.7,0.7,0.6,1.2,0c1.3-1.8,2.6-3.5,3.9-5.2
		c1.2-1.5,2.6-1.6,3.7,0c2,2.6,3.9,5.3,5.9,7.9C132.2,139.8,132.5,140.3,132.4,140.7z"/>
	<path fill="#FFFFFF" d="M59.9,140.9c0,0.9-0.5,1.5-1.3,1.8c-0.9,0.3-1.7,0.1-2.3-0.7c-1.3-1.8-2.7-3.5-4-5.3c-0.7-1-1-0.8-1.6,0
		c-1.2,1.7-2.4,3.3-3.7,4.9c-1.2,1.6-2.6,1.6-3.8,0c-1.3-1.7-2.6-3.3-3.7-5c-0.7-1-1-0.8-1.6,0c-1.2,1.7-2.5,3.4-3.7,5
		c-1.2,1.5-2.5,1.5-3.7,0c-1.3-1.7-2.6-3.4-3.8-5.1c-0.6-0.9-0.9-0.7-1.5,0c-1.2,1.7-2.5,3.4-3.7,5c-0.9,1.2-2.1,1.5-3.1,0.8
		c-1-0.7-1.1-1.9-0.2-3.2c1.9-2.6,3.9-5.2,5.8-7.8c1.2-1.6,2.6-1.6,3.8,0c1.3,1.7,2.6,3.5,3.9,5.2c0.4,0.6,0.7,0.6,1.1,0
		c1.3-1.8,2.6-3.5,3.9-5.2c1.3-1.7,2.6-1.6,3.9,0c1.3,1.7,2.6,3.4,3.8,5.1c0.5,0.6,0.7,0.7,1.2,0c1.3-1.8,2.6-3.5,3.9-5.2
		c1.2-1.6,2.6-1.6,3.8,0c1.9,2.5,3.8,5.1,5.8,7.7C59.6,139.7,60,140.2,59.9,140.9z"/>
	<path fill="#FFFFFF" d="M119.8,46.9c-5.8,0-10.5-4.7-10.5-10.5c0-5.9,4.7-10.6,10.6-10.5c5.8,0.1,10.5,4.7,10.4,10.6
		C130.3,42.2,125.6,46.9,119.8,46.9z M126.3,36.5c0.1-3.6-2.8-6.5-6.4-6.6c-3.6-0.1-6.6,2.8-6.6,6.4c-0.1,3.6,2.8,6.6,6.4,6.6
		C123.3,42.9,126.2,40.1,126.3,36.5z"/>
	<path fill="#FFFFFF" d="M121.8,21.4c0,0.8,0.1,1.5,0,2.3c-0.1,1.2-0.9,1.9-2,1.9c-1.1-0.1-1.8-0.7-1.9-1.8c-0.1-1.5-0.1-3,0-4.5
		c0.1-1.2,0.9-1.9,2-1.9c1.1,0.1,1.8,0.7,1.9,1.8C121.8,19.9,121.8,20.7,121.8,21.4z"/>
	<path fill="#FFFFFF" d="M104.8,38.3c-0.8,0-1.6,0.1-2.4,0c-1.1-0.1-1.6-0.9-1.6-1.9c0-1.1,0.6-1.8,1.6-1.9c1.6-0.1,3.3-0.1,4.9,0
		c1.1,0.1,1.6,0.9,1.6,1.9c0,1.1-0.6,1.8-1.6,1.9C106.5,38.4,105.6,38.3,104.8,38.3z"/>
	<path fill="#FFFFFF" d="M134.7,34.4c0.8,0,1.5-0.1,2.3,0c1.2,0.1,1.9,0.9,1.9,2c0,1.1-0.7,1.9-1.8,1.9c-1.5,0.1-3.1,0.1-4.6,0
		c-1.1-0.1-1.7-0.8-1.7-2c0-1.1,0.7-1.8,1.8-1.9C133.2,34.3,133.9,34.4,134.7,34.4C134.7,34.4,134.7,34.4,134.7,34.4z"/>
	<path fill="#FFFFFF" d="M121.8,51.3c0,0.8,0.1,1.6,0,2.4c-0.1,1.1-0.9,1.7-2,1.7c-1.1,0-1.8-0.6-1.9-1.7c-0.1-1.6-0.1-3.2,0-4.8
		c0.1-1.1,0.9-1.7,2-1.7c1.1,0,1.8,0.6,1.9,1.7C121.8,49.7,121.8,50.5,121.8,51.3z"/>
	<path fill="#FFFFFF" d="M112.7,27.2c0,0.9-0.4,1.5-1.1,1.8c-0.7,0.4-1.5,0.4-2.1-0.2c-1.1-1-2.3-2.1-3.3-3.3
		c-0.6-0.7-0.6-1.7,0.1-2.4c0.7-0.8,1.6-1,2.4-0.4c1.4,1,2.7,2.3,3.7,3.7C112.7,26.7,112.7,27,112.7,27.2z"/>
	<path fill="#FFFFFF" d="M131.7,22.4c1.7,0.1,2.6,1.9,1.7,3c-1,1.2-2.2,2.3-3.4,3.4c-0.7,0.7-1.7,0.6-2.4-0.1
		c-0.8-0.7-1-1.6-0.4-2.4c1-1.4,2.3-2.7,3.7-3.7C131.1,22.5,131.5,22.5,131.7,22.4z"/>
	<path fill="#FFFFFF" d="M112.7,45.5c0,0.5-0.1,0.9-0.4,1.2c-1.1,1.1-2.1,2.2-3.2,3.2c-0.8,0.7-1.8,0.6-2.5-0.1
		c-0.8-0.7-0.9-1.7-0.3-2.5c1-1.2,2.2-2.3,3.4-3.4c0.6-0.6,1.4-0.5,2.1-0.1C112.4,44.1,112.7,44.7,112.7,45.5z"/>
	<path fill="#FFFFFF" d="M128.9,43.5c0.4,0,0.8,0.1,1.1,0.4c1.1,1.1,2.3,2.1,3.3,3.3c0.7,0.8,0.6,1.8-0.1,2.5
		c-0.8,0.8-1.8,0.9-2.6,0.2c-1.1-1-2.2-2.1-3.2-3.2c-0.6-0.6-0.6-1.4-0.3-2.1C127.4,43.8,128.1,43.4,128.9,43.5z"/>
</g>
</svg>
