<!-- Generator: Adobe Illustrator 22.1.0, SVG Export Plug-In . SVG Version: 6.00 Build 0)  -->
<svg version="1.1" id="Calque_1" xmlns="http://www.w3.org/2000/svg" xmlns:xlink="http://www.w3.org/1999/xlink" x="0px" y="0px"
	 viewBox="0 0 150 150" enable-background="new 0 0 150 150" xml:space="preserve">
<g>
	<path fill="#F7CB18" d="M75.4,108.8c-18.5,0-33.4-15-33.4-33.5s14.9-33.5,33.8-33.5c18.1,0,33.4,15,33.4,33.5
		C108.8,93.4,93.8,108.4,75.4,108.8z"/>
	<path fill="#F7CB18" d="M73,134.5c0-3.9,0-7.9,0-11.8c0-2.4,1.6-3.9,3.5-3.5c2,0,3.1,1.6,3.1,3.5c0,2,0,4.3,0,6.3
		c0,5.9,0,11.4,0,17.3c0,2.8-2.7,4.7-5.1,3.2c-1.6-0.8-2-2-2-3.5C73,142.3,73,138.4,73,134.5z"/>
	<path fill="#F7CB18" d="M141,110c0,2.8-2.7,4.3-5.1,2.8c-3.1-1.6-6.3-3.5-9.4-5.5c-3.5-2-7.1-4.3-10.6-6.3c-2-1.2-2.7-3.2-2-5.1
		c1.2-2,3.1-2.4,5.1-1.2c6.7,3.9,13.4,7.9,20,11.4C140.2,107.2,141,108.4,141,110z"/>
	<path fill="#F7CB18" d="M115.8,54c-1.6,0-2.7-0.8-3.1-2.4c-0.4-1.6,0-3.2,1.6-3.9c2.4-1.6,4.7-2.8,7.1-4.3c4.3-2.8,9-5.1,13.4-7.9
		c2.4-1.2,4.3-0.4,5.1,1.6c0.8,1.6,0,3.2-2,4.3c-5.1,2.8-9.8,5.9-14.9,8.7c-1.6,1.2-3.5,2-5.1,3.2C117,53.6,116.6,54,115.8,54z"/>
	<path fill="#F7CB18" d="M50.3,37.9c-0.8,0-2-0.8-2.7-1.6c-3.9-7.1-7.9-13.8-11.8-20.9c-0.8-1.6-0.4-3.5,1.2-4.7
		c1.6-0.8,3.5-0.4,4.7,1.2c3.9,7.1,8.2,13.8,12.2,20.9C55.4,35.1,53.4,37.9,50.3,37.9z"/>
	<path fill="#F7CB18" d="M113.5,12.6c0,0.8-0.4,1.6-0.8,2.4c-3.9,6.7-7.5,13-11.4,19.7c-1.2,2.4-3.1,2.8-5.1,1.6
		c-2-1.2-2.4-3.2-0.8-5.1c3.9-6.7,7.9-13.4,11.8-20.1c0.8-1.6,2.4-2.4,3.9-1.6C112.7,9.9,113.5,11,113.5,12.6z"/>
	<path fill="#F7CB18" d="M37.3,51.7c0,3.2-2.7,4.7-5.1,3.2c-3.1-1.6-6.3-3.5-9-5.1c-3.5-2-7.5-4.3-11-6.3c-2.4-1.2-2.7-3.2-1.6-5.1
		c1.2-2,3.1-2.4,5.1-0.8c6.7,3.9,13.4,7.5,19.6,11.4C36.5,49.7,37.3,50.5,37.3,51.7z"/>
	<path fill="#F7CB18" d="M56.1,116.7c0,0.8-0.4,1.2-0.8,2c-3.9,6.7-7.9,13.4-11.4,20.1c-1.2,2-3.1,2.4-4.7,1.6
		c-1.6-1.2-2.4-3.2-1.2-5.1c3.9-6.7,7.9-13.4,11.8-20.1c0.8-1.6,2.4-2.4,3.9-2C55,113.6,56.1,115.1,56.1,116.7z"/>
	<path fill="#F7CB18" d="M99.7,112.4c1.6,0,2.4,0.8,3.1,1.6c3.9,6.7,7.9,13.8,11.8,20.5c1.2,2,0.4,3.9-1.2,4.7s-3.5,0.4-4.7-1.2
		c-3.9-7.1-7.9-13.8-11.8-20.9C95.4,115.1,97,112.4,99.7,112.4z"/>
	<path fill="#F7CB18" d="M14.1,115.1c-1.6,0-2.7-0.8-3.1-2.4c-0.4-1.6,0-3.2,1.6-3.9c3.1-2,5.9-3.5,9-5.5c3.9-2.4,7.5-4.3,11.4-6.7
		c1.6-0.8,2.7-0.8,4.3,0c1.2,0.8,1.6,2,1.2,3.5c-0.4,1.2-0.8,1.6-1.6,2.4c-6.7,3.9-13.7,7.9-20.4,11.8
		C15.3,114.7,14.9,115.1,14.1,115.1z"/>
	<path fill="#F7CB18" d="M77.7,15.8c0,3.9,0,7.9,0,11.4c0,2.4-1.2,3.9-3.5,3.9c-2,0-3.5-1.6-3.5-3.9c0-7.9,0-15.4,0-23.3
		c0-2.4,1.6-3.9,3.5-3.9s3.5,1.6,3.5,3.9C77.7,7.9,77.7,11.8,77.7,15.8z"/>
	<path fill="#F7CB18" d="M16.1,79.6c-3.9,0-7.9,0-12.2,0c-2,0-3.1-1.2-3.5-2.8c-0.4-1.6,0.8-3.2,2-3.9c0.4-0.4,1.2-0.4,1.6-0.4
		c7.9,0,15.3,0,23.2,0c2.4,0,3.9,1.6,3.9,3.5c0,2-1.6,3.5-3.9,3.5C23.9,79.6,20,79.6,16.1,79.6L16.1,79.6z"/>
	<path fill="#F7CB18" d="M134.7,70.6c3.9,0,7.9,0,11.8,0c2.4,0,3.5,1.2,3.5,3.5c0,2-1.6,3.5-3.5,3.5c-7.9,0-15.7,0-23.6,0
		c-2,0-3.5-1.6-3.5-3.5c0-2,1.6-3.5,3.5-3.5C126.8,70.6,130.8,70.6,134.7,70.6z"/>
</g>
</svg>
